%TF.GenerationSoftware,KiCad,Pcbnew,10.0.4*%
%TF.CreationDate,2026-09-10T13:39:29+02:00*%
%TF.ProjectId,005_CPU soldering fan,3030355f-4350-4552-9073-6f6c64657269,1.0*%
%TF.SameCoordinates,Original*%
%TF.FileFunction,Paste,Top*%
%TF.FilePolarity,Positive*%
%FSLAX46Y46*%
G04 Gerber Fmt 4.6, Leading zero omitted, Abs format (unit mm)*
G04 Created by KiCad (PCBNEW 10.0.4) date 2026-09-10 13:39:29*
%MOMM*%
%LPD*%
G01*
G04 APERTURE LIST*
G04 Aperture macros list*
%AMRoundRect*
0 Rectangle with rounded corners*
0 $1 Rounding radius*
0 $2 $3 $4 $5 $6 $7 $8 $9 X,Y pos of 4 corners*
0 Add a 4 corners polygon primitive as box body*
4,1,4,$2,$3,$4,$5,$6,$7,$8,$9,$2,$3,0*
0 Add four circle primitives for the rounded corners*
1,1,$1+$1,$2,$3*
1,1,$1+$1,$4,$5*
1,1,$1+$1,$6,$7*
1,1,$1+$1,$8,$9*
0 Add four rect primitives between the rounded corners*
20,1,$1+$1,$2,$3,$4,$5,0*
20,1,$1+$1,$4,$5,$6,$7,0*
20,1,$1+$1,$6,$7,$8,$9,0*
20,1,$1+$1,$8,$9,$2,$3,0*%
G04 Aperture macros list end*
%ADD10C,0.010000*%
%ADD11RoundRect,0.250000X-0.375000X-0.625000X0.375000X-0.625000X0.375000X0.625000X-0.375000X0.625000X0*%
%ADD12RoundRect,0.250000X1.100000X-0.325000X1.100000X0.325000X-1.100000X0.325000X-1.100000X-0.325000X0*%
%ADD13RoundRect,0.250000X0.450000X-0.262500X0.450000X0.262500X-0.450000X0.262500X-0.450000X-0.262500X0*%
%ADD14RoundRect,0.250000X-0.250000X-0.475000X0.250000X-0.475000X0.250000X0.475000X-0.250000X0.475000X0*%
%ADD15RoundRect,0.250000X-0.262500X-0.450000X0.262500X-0.450000X0.262500X0.450000X-0.262500X0.450000X0*%
%ADD16RoundRect,0.250000X-0.475000X0.250000X-0.475000X-0.250000X0.475000X-0.250000X0.475000X0.250000X0*%
%ADD17RoundRect,0.150000X0.587500X0.150000X-0.587500X0.150000X-0.587500X-0.150000X0.587500X-0.150000X0*%
%ADD18RoundRect,0.150000X-0.825000X-0.150000X0.825000X-0.150000X0.825000X0.150000X-0.825000X0.150000X0*%
%ADD19RoundRect,0.125000X-0.125000X-0.137500X0.125000X-0.137500X0.125000X0.137500X-0.125000X0.137500X0*%
%ADD20RoundRect,0.250000X0.475000X-0.250000X0.475000X0.250000X-0.475000X0.250000X-0.475000X-0.250000X0*%
%ADD21RoundRect,0.250000X1.075000X-0.312500X1.075000X0.312500X-1.075000X0.312500X-1.075000X-0.312500X0*%
%ADD22RoundRect,0.093750X0.156250X0.093750X-0.156250X0.093750X-0.156250X-0.093750X0.156250X-0.093750X0*%
%ADD23RoundRect,0.075000X0.250000X0.075000X-0.250000X0.075000X-0.250000X-0.075000X0.250000X-0.075000X0*%
%ADD24RoundRect,0.250000X0.250000X0.475000X-0.250000X0.475000X-0.250000X-0.475000X0.250000X-0.475000X0*%
%ADD25R,4.000000X2.750000*%
%ADD26RoundRect,0.250000X-0.450000X0.262500X-0.450000X-0.262500X0.450000X-0.262500X0.450000X0.262500X0*%
%ADD27RoundRect,0.031250X-0.093750X0.268750X-0.093750X-0.268750X0.093750X-0.268750X0.093750X0.268750X0*%
%ADD28RoundRect,0.031250X-0.268750X0.093750X-0.268750X-0.093750X0.268750X-0.093750X0.268750X0.093750X0*%
%ADD29RoundRect,0.250000X0.262500X0.450000X-0.262500X0.450000X-0.262500X-0.450000X0.262500X-0.450000X0*%
%ADD30RoundRect,0.150000X0.150000X-0.512500X0.150000X0.512500X-0.150000X0.512500X-0.150000X-0.512500X0*%
%ADD31RoundRect,0.147500X-0.147500X0.457500X-0.147500X-0.457500X0.147500X-0.457500X0.147500X0.457500X0*%
%ADD32RoundRect,0.225000X0.225000X0.250000X-0.225000X0.250000X-0.225000X-0.250000X0.225000X-0.250000X0*%
%ADD33R,0.736600X2.794000*%
%ADD34RoundRect,0.250000X-1.100000X0.325000X-1.100000X-0.325000X1.100000X-0.325000X1.100000X0.325000X0*%
%ADD35RoundRect,0.250001X0.949999X-1.412499X0.949999X1.412499X-0.949999X1.412499X-0.949999X-1.412499X0*%
%ADD36R,0.980000X3.400000*%
%ADD37RoundRect,0.250000X-0.650000X1.000000X-0.650000X-1.000000X0.650000X-1.000000X0.650000X1.000000X0*%
%ADD38RoundRect,0.225000X-0.225000X-0.250000X0.225000X-0.250000X0.225000X0.250000X-0.225000X0.250000X0*%
%ADD39RoundRect,0.250000X0.325000X1.100000X-0.325000X1.100000X-0.325000X-1.100000X0.325000X-1.100000X0*%
%ADD40RoundRect,0.225000X0.250000X-0.225000X0.250000X0.225000X-0.250000X0.225000X-0.250000X-0.225000X0*%
%ADD41RoundRect,0.250000X-0.325000X-1.100000X0.325000X-1.100000X0.325000X1.100000X-0.325000X1.100000X0*%
%ADD42RoundRect,0.125000X-0.625000X-0.125000X0.625000X-0.125000X0.625000X0.125000X-0.625000X0.125000X0*%
%ADD43RoundRect,0.125000X-0.125000X-0.625000X0.125000X-0.625000X0.125000X0.625000X-0.125000X0.625000X0*%
%ADD44RoundRect,0.150000X0.150000X0.425000X-0.150000X0.425000X-0.150000X-0.425000X0.150000X-0.425000X0*%
%ADD45RoundRect,0.075000X0.075000X0.500000X-0.075000X0.500000X-0.075000X-0.500000X0.075000X-0.500000X0*%
%ADD46O,1.000000X2.100000*%
%ADD47O,1.000000X1.800000*%
%ADD48RoundRect,0.160000X0.160000X-0.160000X0.160000X0.160000X-0.160000X0.160000X-0.160000X-0.160000X0*%
%ADD49RoundRect,0.062500X0.062500X-0.375000X0.062500X0.375000X-0.062500X0.375000X-0.062500X-0.375000X0*%
%ADD50RoundRect,0.062500X0.375000X-0.062500X0.375000X0.062500X-0.375000X0.062500X-0.375000X-0.062500X0*%
%ADD51RoundRect,0.250000X-1.075000X0.312500X-1.075000X-0.312500X1.075000X-0.312500X1.075000X0.312500X0*%
%ADD52RoundRect,0.250000X0.650000X-0.325000X0.650000X0.325000X-0.650000X0.325000X-0.650000X-0.325000X0*%
%ADD53RoundRect,0.025000X-0.115000X0.100000X-0.115000X-0.100000X0.115000X-0.100000X0.115000X0.100000X0*%
%ADD54RoundRect,0.035000X-0.425000X0.140000X-0.425000X-0.140000X0.425000X-0.140000X0.425000X0.140000X0*%
%ADD55RoundRect,0.052000X-0.208000X0.448000X-0.208000X-0.448000X0.208000X-0.448000X0.208000X0.448000X0*%
%ADD56RoundRect,0.062500X-0.062500X0.212500X-0.062500X-0.212500X0.062500X-0.212500X0.062500X0.212500X0*%
%ADD57RoundRect,0.062500X0.062500X-0.212500X0.062500X0.212500X-0.062500X0.212500X-0.062500X-0.212500X0*%
G04 APERTURE END LIST*
D10*
%TO.C,U4*%
X214975000Y-105205000D02*
X214825000Y-105205000D01*
X214822000Y-105205000D01*
X214820000Y-105205000D01*
X214817000Y-105206000D01*
X214815000Y-105206000D01*
X214812000Y-105207000D01*
X214810000Y-105207000D01*
X214807000Y-105208000D01*
X214805000Y-105209000D01*
X214802000Y-105210000D01*
X214800000Y-105212000D01*
X214798000Y-105213000D01*
X214796000Y-105215000D01*
X214794000Y-105216000D01*
X214792000Y-105218000D01*
X214790000Y-105220000D01*
X214788000Y-105222000D01*
X214786000Y-105224000D01*
X214785000Y-105226000D01*
X214783000Y-105228000D01*
X214782000Y-105230000D01*
X214780000Y-105232000D01*
X214779000Y-105235000D01*
X214778000Y-105237000D01*
X214777000Y-105240000D01*
X214777000Y-105242000D01*
X214776000Y-105245000D01*
X214776000Y-105247000D01*
X214775000Y-105250000D01*
X214775000Y-105252000D01*
X214775000Y-105255000D01*
X214775000Y-105875000D01*
X214775000Y-105878000D01*
X214775000Y-105880000D01*
X214776000Y-105883000D01*
X214776000Y-105885000D01*
X214777000Y-105888000D01*
X214777000Y-105890000D01*
X214778000Y-105893000D01*
X214779000Y-105895000D01*
X214780000Y-105898000D01*
X214782000Y-105900000D01*
X214783000Y-105902000D01*
X214785000Y-105904000D01*
X214786000Y-105906000D01*
X214788000Y-105908000D01*
X214790000Y-105910000D01*
X214792000Y-105912000D01*
X214794000Y-105914000D01*
X214796000Y-105915000D01*
X214798000Y-105917000D01*
X214800000Y-105918000D01*
X214802000Y-105920000D01*
X214805000Y-105921000D01*
X214807000Y-105922000D01*
X214810000Y-105923000D01*
X214812000Y-105923000D01*
X214815000Y-105924000D01*
X214817000Y-105924000D01*
X214820000Y-105925000D01*
X214822000Y-105925000D01*
X214825000Y-105925000D01*
X214975000Y-105925000D01*
X214978000Y-105925000D01*
X214980000Y-105925000D01*
X214983000Y-105924000D01*
X214985000Y-105924000D01*
X214988000Y-105923000D01*
X214990000Y-105923000D01*
X214993000Y-105922000D01*
X214995000Y-105921000D01*
X214998000Y-105920000D01*
X215000000Y-105918000D01*
X215002000Y-105917000D01*
X215004000Y-105915000D01*
X215006000Y-105914000D01*
X215008000Y-105912000D01*
X215010000Y-105910000D01*
X215012000Y-105908000D01*
X215014000Y-105906000D01*
X215015000Y-105904000D01*
X215017000Y-105902000D01*
X215018000Y-105900000D01*
X215020000Y-105898000D01*
X215021000Y-105895000D01*
X215022000Y-105893000D01*
X215023000Y-105890000D01*
X215023000Y-105888000D01*
X215024000Y-105885000D01*
X215024000Y-105883000D01*
X215025000Y-105880000D01*
X215025000Y-105878000D01*
X215025000Y-105875000D01*
X215025000Y-105255000D01*
X215025000Y-105252000D01*
X215025000Y-105250000D01*
X215024000Y-105247000D01*
X215024000Y-105245000D01*
X215023000Y-105242000D01*
X215023000Y-105240000D01*
X215022000Y-105237000D01*
X215021000Y-105235000D01*
X215020000Y-105232000D01*
X215018000Y-105230000D01*
X215017000Y-105228000D01*
X215015000Y-105226000D01*
X215014000Y-105224000D01*
X215012000Y-105222000D01*
X215010000Y-105220000D01*
X215008000Y-105218000D01*
X215006000Y-105216000D01*
X215004000Y-105215000D01*
X215002000Y-105213000D01*
X215000000Y-105212000D01*
X214998000Y-105210000D01*
X214995000Y-105209000D01*
X214993000Y-105208000D01*
X214990000Y-105207000D01*
X214988000Y-105207000D01*
X214985000Y-105206000D01*
X214983000Y-105206000D01*
X214980000Y-105205000D01*
X214978000Y-105205000D01*
X214975000Y-105205000D01*
G36*
X214983000Y-105206000D02*
G01*
X214985000Y-105206000D01*
X214988000Y-105207000D01*
X214990000Y-105207000D01*
X214993000Y-105208000D01*
X214995000Y-105209000D01*
X214998000Y-105210000D01*
X215000000Y-105212000D01*
X215002000Y-105213000D01*
X215004000Y-105215000D01*
X215006000Y-105216000D01*
X215008000Y-105218000D01*
X215010000Y-105220000D01*
X215012000Y-105222000D01*
X215014000Y-105224000D01*
X215015000Y-105226000D01*
X215017000Y-105228000D01*
X215018000Y-105230000D01*
X215020000Y-105232000D01*
X215021000Y-105235000D01*
X215022000Y-105237000D01*
X215023000Y-105240000D01*
X215023000Y-105242000D01*
X215024000Y-105245000D01*
X215024000Y-105247000D01*
X215025000Y-105250000D01*
X215025000Y-105252000D01*
X215025000Y-105255000D01*
X215025000Y-105875000D01*
X215025000Y-105878000D01*
X215025000Y-105880000D01*
X215024000Y-105883000D01*
X215024000Y-105885000D01*
X215023000Y-105888000D01*
X215023000Y-105890000D01*
X215022000Y-105893000D01*
X215021000Y-105895000D01*
X215020000Y-105898000D01*
X215018000Y-105900000D01*
X215017000Y-105902000D01*
X215015000Y-105904000D01*
X215014000Y-105906000D01*
X215012000Y-105908000D01*
X215010000Y-105910000D01*
X215008000Y-105912000D01*
X215006000Y-105914000D01*
X215004000Y-105915000D01*
X215002000Y-105917000D01*
X215000000Y-105918000D01*
X214998000Y-105920000D01*
X214995000Y-105921000D01*
X214993000Y-105922000D01*
X214990000Y-105923000D01*
X214988000Y-105923000D01*
X214985000Y-105924000D01*
X214983000Y-105924000D01*
X214980000Y-105925000D01*
X214978000Y-105925000D01*
X214975000Y-105925000D01*
X214825000Y-105925000D01*
X214822000Y-105925000D01*
X214820000Y-105925000D01*
X214817000Y-105924000D01*
X214815000Y-105924000D01*
X214812000Y-105923000D01*
X214810000Y-105923000D01*
X214807000Y-105922000D01*
X214805000Y-105921000D01*
X214802000Y-105920000D01*
X214800000Y-105918000D01*
X214798000Y-105917000D01*
X214796000Y-105915000D01*
X214794000Y-105914000D01*
X214792000Y-105912000D01*
X214790000Y-105910000D01*
X214788000Y-105908000D01*
X214786000Y-105906000D01*
X214785000Y-105904000D01*
X214783000Y-105902000D01*
X214782000Y-105900000D01*
X214780000Y-105898000D01*
X214779000Y-105895000D01*
X214778000Y-105893000D01*
X214777000Y-105890000D01*
X214777000Y-105888000D01*
X214776000Y-105885000D01*
X214776000Y-105883000D01*
X214775000Y-105880000D01*
X214775000Y-105878000D01*
X214775000Y-105875000D01*
X214775000Y-105255000D01*
X214775000Y-105252000D01*
X214775000Y-105250000D01*
X214776000Y-105247000D01*
X214776000Y-105245000D01*
X214777000Y-105242000D01*
X214777000Y-105240000D01*
X214778000Y-105237000D01*
X214779000Y-105235000D01*
X214780000Y-105232000D01*
X214782000Y-105230000D01*
X214783000Y-105228000D01*
X214785000Y-105226000D01*
X214786000Y-105224000D01*
X214788000Y-105222000D01*
X214790000Y-105220000D01*
X214792000Y-105218000D01*
X214794000Y-105216000D01*
X214796000Y-105215000D01*
X214798000Y-105213000D01*
X214800000Y-105212000D01*
X214802000Y-105210000D01*
X214805000Y-105209000D01*
X214807000Y-105208000D01*
X214810000Y-105207000D01*
X214812000Y-105207000D01*
X214815000Y-105206000D01*
X214817000Y-105206000D01*
X214820000Y-105205000D01*
X214822000Y-105205000D01*
X214825000Y-105205000D01*
X214975000Y-105205000D01*
X214978000Y-105205000D01*
X214980000Y-105205000D01*
X214983000Y-105206000D01*
G37*
X214975000Y-106125000D02*
X214825000Y-106125000D01*
X214822000Y-106125000D01*
X214820000Y-106125000D01*
X214817000Y-106126000D01*
X214815000Y-106126000D01*
X214812000Y-106127000D01*
X214810000Y-106127000D01*
X214807000Y-106128000D01*
X214805000Y-106129000D01*
X214802000Y-106130000D01*
X214800000Y-106132000D01*
X214798000Y-106133000D01*
X214796000Y-106135000D01*
X214794000Y-106136000D01*
X214792000Y-106138000D01*
X214790000Y-106140000D01*
X214788000Y-106142000D01*
X214786000Y-106144000D01*
X214785000Y-106146000D01*
X214783000Y-106148000D01*
X214782000Y-106150000D01*
X214780000Y-106152000D01*
X214779000Y-106155000D01*
X214778000Y-106157000D01*
X214777000Y-106160000D01*
X214777000Y-106162000D01*
X214776000Y-106165000D01*
X214776000Y-106167000D01*
X214775000Y-106170000D01*
X214775000Y-106172000D01*
X214775000Y-106175000D01*
X214775000Y-106795000D01*
X214775000Y-106798000D01*
X214775000Y-106800000D01*
X214776000Y-106803000D01*
X214776000Y-106805000D01*
X214777000Y-106808000D01*
X214777000Y-106810000D01*
X214778000Y-106813000D01*
X214779000Y-106815000D01*
X214780000Y-106818000D01*
X214782000Y-106820000D01*
X214783000Y-106822000D01*
X214785000Y-106824000D01*
X214786000Y-106826000D01*
X214788000Y-106828000D01*
X214790000Y-106830000D01*
X214792000Y-106832000D01*
X214794000Y-106834000D01*
X214796000Y-106835000D01*
X214798000Y-106837000D01*
X214800000Y-106838000D01*
X214802000Y-106840000D01*
X214805000Y-106841000D01*
X214807000Y-106842000D01*
X214810000Y-106843000D01*
X214812000Y-106843000D01*
X214815000Y-106844000D01*
X214817000Y-106844000D01*
X214820000Y-106845000D01*
X214822000Y-106845000D01*
X214825000Y-106845000D01*
X214975000Y-106845000D01*
X214978000Y-106845000D01*
X214980000Y-106845000D01*
X214983000Y-106844000D01*
X214985000Y-106844000D01*
X214988000Y-106843000D01*
X214990000Y-106843000D01*
X214993000Y-106842000D01*
X214995000Y-106841000D01*
X214998000Y-106840000D01*
X215000000Y-106838000D01*
X215002000Y-106837000D01*
X215004000Y-106835000D01*
X215006000Y-106834000D01*
X215008000Y-106832000D01*
X215010000Y-106830000D01*
X215012000Y-106828000D01*
X215014000Y-106826000D01*
X215015000Y-106824000D01*
X215017000Y-106822000D01*
X215018000Y-106820000D01*
X215020000Y-106818000D01*
X215021000Y-106815000D01*
X215022000Y-106813000D01*
X215023000Y-106810000D01*
X215023000Y-106808000D01*
X215024000Y-106805000D01*
X215024000Y-106803000D01*
X215025000Y-106800000D01*
X215025000Y-106798000D01*
X215025000Y-106795000D01*
X215025000Y-106175000D01*
X215025000Y-106172000D01*
X215025000Y-106170000D01*
X215024000Y-106167000D01*
X215024000Y-106165000D01*
X215023000Y-106162000D01*
X215023000Y-106160000D01*
X215022000Y-106157000D01*
X215021000Y-106155000D01*
X215020000Y-106152000D01*
X215018000Y-106150000D01*
X215017000Y-106148000D01*
X215015000Y-106146000D01*
X215014000Y-106144000D01*
X215012000Y-106142000D01*
X215010000Y-106140000D01*
X215008000Y-106138000D01*
X215006000Y-106136000D01*
X215004000Y-106135000D01*
X215002000Y-106133000D01*
X215000000Y-106132000D01*
X214998000Y-106130000D01*
X214995000Y-106129000D01*
X214993000Y-106128000D01*
X214990000Y-106127000D01*
X214988000Y-106127000D01*
X214985000Y-106126000D01*
X214983000Y-106126000D01*
X214980000Y-106125000D01*
X214978000Y-106125000D01*
X214975000Y-106125000D01*
G36*
X214983000Y-106126000D02*
G01*
X214985000Y-106126000D01*
X214988000Y-106127000D01*
X214990000Y-106127000D01*
X214993000Y-106128000D01*
X214995000Y-106129000D01*
X214998000Y-106130000D01*
X215000000Y-106132000D01*
X215002000Y-106133000D01*
X215004000Y-106135000D01*
X215006000Y-106136000D01*
X215008000Y-106138000D01*
X215010000Y-106140000D01*
X215012000Y-106142000D01*
X215014000Y-106144000D01*
X215015000Y-106146000D01*
X215017000Y-106148000D01*
X215018000Y-106150000D01*
X215020000Y-106152000D01*
X215021000Y-106155000D01*
X215022000Y-106157000D01*
X215023000Y-106160000D01*
X215023000Y-106162000D01*
X215024000Y-106165000D01*
X215024000Y-106167000D01*
X215025000Y-106170000D01*
X215025000Y-106172000D01*
X215025000Y-106175000D01*
X215025000Y-106795000D01*
X215025000Y-106798000D01*
X215025000Y-106800000D01*
X215024000Y-106803000D01*
X215024000Y-106805000D01*
X215023000Y-106808000D01*
X215023000Y-106810000D01*
X215022000Y-106813000D01*
X215021000Y-106815000D01*
X215020000Y-106818000D01*
X215018000Y-106820000D01*
X215017000Y-106822000D01*
X215015000Y-106824000D01*
X215014000Y-106826000D01*
X215012000Y-106828000D01*
X215010000Y-106830000D01*
X215008000Y-106832000D01*
X215006000Y-106834000D01*
X215004000Y-106835000D01*
X215002000Y-106837000D01*
X215000000Y-106838000D01*
X214998000Y-106840000D01*
X214995000Y-106841000D01*
X214993000Y-106842000D01*
X214990000Y-106843000D01*
X214988000Y-106843000D01*
X214985000Y-106844000D01*
X214983000Y-106844000D01*
X214980000Y-106845000D01*
X214978000Y-106845000D01*
X214975000Y-106845000D01*
X214825000Y-106845000D01*
X214822000Y-106845000D01*
X214820000Y-106845000D01*
X214817000Y-106844000D01*
X214815000Y-106844000D01*
X214812000Y-106843000D01*
X214810000Y-106843000D01*
X214807000Y-106842000D01*
X214805000Y-106841000D01*
X214802000Y-106840000D01*
X214800000Y-106838000D01*
X214798000Y-106837000D01*
X214796000Y-106835000D01*
X214794000Y-106834000D01*
X214792000Y-106832000D01*
X214790000Y-106830000D01*
X214788000Y-106828000D01*
X214786000Y-106826000D01*
X214785000Y-106824000D01*
X214783000Y-106822000D01*
X214782000Y-106820000D01*
X214780000Y-106818000D01*
X214779000Y-106815000D01*
X214778000Y-106813000D01*
X214777000Y-106810000D01*
X214777000Y-106808000D01*
X214776000Y-106805000D01*
X214776000Y-106803000D01*
X214775000Y-106800000D01*
X214775000Y-106798000D01*
X214775000Y-106795000D01*
X214775000Y-106175000D01*
X214775000Y-106172000D01*
X214775000Y-106170000D01*
X214776000Y-106167000D01*
X214776000Y-106165000D01*
X214777000Y-106162000D01*
X214777000Y-106160000D01*
X214778000Y-106157000D01*
X214779000Y-106155000D01*
X214780000Y-106152000D01*
X214782000Y-106150000D01*
X214783000Y-106148000D01*
X214785000Y-106146000D01*
X214786000Y-106144000D01*
X214788000Y-106142000D01*
X214790000Y-106140000D01*
X214792000Y-106138000D01*
X214794000Y-106136000D01*
X214796000Y-106135000D01*
X214798000Y-106133000D01*
X214800000Y-106132000D01*
X214802000Y-106130000D01*
X214805000Y-106129000D01*
X214807000Y-106128000D01*
X214810000Y-106127000D01*
X214812000Y-106127000D01*
X214815000Y-106126000D01*
X214817000Y-106126000D01*
X214820000Y-106125000D01*
X214822000Y-106125000D01*
X214825000Y-106125000D01*
X214975000Y-106125000D01*
X214978000Y-106125000D01*
X214980000Y-106125000D01*
X214983000Y-106126000D01*
G37*
X214475000Y-105525500D02*
X214325000Y-105526000D01*
X214322000Y-105526000D01*
X214320000Y-105526000D01*
X214317000Y-105526000D01*
X214315000Y-105527000D01*
X214312000Y-105527000D01*
X214310000Y-105528000D01*
X214307000Y-105529000D01*
X214305000Y-105530000D01*
X214302000Y-105531000D01*
X214300000Y-105532000D01*
X214298000Y-105534000D01*
X214296000Y-105535000D01*
X214294000Y-105537000D01*
X214292000Y-105538000D01*
X214290000Y-105540000D01*
X214288000Y-105542000D01*
X214286000Y-105544000D01*
X214285000Y-105546000D01*
X214283000Y-105548000D01*
X214282000Y-105551000D01*
X214280000Y-105553000D01*
X214279000Y-105555000D01*
X214278000Y-105558000D01*
X214277000Y-105560000D01*
X214277000Y-105563000D01*
X214276000Y-105565000D01*
X214276000Y-105568000D01*
X214275000Y-105570000D01*
X214275000Y-105573000D01*
X214275000Y-105575000D01*
X214275000Y-106050000D01*
X214275000Y-106053000D01*
X214275000Y-106056000D01*
X214276000Y-106058000D01*
X214276000Y-106061000D01*
X214277000Y-106063000D01*
X214277000Y-106066000D01*
X214278000Y-106068000D01*
X214279000Y-106071000D01*
X214280000Y-106073000D01*
X214282000Y-106075000D01*
X214283000Y-106078000D01*
X214285000Y-106080000D01*
X214286000Y-106082000D01*
X214288000Y-106084000D01*
X214290000Y-106086000D01*
X214292000Y-106088000D01*
X214294000Y-106089000D01*
X214296000Y-106091000D01*
X214298000Y-106092000D01*
X214300000Y-106094000D01*
X214302000Y-106095000D01*
X214305000Y-106096000D01*
X214307000Y-106097000D01*
X214310000Y-106098000D01*
X214312000Y-106099000D01*
X214315000Y-106099000D01*
X214317000Y-106100000D01*
X214320000Y-106100000D01*
X214322000Y-106100000D01*
X214325000Y-106100000D01*
X214475000Y-106100000D01*
X214478000Y-106100000D01*
X214480000Y-106100000D01*
X214483000Y-106100000D01*
X214485000Y-106099000D01*
X214488000Y-106099000D01*
X214490000Y-106098000D01*
X214493000Y-106097000D01*
X214495000Y-106096000D01*
X214498000Y-106095000D01*
X214500000Y-106094000D01*
X214502000Y-106092000D01*
X214504000Y-106091000D01*
X214506000Y-106089000D01*
X214508000Y-106088000D01*
X214510000Y-106086000D01*
X214512000Y-106084000D01*
X214514000Y-106082000D01*
X214515000Y-106080000D01*
X214517000Y-106078000D01*
X214518000Y-106075000D01*
X214520000Y-106073000D01*
X214521000Y-106071000D01*
X214522000Y-106068000D01*
X214523000Y-106066000D01*
X214523000Y-106063000D01*
X214524000Y-106061000D01*
X214524000Y-106058000D01*
X214525000Y-106056000D01*
X214525000Y-106053000D01*
X214525000Y-106050000D01*
X214525000Y-105575000D01*
X214525000Y-105573000D01*
X214525000Y-105570000D01*
X214524000Y-105568000D01*
X214524000Y-105565000D01*
X214523000Y-105563000D01*
X214523000Y-105560000D01*
X214522000Y-105558000D01*
X214521000Y-105555000D01*
X214520000Y-105553000D01*
X214518000Y-105551000D01*
X214517000Y-105548000D01*
X214515000Y-105546000D01*
X214514000Y-105544000D01*
X214512000Y-105542000D01*
X214510000Y-105540000D01*
X214508000Y-105538000D01*
X214506000Y-105537000D01*
X214504000Y-105535000D01*
X214502000Y-105534000D01*
X214500000Y-105532000D01*
X214498000Y-105531000D01*
X214495000Y-105530000D01*
X214493000Y-105529000D01*
X214490000Y-105528000D01*
X214488000Y-105527000D01*
X214485000Y-105527000D01*
X214483000Y-105526000D01*
X214480000Y-105526000D01*
X214478000Y-105526000D01*
X214475000Y-105526000D01*
X214475000Y-105525500D01*
G36*
X214475000Y-105526000D02*
G01*
X214478000Y-105526000D01*
X214480000Y-105526000D01*
X214483000Y-105526000D01*
X214485000Y-105527000D01*
X214488000Y-105527000D01*
X214490000Y-105528000D01*
X214493000Y-105529000D01*
X214495000Y-105530000D01*
X214498000Y-105531000D01*
X214500000Y-105532000D01*
X214502000Y-105534000D01*
X214504000Y-105535000D01*
X214506000Y-105537000D01*
X214508000Y-105538000D01*
X214510000Y-105540000D01*
X214512000Y-105542000D01*
X214514000Y-105544000D01*
X214515000Y-105546000D01*
X214517000Y-105548000D01*
X214518000Y-105551000D01*
X214520000Y-105553000D01*
X214521000Y-105555000D01*
X214522000Y-105558000D01*
X214523000Y-105560000D01*
X214523000Y-105563000D01*
X214524000Y-105565000D01*
X214524000Y-105568000D01*
X214525000Y-105570000D01*
X214525000Y-105573000D01*
X214525000Y-105575000D01*
X214525000Y-106050000D01*
X214525000Y-106053000D01*
X214525000Y-106056000D01*
X214524000Y-106058000D01*
X214524000Y-106061000D01*
X214523000Y-106063000D01*
X214523000Y-106066000D01*
X214522000Y-106068000D01*
X214521000Y-106071000D01*
X214520000Y-106073000D01*
X214518000Y-106075000D01*
X214517000Y-106078000D01*
X214515000Y-106080000D01*
X214514000Y-106082000D01*
X214512000Y-106084000D01*
X214510000Y-106086000D01*
X214508000Y-106088000D01*
X214506000Y-106089000D01*
X214504000Y-106091000D01*
X214502000Y-106092000D01*
X214500000Y-106094000D01*
X214498000Y-106095000D01*
X214495000Y-106096000D01*
X214493000Y-106097000D01*
X214490000Y-106098000D01*
X214488000Y-106099000D01*
X214485000Y-106099000D01*
X214483000Y-106100000D01*
X214480000Y-106100000D01*
X214478000Y-106100000D01*
X214475000Y-106100000D01*
X214325000Y-106100000D01*
X214322000Y-106100000D01*
X214320000Y-106100000D01*
X214317000Y-106100000D01*
X214315000Y-106099000D01*
X214312000Y-106099000D01*
X214310000Y-106098000D01*
X214307000Y-106097000D01*
X214305000Y-106096000D01*
X214302000Y-106095000D01*
X214300000Y-106094000D01*
X214298000Y-106092000D01*
X214296000Y-106091000D01*
X214294000Y-106089000D01*
X214292000Y-106088000D01*
X214290000Y-106086000D01*
X214288000Y-106084000D01*
X214286000Y-106082000D01*
X214285000Y-106080000D01*
X214283000Y-106078000D01*
X214282000Y-106075000D01*
X214280000Y-106073000D01*
X214279000Y-106071000D01*
X214278000Y-106068000D01*
X214277000Y-106066000D01*
X214277000Y-106063000D01*
X214276000Y-106061000D01*
X214276000Y-106058000D01*
X214275000Y-106056000D01*
X214275000Y-106053000D01*
X214275000Y-106050000D01*
X214275000Y-105575000D01*
X214275000Y-105573000D01*
X214275000Y-105570000D01*
X214276000Y-105568000D01*
X214276000Y-105565000D01*
X214277000Y-105563000D01*
X214277000Y-105560000D01*
X214278000Y-105558000D01*
X214279000Y-105555000D01*
X214280000Y-105553000D01*
X214282000Y-105551000D01*
X214283000Y-105548000D01*
X214285000Y-105546000D01*
X214286000Y-105544000D01*
X214288000Y-105542000D01*
X214290000Y-105540000D01*
X214292000Y-105538000D01*
X214294000Y-105537000D01*
X214296000Y-105535000D01*
X214298000Y-105534000D01*
X214300000Y-105532000D01*
X214302000Y-105531000D01*
X214305000Y-105530000D01*
X214307000Y-105529000D01*
X214310000Y-105528000D01*
X214312000Y-105527000D01*
X214315000Y-105527000D01*
X214317000Y-105526000D01*
X214320000Y-105526000D01*
X214322000Y-105526000D01*
X214325000Y-105526000D01*
X214475000Y-105525500D01*
X214475000Y-105526000D01*
G37*
X214475000Y-106300500D02*
X214325000Y-106300000D01*
X214322000Y-106301000D01*
X214320000Y-106301000D01*
X214317000Y-106301000D01*
X214315000Y-106302000D01*
X214312000Y-106302000D01*
X214310000Y-106303000D01*
X214307000Y-106304000D01*
X214305000Y-106305000D01*
X214302000Y-106306000D01*
X214300000Y-106307000D01*
X214298000Y-106309000D01*
X214296000Y-106310000D01*
X214294000Y-106312000D01*
X214292000Y-106313000D01*
X214290000Y-106315000D01*
X214288000Y-106317000D01*
X214286000Y-106319000D01*
X214285000Y-106321000D01*
X214283000Y-106323000D01*
X214282000Y-106325000D01*
X214280000Y-106328000D01*
X214279000Y-106330000D01*
X214278000Y-106333000D01*
X214277000Y-106335000D01*
X214277000Y-106338000D01*
X214276000Y-106340000D01*
X214276000Y-106343000D01*
X214275000Y-106345000D01*
X214275000Y-106348000D01*
X214275000Y-106350000D01*
X214275000Y-106826000D01*
X214275000Y-106828000D01*
X214275000Y-106831000D01*
X214276000Y-106833000D01*
X214276000Y-106836000D01*
X214277000Y-106838000D01*
X214277000Y-106841000D01*
X214278000Y-106843000D01*
X214279000Y-106846000D01*
X214280000Y-106848000D01*
X214282000Y-106850000D01*
X214283000Y-106853000D01*
X214285000Y-106855000D01*
X214286000Y-106857000D01*
X214288000Y-106859000D01*
X214290000Y-106861000D01*
X214292000Y-106863000D01*
X214294000Y-106864000D01*
X214296000Y-106866000D01*
X214298000Y-106867000D01*
X214300000Y-106869000D01*
X214302000Y-106870000D01*
X214305000Y-106871000D01*
X214307000Y-106872000D01*
X214310000Y-106873000D01*
X214312000Y-106874000D01*
X214315000Y-106874000D01*
X214317000Y-106875000D01*
X214320000Y-106875000D01*
X214322000Y-106875000D01*
X214325000Y-106875000D01*
X214475000Y-106875000D01*
X214478000Y-106875000D01*
X214480000Y-106875000D01*
X214483000Y-106875000D01*
X214485000Y-106874000D01*
X214488000Y-106874000D01*
X214490000Y-106873000D01*
X214493000Y-106872000D01*
X214495000Y-106871000D01*
X214498000Y-106870000D01*
X214500000Y-106869000D01*
X214502000Y-106867000D01*
X214504000Y-106866000D01*
X214506000Y-106864000D01*
X214508000Y-106863000D01*
X214510000Y-106861000D01*
X214512000Y-106859000D01*
X214514000Y-106857000D01*
X214515000Y-106855000D01*
X214517000Y-106853000D01*
X214518000Y-106850000D01*
X214520000Y-106848000D01*
X214521000Y-106846000D01*
X214522000Y-106843000D01*
X214523000Y-106841000D01*
X214523000Y-106838000D01*
X214524000Y-106836000D01*
X214524000Y-106833000D01*
X214525000Y-106831000D01*
X214525000Y-106828000D01*
X214525000Y-106826000D01*
X214525000Y-106350000D01*
X214525000Y-106348000D01*
X214525000Y-106345000D01*
X214524000Y-106343000D01*
X214524000Y-106340000D01*
X214523000Y-106338000D01*
X214523000Y-106335000D01*
X214522000Y-106333000D01*
X214521000Y-106330000D01*
X214520000Y-106328000D01*
X214518000Y-106325000D01*
X214517000Y-106323000D01*
X214515000Y-106321000D01*
X214514000Y-106319000D01*
X214512000Y-106317000D01*
X214510000Y-106315000D01*
X214508000Y-106313000D01*
X214506000Y-106312000D01*
X214504000Y-106310000D01*
X214502000Y-106309000D01*
X214500000Y-106307000D01*
X214498000Y-106306000D01*
X214495000Y-106305000D01*
X214493000Y-106304000D01*
X214490000Y-106303000D01*
X214488000Y-106302000D01*
X214485000Y-106302000D01*
X214483000Y-106301000D01*
X214480000Y-106301000D01*
X214478000Y-106301000D01*
X214475000Y-106300000D01*
X214475000Y-106300500D01*
G36*
X214478000Y-106301000D02*
G01*
X214480000Y-106301000D01*
X214483000Y-106301000D01*
X214485000Y-106302000D01*
X214488000Y-106302000D01*
X214490000Y-106303000D01*
X214493000Y-106304000D01*
X214495000Y-106305000D01*
X214498000Y-106306000D01*
X214500000Y-106307000D01*
X214502000Y-106309000D01*
X214504000Y-106310000D01*
X214506000Y-106312000D01*
X214508000Y-106313000D01*
X214510000Y-106315000D01*
X214512000Y-106317000D01*
X214514000Y-106319000D01*
X214515000Y-106321000D01*
X214517000Y-106323000D01*
X214518000Y-106325000D01*
X214520000Y-106328000D01*
X214521000Y-106330000D01*
X214522000Y-106333000D01*
X214523000Y-106335000D01*
X214523000Y-106338000D01*
X214524000Y-106340000D01*
X214524000Y-106343000D01*
X214525000Y-106345000D01*
X214525000Y-106348000D01*
X214525000Y-106350000D01*
X214525000Y-106826000D01*
X214525000Y-106828000D01*
X214525000Y-106831000D01*
X214524000Y-106833000D01*
X214524000Y-106836000D01*
X214523000Y-106838000D01*
X214523000Y-106841000D01*
X214522000Y-106843000D01*
X214521000Y-106846000D01*
X214520000Y-106848000D01*
X214518000Y-106850000D01*
X214517000Y-106853000D01*
X214515000Y-106855000D01*
X214514000Y-106857000D01*
X214512000Y-106859000D01*
X214510000Y-106861000D01*
X214508000Y-106863000D01*
X214506000Y-106864000D01*
X214504000Y-106866000D01*
X214502000Y-106867000D01*
X214500000Y-106869000D01*
X214498000Y-106870000D01*
X214495000Y-106871000D01*
X214493000Y-106872000D01*
X214490000Y-106873000D01*
X214488000Y-106874000D01*
X214485000Y-106874000D01*
X214483000Y-106875000D01*
X214480000Y-106875000D01*
X214478000Y-106875000D01*
X214475000Y-106875000D01*
X214325000Y-106875000D01*
X214322000Y-106875000D01*
X214320000Y-106875000D01*
X214317000Y-106875000D01*
X214315000Y-106874000D01*
X214312000Y-106874000D01*
X214310000Y-106873000D01*
X214307000Y-106872000D01*
X214305000Y-106871000D01*
X214302000Y-106870000D01*
X214300000Y-106869000D01*
X214298000Y-106867000D01*
X214296000Y-106866000D01*
X214294000Y-106864000D01*
X214292000Y-106863000D01*
X214290000Y-106861000D01*
X214288000Y-106859000D01*
X214286000Y-106857000D01*
X214285000Y-106855000D01*
X214283000Y-106853000D01*
X214282000Y-106850000D01*
X214280000Y-106848000D01*
X214279000Y-106846000D01*
X214278000Y-106843000D01*
X214277000Y-106841000D01*
X214277000Y-106838000D01*
X214276000Y-106836000D01*
X214276000Y-106833000D01*
X214275000Y-106831000D01*
X214275000Y-106828000D01*
X214275000Y-106826000D01*
X214275000Y-106350000D01*
X214275000Y-106348000D01*
X214275000Y-106345000D01*
X214276000Y-106343000D01*
X214276000Y-106340000D01*
X214277000Y-106338000D01*
X214277000Y-106335000D01*
X214278000Y-106333000D01*
X214279000Y-106330000D01*
X214280000Y-106328000D01*
X214282000Y-106325000D01*
X214283000Y-106323000D01*
X214285000Y-106321000D01*
X214286000Y-106319000D01*
X214288000Y-106317000D01*
X214290000Y-106315000D01*
X214292000Y-106313000D01*
X214294000Y-106312000D01*
X214296000Y-106310000D01*
X214298000Y-106309000D01*
X214300000Y-106307000D01*
X214302000Y-106306000D01*
X214305000Y-106305000D01*
X214307000Y-106304000D01*
X214310000Y-106303000D01*
X214312000Y-106302000D01*
X214315000Y-106302000D01*
X214317000Y-106301000D01*
X214320000Y-106301000D01*
X214322000Y-106301000D01*
X214325000Y-106300000D01*
X214475000Y-106300500D01*
X214475000Y-106300000D01*
X214478000Y-106301000D01*
G37*
X215475000Y-105525500D02*
X215325000Y-105526000D01*
X215322000Y-105526000D01*
X215320000Y-105526000D01*
X215317000Y-105526000D01*
X215315000Y-105527000D01*
X215312000Y-105527000D01*
X215310000Y-105528000D01*
X215307000Y-105529000D01*
X215305000Y-105530000D01*
X215302000Y-105531000D01*
X215300000Y-105532000D01*
X215298000Y-105534000D01*
X215296000Y-105535000D01*
X215294000Y-105537000D01*
X215292000Y-105538000D01*
X215290000Y-105540000D01*
X215288000Y-105542000D01*
X215286000Y-105544000D01*
X215285000Y-105546000D01*
X215283000Y-105548000D01*
X215282000Y-105551000D01*
X215280000Y-105553000D01*
X215279000Y-105555000D01*
X215278000Y-105558000D01*
X215277000Y-105560000D01*
X215277000Y-105563000D01*
X215276000Y-105565000D01*
X215276000Y-105568000D01*
X215275000Y-105570000D01*
X215275000Y-105573000D01*
X215275000Y-105575000D01*
X215275000Y-106050000D01*
X215275000Y-106053000D01*
X215275000Y-106056000D01*
X215276000Y-106058000D01*
X215276000Y-106061000D01*
X215277000Y-106063000D01*
X215277000Y-106066000D01*
X215278000Y-106068000D01*
X215279000Y-106071000D01*
X215280000Y-106073000D01*
X215282000Y-106075000D01*
X215283000Y-106078000D01*
X215285000Y-106080000D01*
X215286000Y-106082000D01*
X215288000Y-106084000D01*
X215290000Y-106086000D01*
X215292000Y-106088000D01*
X215294000Y-106089000D01*
X215296000Y-106091000D01*
X215298000Y-106092000D01*
X215300000Y-106094000D01*
X215302000Y-106095000D01*
X215305000Y-106096000D01*
X215307000Y-106097000D01*
X215310000Y-106098000D01*
X215312000Y-106099000D01*
X215315000Y-106099000D01*
X215317000Y-106100000D01*
X215320000Y-106100000D01*
X215322000Y-106100000D01*
X215325000Y-106100000D01*
X215475000Y-106100000D01*
X215478000Y-106100000D01*
X215480000Y-106100000D01*
X215483000Y-106100000D01*
X215485000Y-106099000D01*
X215488000Y-106099000D01*
X215490000Y-106098000D01*
X215493000Y-106097000D01*
X215495000Y-106096000D01*
X215498000Y-106095000D01*
X215500000Y-106094000D01*
X215502000Y-106092000D01*
X215504000Y-106091000D01*
X215506000Y-106089000D01*
X215508000Y-106088000D01*
X215510000Y-106086000D01*
X215512000Y-106084000D01*
X215514000Y-106082000D01*
X215515000Y-106080000D01*
X215517000Y-106078000D01*
X215518000Y-106075000D01*
X215520000Y-106073000D01*
X215521000Y-106071000D01*
X215522000Y-106068000D01*
X215523000Y-106066000D01*
X215523000Y-106063000D01*
X215524000Y-106061000D01*
X215524000Y-106058000D01*
X215525000Y-106056000D01*
X215525000Y-106053000D01*
X215525000Y-106050000D01*
X215525000Y-105575000D01*
X215525000Y-105573000D01*
X215525000Y-105570000D01*
X215524000Y-105568000D01*
X215524000Y-105565000D01*
X215523000Y-105563000D01*
X215523000Y-105560000D01*
X215522000Y-105558000D01*
X215521000Y-105555000D01*
X215520000Y-105553000D01*
X215518000Y-105551000D01*
X215517000Y-105548000D01*
X215515000Y-105546000D01*
X215514000Y-105544000D01*
X215512000Y-105542000D01*
X215510000Y-105540000D01*
X215508000Y-105538000D01*
X215506000Y-105537000D01*
X215504000Y-105535000D01*
X215502000Y-105534000D01*
X215500000Y-105532000D01*
X215498000Y-105531000D01*
X215495000Y-105530000D01*
X215493000Y-105529000D01*
X215490000Y-105528000D01*
X215488000Y-105527000D01*
X215485000Y-105527000D01*
X215483000Y-105526000D01*
X215480000Y-105526000D01*
X215478000Y-105526000D01*
X215475000Y-105526000D01*
X215475000Y-105525500D01*
G36*
X215475000Y-105526000D02*
G01*
X215478000Y-105526000D01*
X215480000Y-105526000D01*
X215483000Y-105526000D01*
X215485000Y-105527000D01*
X215488000Y-105527000D01*
X215490000Y-105528000D01*
X215493000Y-105529000D01*
X215495000Y-105530000D01*
X215498000Y-105531000D01*
X215500000Y-105532000D01*
X215502000Y-105534000D01*
X215504000Y-105535000D01*
X215506000Y-105537000D01*
X215508000Y-105538000D01*
X215510000Y-105540000D01*
X215512000Y-105542000D01*
X215514000Y-105544000D01*
X215515000Y-105546000D01*
X215517000Y-105548000D01*
X215518000Y-105551000D01*
X215520000Y-105553000D01*
X215521000Y-105555000D01*
X215522000Y-105558000D01*
X215523000Y-105560000D01*
X215523000Y-105563000D01*
X215524000Y-105565000D01*
X215524000Y-105568000D01*
X215525000Y-105570000D01*
X215525000Y-105573000D01*
X215525000Y-105575000D01*
X215525000Y-106050000D01*
X215525000Y-106053000D01*
X215525000Y-106056000D01*
X215524000Y-106058000D01*
X215524000Y-106061000D01*
X215523000Y-106063000D01*
X215523000Y-106066000D01*
X215522000Y-106068000D01*
X215521000Y-106071000D01*
X215520000Y-106073000D01*
X215518000Y-106075000D01*
X215517000Y-106078000D01*
X215515000Y-106080000D01*
X215514000Y-106082000D01*
X215512000Y-106084000D01*
X215510000Y-106086000D01*
X215508000Y-106088000D01*
X215506000Y-106089000D01*
X215504000Y-106091000D01*
X215502000Y-106092000D01*
X215500000Y-106094000D01*
X215498000Y-106095000D01*
X215495000Y-106096000D01*
X215493000Y-106097000D01*
X215490000Y-106098000D01*
X215488000Y-106099000D01*
X215485000Y-106099000D01*
X215483000Y-106100000D01*
X215480000Y-106100000D01*
X215478000Y-106100000D01*
X215475000Y-106100000D01*
X215325000Y-106100000D01*
X215322000Y-106100000D01*
X215320000Y-106100000D01*
X215317000Y-106100000D01*
X215315000Y-106099000D01*
X215312000Y-106099000D01*
X215310000Y-106098000D01*
X215307000Y-106097000D01*
X215305000Y-106096000D01*
X215302000Y-106095000D01*
X215300000Y-106094000D01*
X215298000Y-106092000D01*
X215296000Y-106091000D01*
X215294000Y-106089000D01*
X215292000Y-106088000D01*
X215290000Y-106086000D01*
X215288000Y-106084000D01*
X215286000Y-106082000D01*
X215285000Y-106080000D01*
X215283000Y-106078000D01*
X215282000Y-106075000D01*
X215280000Y-106073000D01*
X215279000Y-106071000D01*
X215278000Y-106068000D01*
X215277000Y-106066000D01*
X215277000Y-106063000D01*
X215276000Y-106061000D01*
X215276000Y-106058000D01*
X215275000Y-106056000D01*
X215275000Y-106053000D01*
X215275000Y-106050000D01*
X215275000Y-105575000D01*
X215275000Y-105573000D01*
X215275000Y-105570000D01*
X215276000Y-105568000D01*
X215276000Y-105565000D01*
X215277000Y-105563000D01*
X215277000Y-105560000D01*
X215278000Y-105558000D01*
X215279000Y-105555000D01*
X215280000Y-105553000D01*
X215282000Y-105551000D01*
X215283000Y-105548000D01*
X215285000Y-105546000D01*
X215286000Y-105544000D01*
X215288000Y-105542000D01*
X215290000Y-105540000D01*
X215292000Y-105538000D01*
X215294000Y-105537000D01*
X215296000Y-105535000D01*
X215298000Y-105534000D01*
X215300000Y-105532000D01*
X215302000Y-105531000D01*
X215305000Y-105530000D01*
X215307000Y-105529000D01*
X215310000Y-105528000D01*
X215312000Y-105527000D01*
X215315000Y-105527000D01*
X215317000Y-105526000D01*
X215320000Y-105526000D01*
X215322000Y-105526000D01*
X215325000Y-105526000D01*
X215475000Y-105525500D01*
X215475000Y-105526000D01*
G37*
X215475000Y-106300500D02*
X215325000Y-106300000D01*
X215322000Y-106301000D01*
X215320000Y-106301000D01*
X215317000Y-106301000D01*
X215315000Y-106302000D01*
X215312000Y-106302000D01*
X215310000Y-106303000D01*
X215307000Y-106304000D01*
X215305000Y-106305000D01*
X215302000Y-106306000D01*
X215300000Y-106307000D01*
X215298000Y-106309000D01*
X215296000Y-106310000D01*
X215294000Y-106312000D01*
X215292000Y-106313000D01*
X215290000Y-106315000D01*
X215288000Y-106317000D01*
X215286000Y-106319000D01*
X215285000Y-106321000D01*
X215283000Y-106323000D01*
X215282000Y-106325000D01*
X215280000Y-106328000D01*
X215279000Y-106330000D01*
X215278000Y-106333000D01*
X215277000Y-106335000D01*
X215277000Y-106338000D01*
X215276000Y-106340000D01*
X215276000Y-106343000D01*
X215275000Y-106345000D01*
X215275000Y-106348000D01*
X215275000Y-106350000D01*
X215275000Y-106826000D01*
X215275000Y-106828000D01*
X215275000Y-106831000D01*
X215276000Y-106833000D01*
X215276000Y-106836000D01*
X215277000Y-106838000D01*
X215277000Y-106841000D01*
X215278000Y-106843000D01*
X215279000Y-106846000D01*
X215280000Y-106848000D01*
X215282000Y-106850000D01*
X215283000Y-106853000D01*
X215285000Y-106855000D01*
X215286000Y-106857000D01*
X215288000Y-106859000D01*
X215290000Y-106861000D01*
X215292000Y-106863000D01*
X215294000Y-106864000D01*
X215296000Y-106866000D01*
X215298000Y-106867000D01*
X215300000Y-106869000D01*
X215302000Y-106870000D01*
X215305000Y-106871000D01*
X215307000Y-106872000D01*
X215310000Y-106873000D01*
X215312000Y-106874000D01*
X215315000Y-106874000D01*
X215317000Y-106875000D01*
X215320000Y-106875000D01*
X215322000Y-106875000D01*
X215325000Y-106875000D01*
X215475000Y-106875000D01*
X215478000Y-106875000D01*
X215480000Y-106875000D01*
X215483000Y-106875000D01*
X215485000Y-106874000D01*
X215488000Y-106874000D01*
X215490000Y-106873000D01*
X215493000Y-106872000D01*
X215495000Y-106871000D01*
X215498000Y-106870000D01*
X215500000Y-106869000D01*
X215502000Y-106867000D01*
X215504000Y-106866000D01*
X215506000Y-106864000D01*
X215508000Y-106863000D01*
X215510000Y-106861000D01*
X215512000Y-106859000D01*
X215514000Y-106857000D01*
X215515000Y-106855000D01*
X215517000Y-106853000D01*
X215518000Y-106850000D01*
X215520000Y-106848000D01*
X215521000Y-106846000D01*
X215522000Y-106843000D01*
X215523000Y-106841000D01*
X215523000Y-106838000D01*
X215524000Y-106836000D01*
X215524000Y-106833000D01*
X215525000Y-106831000D01*
X215525000Y-106828000D01*
X215525000Y-106826000D01*
X215525000Y-106350000D01*
X215525000Y-106348000D01*
X215525000Y-106345000D01*
X215524000Y-106343000D01*
X215524000Y-106340000D01*
X215523000Y-106338000D01*
X215523000Y-106335000D01*
X215522000Y-106333000D01*
X215521000Y-106330000D01*
X215520000Y-106328000D01*
X215518000Y-106325000D01*
X215517000Y-106323000D01*
X215515000Y-106321000D01*
X215514000Y-106319000D01*
X215512000Y-106317000D01*
X215510000Y-106315000D01*
X215508000Y-106313000D01*
X215506000Y-106312000D01*
X215504000Y-106310000D01*
X215502000Y-106309000D01*
X215500000Y-106307000D01*
X215498000Y-106306000D01*
X215495000Y-106305000D01*
X215493000Y-106304000D01*
X215490000Y-106303000D01*
X215488000Y-106302000D01*
X215485000Y-106302000D01*
X215483000Y-106301000D01*
X215480000Y-106301000D01*
X215478000Y-106301000D01*
X215475000Y-106300000D01*
X215475000Y-106300500D01*
G36*
X215478000Y-106301000D02*
G01*
X215480000Y-106301000D01*
X215483000Y-106301000D01*
X215485000Y-106302000D01*
X215488000Y-106302000D01*
X215490000Y-106303000D01*
X215493000Y-106304000D01*
X215495000Y-106305000D01*
X215498000Y-106306000D01*
X215500000Y-106307000D01*
X215502000Y-106309000D01*
X215504000Y-106310000D01*
X215506000Y-106312000D01*
X215508000Y-106313000D01*
X215510000Y-106315000D01*
X215512000Y-106317000D01*
X215514000Y-106319000D01*
X215515000Y-106321000D01*
X215517000Y-106323000D01*
X215518000Y-106325000D01*
X215520000Y-106328000D01*
X215521000Y-106330000D01*
X215522000Y-106333000D01*
X215523000Y-106335000D01*
X215523000Y-106338000D01*
X215524000Y-106340000D01*
X215524000Y-106343000D01*
X215525000Y-106345000D01*
X215525000Y-106348000D01*
X215525000Y-106350000D01*
X215525000Y-106826000D01*
X215525000Y-106828000D01*
X215525000Y-106831000D01*
X215524000Y-106833000D01*
X215524000Y-106836000D01*
X215523000Y-106838000D01*
X215523000Y-106841000D01*
X215522000Y-106843000D01*
X215521000Y-106846000D01*
X215520000Y-106848000D01*
X215518000Y-106850000D01*
X215517000Y-106853000D01*
X215515000Y-106855000D01*
X215514000Y-106857000D01*
X215512000Y-106859000D01*
X215510000Y-106861000D01*
X215508000Y-106863000D01*
X215506000Y-106864000D01*
X215504000Y-106866000D01*
X215502000Y-106867000D01*
X215500000Y-106869000D01*
X215498000Y-106870000D01*
X215495000Y-106871000D01*
X215493000Y-106872000D01*
X215490000Y-106873000D01*
X215488000Y-106874000D01*
X215485000Y-106874000D01*
X215483000Y-106875000D01*
X215480000Y-106875000D01*
X215478000Y-106875000D01*
X215475000Y-106875000D01*
X215325000Y-106875000D01*
X215322000Y-106875000D01*
X215320000Y-106875000D01*
X215317000Y-106875000D01*
X215315000Y-106874000D01*
X215312000Y-106874000D01*
X215310000Y-106873000D01*
X215307000Y-106872000D01*
X215305000Y-106871000D01*
X215302000Y-106870000D01*
X215300000Y-106869000D01*
X215298000Y-106867000D01*
X215296000Y-106866000D01*
X215294000Y-106864000D01*
X215292000Y-106863000D01*
X215290000Y-106861000D01*
X215288000Y-106859000D01*
X215286000Y-106857000D01*
X215285000Y-106855000D01*
X215283000Y-106853000D01*
X215282000Y-106850000D01*
X215280000Y-106848000D01*
X215279000Y-106846000D01*
X215278000Y-106843000D01*
X215277000Y-106841000D01*
X215277000Y-106838000D01*
X215276000Y-106836000D01*
X215276000Y-106833000D01*
X215275000Y-106831000D01*
X215275000Y-106828000D01*
X215275000Y-106826000D01*
X215275000Y-106350000D01*
X215275000Y-106348000D01*
X215275000Y-106345000D01*
X215276000Y-106343000D01*
X215276000Y-106340000D01*
X215277000Y-106338000D01*
X215277000Y-106335000D01*
X215278000Y-106333000D01*
X215279000Y-106330000D01*
X215280000Y-106328000D01*
X215282000Y-106325000D01*
X215283000Y-106323000D01*
X215285000Y-106321000D01*
X215286000Y-106319000D01*
X215288000Y-106317000D01*
X215290000Y-106315000D01*
X215292000Y-106313000D01*
X215294000Y-106312000D01*
X215296000Y-106310000D01*
X215298000Y-106309000D01*
X215300000Y-106307000D01*
X215302000Y-106306000D01*
X215305000Y-106305000D01*
X215307000Y-106304000D01*
X215310000Y-106303000D01*
X215312000Y-106302000D01*
X215315000Y-106302000D01*
X215317000Y-106301000D01*
X215320000Y-106301000D01*
X215322000Y-106301000D01*
X215325000Y-106300000D01*
X215475000Y-106300500D01*
X215475000Y-106300000D01*
X215478000Y-106301000D01*
G37*
X213200000Y-106275000D02*
X213200000Y-106125000D01*
X213200000Y-106122000D01*
X213200000Y-106120000D01*
X213201000Y-106117000D01*
X213201000Y-106115000D01*
X213202000Y-106112000D01*
X213202000Y-106110000D01*
X213203000Y-106107000D01*
X213204000Y-106105000D01*
X213205000Y-106102000D01*
X213207000Y-106100000D01*
X213208000Y-106098000D01*
X213210000Y-106096000D01*
X213211000Y-106094000D01*
X213213000Y-106092000D01*
X213215000Y-106090000D01*
X213217000Y-106088000D01*
X213219000Y-106086000D01*
X213221000Y-106085000D01*
X213223000Y-106083000D01*
X213225000Y-106082000D01*
X213227000Y-106080000D01*
X213230000Y-106079000D01*
X213232000Y-106078000D01*
X213235000Y-106077000D01*
X213237000Y-106077000D01*
X213240000Y-106076000D01*
X213242000Y-106076000D01*
X213245000Y-106075000D01*
X213247000Y-106075000D01*
X213250000Y-106075000D01*
X213550000Y-106075000D01*
X213550000Y-105825000D01*
X213250000Y-105825000D01*
X213247000Y-105825000D01*
X213245000Y-105825000D01*
X213242000Y-105824000D01*
X213240000Y-105824000D01*
X213237000Y-105823000D01*
X213235000Y-105823000D01*
X213232000Y-105822000D01*
X213230000Y-105821000D01*
X213227000Y-105820000D01*
X213225000Y-105818000D01*
X213223000Y-105817000D01*
X213221000Y-105815000D01*
X213219000Y-105814000D01*
X213217000Y-105812000D01*
X213215000Y-105810000D01*
X213213000Y-105808000D01*
X213211000Y-105806000D01*
X213210000Y-105804000D01*
X213208000Y-105802000D01*
X213207000Y-105800000D01*
X213205000Y-105798000D01*
X213204000Y-105795000D01*
X213203000Y-105793000D01*
X213202000Y-105790000D01*
X213202000Y-105788000D01*
X213201000Y-105785000D01*
X213201000Y-105783000D01*
X213200000Y-105780000D01*
X213200000Y-105778000D01*
X213200000Y-105775000D01*
X213200000Y-105625000D01*
X213200000Y-105622000D01*
X213200000Y-105620000D01*
X213201000Y-105617000D01*
X213201000Y-105615000D01*
X213202000Y-105612000D01*
X213202000Y-105610000D01*
X213203000Y-105607000D01*
X213204000Y-105605000D01*
X213205000Y-105602000D01*
X213207000Y-105600000D01*
X213208000Y-105598000D01*
X213210000Y-105596000D01*
X213211000Y-105594000D01*
X213213000Y-105592000D01*
X213215000Y-105590000D01*
X213217000Y-105588000D01*
X213219000Y-105586000D01*
X213221000Y-105585000D01*
X213223000Y-105583000D01*
X213225000Y-105582000D01*
X213227000Y-105580000D01*
X213230000Y-105579000D01*
X213232000Y-105578000D01*
X213235000Y-105577000D01*
X213237000Y-105577000D01*
X213240000Y-105576000D01*
X213242000Y-105576000D01*
X213245000Y-105575000D01*
X213247000Y-105575000D01*
X213250000Y-105575000D01*
X213750000Y-105575000D01*
X213753000Y-105575000D01*
X213755000Y-105575000D01*
X213758000Y-105576000D01*
X213760000Y-105576000D01*
X213763000Y-105577000D01*
X213765000Y-105577000D01*
X213768000Y-105578000D01*
X213770000Y-105579000D01*
X213773000Y-105580000D01*
X213775000Y-105582000D01*
X213777000Y-105583000D01*
X213779000Y-105585000D01*
X213781000Y-105586000D01*
X213783000Y-105588000D01*
X213785000Y-105590000D01*
X213787000Y-105592000D01*
X213789000Y-105594000D01*
X213790000Y-105596000D01*
X213792000Y-105598000D01*
X213793000Y-105600000D01*
X213795000Y-105602000D01*
X213796000Y-105605000D01*
X213797000Y-105607000D01*
X213798000Y-105610000D01*
X213798000Y-105612000D01*
X213799000Y-105615000D01*
X213799000Y-105617000D01*
X213800000Y-105620000D01*
X213800000Y-105622000D01*
X213800000Y-105625000D01*
X213800000Y-106275000D01*
X213800000Y-106278000D01*
X213800000Y-106280000D01*
X213799000Y-106283000D01*
X213799000Y-106285000D01*
X213798000Y-106288000D01*
X213798000Y-106290000D01*
X213797000Y-106293000D01*
X213796000Y-106295000D01*
X213795000Y-106298000D01*
X213793000Y-106300000D01*
X213792000Y-106302000D01*
X213790000Y-106304000D01*
X213789000Y-106306000D01*
X213787000Y-106308000D01*
X213785000Y-106310000D01*
X213783000Y-106312000D01*
X213781000Y-106314000D01*
X213779000Y-106315000D01*
X213777000Y-106317000D01*
X213775000Y-106318000D01*
X213773000Y-106320000D01*
X213770000Y-106321000D01*
X213768000Y-106322000D01*
X213765000Y-106323000D01*
X213763000Y-106323000D01*
X213760000Y-106324000D01*
X213758000Y-106324000D01*
X213755000Y-106325000D01*
X213753000Y-106325000D01*
X213750000Y-106325000D01*
X213250000Y-106325000D01*
X213247000Y-106325000D01*
X213245000Y-106325000D01*
X213242000Y-106324000D01*
X213240000Y-106324000D01*
X213237000Y-106323000D01*
X213235000Y-106323000D01*
X213232000Y-106322000D01*
X213230000Y-106321000D01*
X213227000Y-106320000D01*
X213225000Y-106318000D01*
X213223000Y-106317000D01*
X213221000Y-106315000D01*
X213219000Y-106314000D01*
X213217000Y-106312000D01*
X213215000Y-106310000D01*
X213213000Y-106308000D01*
X213211000Y-106306000D01*
X213210000Y-106304000D01*
X213208000Y-106302000D01*
X213207000Y-106300000D01*
X213205000Y-106298000D01*
X213204000Y-106295000D01*
X213203000Y-106293000D01*
X213202000Y-106290000D01*
X213202000Y-106288000D01*
X213201000Y-106285000D01*
X213201000Y-106283000D01*
X213200000Y-106280000D01*
X213200000Y-106278000D01*
X213200000Y-106275000D01*
G36*
X213758000Y-105576000D02*
G01*
X213760000Y-105576000D01*
X213763000Y-105577000D01*
X213765000Y-105577000D01*
X213768000Y-105578000D01*
X213770000Y-105579000D01*
X213773000Y-105580000D01*
X213775000Y-105582000D01*
X213777000Y-105583000D01*
X213779000Y-105585000D01*
X213781000Y-105586000D01*
X213783000Y-105588000D01*
X213785000Y-105590000D01*
X213787000Y-105592000D01*
X213789000Y-105594000D01*
X213790000Y-105596000D01*
X213792000Y-105598000D01*
X213793000Y-105600000D01*
X213795000Y-105602000D01*
X213796000Y-105605000D01*
X213797000Y-105607000D01*
X213798000Y-105610000D01*
X213798000Y-105612000D01*
X213799000Y-105615000D01*
X213799000Y-105617000D01*
X213800000Y-105620000D01*
X213800000Y-105622000D01*
X213800000Y-105625000D01*
X213800000Y-106275000D01*
X213800000Y-106278000D01*
X213800000Y-106280000D01*
X213799000Y-106283000D01*
X213799000Y-106285000D01*
X213798000Y-106288000D01*
X213798000Y-106290000D01*
X213797000Y-106293000D01*
X213796000Y-106295000D01*
X213795000Y-106298000D01*
X213793000Y-106300000D01*
X213792000Y-106302000D01*
X213790000Y-106304000D01*
X213789000Y-106306000D01*
X213787000Y-106308000D01*
X213785000Y-106310000D01*
X213783000Y-106312000D01*
X213781000Y-106314000D01*
X213779000Y-106315000D01*
X213777000Y-106317000D01*
X213775000Y-106318000D01*
X213773000Y-106320000D01*
X213770000Y-106321000D01*
X213768000Y-106322000D01*
X213765000Y-106323000D01*
X213763000Y-106323000D01*
X213760000Y-106324000D01*
X213758000Y-106324000D01*
X213755000Y-106325000D01*
X213753000Y-106325000D01*
X213750000Y-106325000D01*
X213250000Y-106325000D01*
X213247000Y-106325000D01*
X213245000Y-106325000D01*
X213242000Y-106324000D01*
X213240000Y-106324000D01*
X213237000Y-106323000D01*
X213235000Y-106323000D01*
X213232000Y-106322000D01*
X213230000Y-106321000D01*
X213227000Y-106320000D01*
X213225000Y-106318000D01*
X213223000Y-106317000D01*
X213221000Y-106315000D01*
X213219000Y-106314000D01*
X213217000Y-106312000D01*
X213215000Y-106310000D01*
X213213000Y-106308000D01*
X213211000Y-106306000D01*
X213210000Y-106304000D01*
X213208000Y-106302000D01*
X213207000Y-106300000D01*
X213205000Y-106298000D01*
X213204000Y-106295000D01*
X213203000Y-106293000D01*
X213202000Y-106290000D01*
X213202000Y-106288000D01*
X213201000Y-106285000D01*
X213201000Y-106283000D01*
X213200000Y-106280000D01*
X213200000Y-106278000D01*
X213200000Y-106275000D01*
X213200000Y-106125000D01*
X213200000Y-106122000D01*
X213200000Y-106120000D01*
X213201000Y-106117000D01*
X213201000Y-106115000D01*
X213202000Y-106112000D01*
X213202000Y-106110000D01*
X213203000Y-106107000D01*
X213204000Y-106105000D01*
X213205000Y-106102000D01*
X213207000Y-106100000D01*
X213208000Y-106098000D01*
X213210000Y-106096000D01*
X213211000Y-106094000D01*
X213213000Y-106092000D01*
X213215000Y-106090000D01*
X213217000Y-106088000D01*
X213219000Y-106086000D01*
X213221000Y-106085000D01*
X213223000Y-106083000D01*
X213225000Y-106082000D01*
X213227000Y-106080000D01*
X213230000Y-106079000D01*
X213232000Y-106078000D01*
X213235000Y-106077000D01*
X213237000Y-106077000D01*
X213240000Y-106076000D01*
X213242000Y-106076000D01*
X213245000Y-106075000D01*
X213247000Y-106075000D01*
X213250000Y-106075000D01*
X213550000Y-106075000D01*
X213550000Y-105825000D01*
X213250000Y-105825000D01*
X213247000Y-105825000D01*
X213245000Y-105825000D01*
X213242000Y-105824000D01*
X213240000Y-105824000D01*
X213237000Y-105823000D01*
X213235000Y-105823000D01*
X213232000Y-105822000D01*
X213230000Y-105821000D01*
X213227000Y-105820000D01*
X213225000Y-105818000D01*
X213223000Y-105817000D01*
X213221000Y-105815000D01*
X213219000Y-105814000D01*
X213217000Y-105812000D01*
X213215000Y-105810000D01*
X213213000Y-105808000D01*
X213211000Y-105806000D01*
X213210000Y-105804000D01*
X213208000Y-105802000D01*
X213207000Y-105800000D01*
X213205000Y-105798000D01*
X213204000Y-105795000D01*
X213203000Y-105793000D01*
X213202000Y-105790000D01*
X213202000Y-105788000D01*
X213201000Y-105785000D01*
X213201000Y-105783000D01*
X213200000Y-105780000D01*
X213200000Y-105778000D01*
X213200000Y-105775000D01*
X213200000Y-105625000D01*
X213200000Y-105622000D01*
X213200000Y-105620000D01*
X213201000Y-105617000D01*
X213201000Y-105615000D01*
X213202000Y-105612000D01*
X213202000Y-105610000D01*
X213203000Y-105607000D01*
X213204000Y-105605000D01*
X213205000Y-105602000D01*
X213207000Y-105600000D01*
X213208000Y-105598000D01*
X213210000Y-105596000D01*
X213211000Y-105594000D01*
X213213000Y-105592000D01*
X213215000Y-105590000D01*
X213217000Y-105588000D01*
X213219000Y-105586000D01*
X213221000Y-105585000D01*
X213223000Y-105583000D01*
X213225000Y-105582000D01*
X213227000Y-105580000D01*
X213230000Y-105579000D01*
X213232000Y-105578000D01*
X213235000Y-105577000D01*
X213237000Y-105577000D01*
X213240000Y-105576000D01*
X213242000Y-105576000D01*
X213245000Y-105575000D01*
X213247000Y-105575000D01*
X213250000Y-105575000D01*
X213750000Y-105575000D01*
X213753000Y-105575000D01*
X213755000Y-105575000D01*
X213758000Y-105576000D01*
G37*
X216600000Y-105625000D02*
X216600000Y-105775000D01*
X216600000Y-105778000D01*
X216600000Y-105780000D01*
X216599000Y-105783000D01*
X216599000Y-105785000D01*
X216598000Y-105788000D01*
X216598000Y-105790000D01*
X216597000Y-105793000D01*
X216596000Y-105795000D01*
X216595000Y-105798000D01*
X216593000Y-105800000D01*
X216592000Y-105802000D01*
X216590000Y-105804000D01*
X216589000Y-105806000D01*
X216587000Y-105808000D01*
X216585000Y-105810000D01*
X216583000Y-105812000D01*
X216581000Y-105814000D01*
X216579000Y-105815000D01*
X216577000Y-105817000D01*
X216575000Y-105818000D01*
X216573000Y-105820000D01*
X216570000Y-105821000D01*
X216568000Y-105822000D01*
X216565000Y-105823000D01*
X216563000Y-105823000D01*
X216560000Y-105824000D01*
X216558000Y-105824000D01*
X216555000Y-105825000D01*
X216553000Y-105825000D01*
X216550000Y-105825000D01*
X216250000Y-105825000D01*
X216250000Y-106075000D01*
X216550000Y-106075000D01*
X216553000Y-106075000D01*
X216555000Y-106075000D01*
X216558000Y-106076000D01*
X216560000Y-106076000D01*
X216563000Y-106077000D01*
X216565000Y-106077000D01*
X216568000Y-106078000D01*
X216570000Y-106079000D01*
X216573000Y-106080000D01*
X216575000Y-106082000D01*
X216577000Y-106083000D01*
X216579000Y-106085000D01*
X216581000Y-106086000D01*
X216583000Y-106088000D01*
X216585000Y-106090000D01*
X216587000Y-106092000D01*
X216589000Y-106094000D01*
X216590000Y-106096000D01*
X216592000Y-106098000D01*
X216593000Y-106100000D01*
X216595000Y-106102000D01*
X216596000Y-106105000D01*
X216597000Y-106107000D01*
X216598000Y-106110000D01*
X216598000Y-106112000D01*
X216599000Y-106115000D01*
X216599000Y-106117000D01*
X216600000Y-106120000D01*
X216600000Y-106122000D01*
X216600000Y-106125000D01*
X216600000Y-106275000D01*
X216600000Y-106278000D01*
X216600000Y-106280000D01*
X216599000Y-106283000D01*
X216599000Y-106285000D01*
X216598000Y-106288000D01*
X216598000Y-106290000D01*
X216597000Y-106293000D01*
X216596000Y-106295000D01*
X216595000Y-106298000D01*
X216593000Y-106300000D01*
X216592000Y-106302000D01*
X216590000Y-106304000D01*
X216589000Y-106306000D01*
X216587000Y-106308000D01*
X216585000Y-106310000D01*
X216583000Y-106312000D01*
X216581000Y-106314000D01*
X216579000Y-106315000D01*
X216577000Y-106317000D01*
X216575000Y-106318000D01*
X216573000Y-106320000D01*
X216570000Y-106321000D01*
X216568000Y-106322000D01*
X216565000Y-106323000D01*
X216563000Y-106323000D01*
X216560000Y-106324000D01*
X216558000Y-106324000D01*
X216555000Y-106325000D01*
X216553000Y-106325000D01*
X216550000Y-106325000D01*
X216050000Y-106325000D01*
X216047000Y-106325000D01*
X216045000Y-106325000D01*
X216042000Y-106324000D01*
X216040000Y-106324000D01*
X216037000Y-106323000D01*
X216035000Y-106323000D01*
X216032000Y-106322000D01*
X216030000Y-106321000D01*
X216027000Y-106320000D01*
X216025000Y-106318000D01*
X216023000Y-106317000D01*
X216021000Y-106315000D01*
X216019000Y-106314000D01*
X216017000Y-106312000D01*
X216015000Y-106310000D01*
X216013000Y-106308000D01*
X216011000Y-106306000D01*
X216010000Y-106304000D01*
X216008000Y-106302000D01*
X216007000Y-106300000D01*
X216005000Y-106298000D01*
X216004000Y-106295000D01*
X216003000Y-106293000D01*
X216002000Y-106290000D01*
X216002000Y-106288000D01*
X216001000Y-106285000D01*
X216001000Y-106283000D01*
X216000000Y-106280000D01*
X216000000Y-106278000D01*
X216000000Y-106275000D01*
X216000000Y-105625000D01*
X216000000Y-105622000D01*
X216000000Y-105620000D01*
X216001000Y-105617000D01*
X216001000Y-105615000D01*
X216002000Y-105612000D01*
X216002000Y-105610000D01*
X216003000Y-105607000D01*
X216004000Y-105605000D01*
X216005000Y-105602000D01*
X216007000Y-105600000D01*
X216008000Y-105598000D01*
X216010000Y-105596000D01*
X216011000Y-105594000D01*
X216013000Y-105592000D01*
X216015000Y-105590000D01*
X216017000Y-105588000D01*
X216019000Y-105586000D01*
X216021000Y-105585000D01*
X216023000Y-105583000D01*
X216025000Y-105582000D01*
X216027000Y-105580000D01*
X216030000Y-105579000D01*
X216032000Y-105578000D01*
X216035000Y-105577000D01*
X216037000Y-105577000D01*
X216040000Y-105576000D01*
X216042000Y-105576000D01*
X216045000Y-105575000D01*
X216047000Y-105575000D01*
X216050000Y-105575000D01*
X216550000Y-105575000D01*
X216553000Y-105575000D01*
X216555000Y-105575000D01*
X216558000Y-105576000D01*
X216560000Y-105576000D01*
X216563000Y-105577000D01*
X216565000Y-105577000D01*
X216568000Y-105578000D01*
X216570000Y-105579000D01*
X216573000Y-105580000D01*
X216575000Y-105582000D01*
X216577000Y-105583000D01*
X216579000Y-105585000D01*
X216581000Y-105586000D01*
X216583000Y-105588000D01*
X216585000Y-105590000D01*
X216587000Y-105592000D01*
X216589000Y-105594000D01*
X216590000Y-105596000D01*
X216592000Y-105598000D01*
X216593000Y-105600000D01*
X216595000Y-105602000D01*
X216596000Y-105605000D01*
X216597000Y-105607000D01*
X216598000Y-105610000D01*
X216598000Y-105612000D01*
X216599000Y-105615000D01*
X216599000Y-105617000D01*
X216600000Y-105620000D01*
X216600000Y-105622000D01*
X216600000Y-105625000D01*
G36*
X216558000Y-105576000D02*
G01*
X216560000Y-105576000D01*
X216563000Y-105577000D01*
X216565000Y-105577000D01*
X216568000Y-105578000D01*
X216570000Y-105579000D01*
X216573000Y-105580000D01*
X216575000Y-105582000D01*
X216577000Y-105583000D01*
X216579000Y-105585000D01*
X216581000Y-105586000D01*
X216583000Y-105588000D01*
X216585000Y-105590000D01*
X216587000Y-105592000D01*
X216589000Y-105594000D01*
X216590000Y-105596000D01*
X216592000Y-105598000D01*
X216593000Y-105600000D01*
X216595000Y-105602000D01*
X216596000Y-105605000D01*
X216597000Y-105607000D01*
X216598000Y-105610000D01*
X216598000Y-105612000D01*
X216599000Y-105615000D01*
X216599000Y-105617000D01*
X216600000Y-105620000D01*
X216600000Y-105622000D01*
X216600000Y-105625000D01*
X216600000Y-105775000D01*
X216600000Y-105778000D01*
X216600000Y-105780000D01*
X216599000Y-105783000D01*
X216599000Y-105785000D01*
X216598000Y-105788000D01*
X216598000Y-105790000D01*
X216597000Y-105793000D01*
X216596000Y-105795000D01*
X216595000Y-105798000D01*
X216593000Y-105800000D01*
X216592000Y-105802000D01*
X216590000Y-105804000D01*
X216589000Y-105806000D01*
X216587000Y-105808000D01*
X216585000Y-105810000D01*
X216583000Y-105812000D01*
X216581000Y-105814000D01*
X216579000Y-105815000D01*
X216577000Y-105817000D01*
X216575000Y-105818000D01*
X216573000Y-105820000D01*
X216570000Y-105821000D01*
X216568000Y-105822000D01*
X216565000Y-105823000D01*
X216563000Y-105823000D01*
X216560000Y-105824000D01*
X216558000Y-105824000D01*
X216555000Y-105825000D01*
X216553000Y-105825000D01*
X216550000Y-105825000D01*
X216250000Y-105825000D01*
X216250000Y-106075000D01*
X216550000Y-106075000D01*
X216553000Y-106075000D01*
X216555000Y-106075000D01*
X216558000Y-106076000D01*
X216560000Y-106076000D01*
X216563000Y-106077000D01*
X216565000Y-106077000D01*
X216568000Y-106078000D01*
X216570000Y-106079000D01*
X216573000Y-106080000D01*
X216575000Y-106082000D01*
X216577000Y-106083000D01*
X216579000Y-106085000D01*
X216581000Y-106086000D01*
X216583000Y-106088000D01*
X216585000Y-106090000D01*
X216587000Y-106092000D01*
X216589000Y-106094000D01*
X216590000Y-106096000D01*
X216592000Y-106098000D01*
X216593000Y-106100000D01*
X216595000Y-106102000D01*
X216596000Y-106105000D01*
X216597000Y-106107000D01*
X216598000Y-106110000D01*
X216598000Y-106112000D01*
X216599000Y-106115000D01*
X216599000Y-106117000D01*
X216600000Y-106120000D01*
X216600000Y-106122000D01*
X216600000Y-106125000D01*
X216600000Y-106275000D01*
X216600000Y-106278000D01*
X216600000Y-106280000D01*
X216599000Y-106283000D01*
X216599000Y-106285000D01*
X216598000Y-106288000D01*
X216598000Y-106290000D01*
X216597000Y-106293000D01*
X216596000Y-106295000D01*
X216595000Y-106298000D01*
X216593000Y-106300000D01*
X216592000Y-106302000D01*
X216590000Y-106304000D01*
X216589000Y-106306000D01*
X216587000Y-106308000D01*
X216585000Y-106310000D01*
X216583000Y-106312000D01*
X216581000Y-106314000D01*
X216579000Y-106315000D01*
X216577000Y-106317000D01*
X216575000Y-106318000D01*
X216573000Y-106320000D01*
X216570000Y-106321000D01*
X216568000Y-106322000D01*
X216565000Y-106323000D01*
X216563000Y-106323000D01*
X216560000Y-106324000D01*
X216558000Y-106324000D01*
X216555000Y-106325000D01*
X216553000Y-106325000D01*
X216550000Y-106325000D01*
X216050000Y-106325000D01*
X216047000Y-106325000D01*
X216045000Y-106325000D01*
X216042000Y-106324000D01*
X216040000Y-106324000D01*
X216037000Y-106323000D01*
X216035000Y-106323000D01*
X216032000Y-106322000D01*
X216030000Y-106321000D01*
X216027000Y-106320000D01*
X216025000Y-106318000D01*
X216023000Y-106317000D01*
X216021000Y-106315000D01*
X216019000Y-106314000D01*
X216017000Y-106312000D01*
X216015000Y-106310000D01*
X216013000Y-106308000D01*
X216011000Y-106306000D01*
X216010000Y-106304000D01*
X216008000Y-106302000D01*
X216007000Y-106300000D01*
X216005000Y-106298000D01*
X216004000Y-106295000D01*
X216003000Y-106293000D01*
X216002000Y-106290000D01*
X216002000Y-106288000D01*
X216001000Y-106285000D01*
X216001000Y-106283000D01*
X216000000Y-106280000D01*
X216000000Y-106278000D01*
X216000000Y-106275000D01*
X216000000Y-105625000D01*
X216000000Y-105622000D01*
X216000000Y-105620000D01*
X216001000Y-105617000D01*
X216001000Y-105615000D01*
X216002000Y-105612000D01*
X216002000Y-105610000D01*
X216003000Y-105607000D01*
X216004000Y-105605000D01*
X216005000Y-105602000D01*
X216007000Y-105600000D01*
X216008000Y-105598000D01*
X216010000Y-105596000D01*
X216011000Y-105594000D01*
X216013000Y-105592000D01*
X216015000Y-105590000D01*
X216017000Y-105588000D01*
X216019000Y-105586000D01*
X216021000Y-105585000D01*
X216023000Y-105583000D01*
X216025000Y-105582000D01*
X216027000Y-105580000D01*
X216030000Y-105579000D01*
X216032000Y-105578000D01*
X216035000Y-105577000D01*
X216037000Y-105577000D01*
X216040000Y-105576000D01*
X216042000Y-105576000D01*
X216045000Y-105575000D01*
X216047000Y-105575000D01*
X216050000Y-105575000D01*
X216550000Y-105575000D01*
X216553000Y-105575000D01*
X216555000Y-105575000D01*
X216558000Y-105576000D01*
G37*
%TD*%
D11*
%TO.C,D2*%
X221300000Y-69900000D03*
X224100000Y-69900000D03*
%TD*%
%TO.C,D1*%
X221300000Y-73900000D03*
X224100000Y-73900000D03*
%TD*%
D12*
%TO.C,C16*%
X192350000Y-93250000D03*
X192350000Y-90300000D03*
%TD*%
D13*
%TO.C,R32*%
X169425000Y-109125000D03*
X169425000Y-107300000D03*
%TD*%
D14*
%TO.C,C1*%
X212400000Y-66700000D03*
X214300000Y-66700000D03*
%TD*%
D15*
%TO.C,R12*%
X209050000Y-97950000D03*
X210875000Y-97950000D03*
%TD*%
D12*
%TO.C,C15*%
X188100000Y-93250000D03*
X188100000Y-90300000D03*
%TD*%
D16*
%TO.C,C32*%
X166000000Y-111400000D03*
X166000000Y-113300000D03*
%TD*%
%TO.C,C6*%
X224200000Y-106300000D03*
X224200000Y-108200000D03*
%TD*%
D17*
%TO.C,Q2*%
X149977500Y-98162500D03*
X149977500Y-96262500D03*
X148102500Y-97212500D03*
%TD*%
D18*
%TO.C,U8*%
X149425000Y-109195000D03*
X149425000Y-110465000D03*
X149425000Y-111735000D03*
X149425000Y-113005000D03*
X154375000Y-113005000D03*
X154375000Y-111735000D03*
X154375000Y-110465000D03*
X154375000Y-109195000D03*
%TD*%
D16*
%TO.C,C2*%
X213900000Y-75250000D03*
X213900000Y-77150000D03*
%TD*%
D19*
%TO.C,U6*%
X138100000Y-107300000D03*
X138900000Y-107300000D03*
X139700000Y-107300000D03*
X140500000Y-107300000D03*
X140500000Y-109675000D03*
X139700000Y-109675000D03*
X138900000Y-109675000D03*
X138100000Y-109675000D03*
%TD*%
D15*
%TO.C,R15*%
X219900000Y-104400000D03*
X221725000Y-104400000D03*
%TD*%
D16*
%TO.C,C30*%
X160050000Y-113232500D03*
X160050000Y-115132500D03*
%TD*%
D20*
%TO.C,C13*%
X198000000Y-69950000D03*
X198000000Y-68050000D03*
%TD*%
D21*
%TO.C,R39*%
X129950000Y-101075000D03*
X129950000Y-98150000D03*
%TD*%
D13*
%TO.C,R27*%
X157555635Y-115075000D03*
X157555635Y-113250000D03*
%TD*%
D22*
%TO.C,U2*%
X205700000Y-62825000D03*
D23*
X205775000Y-62287500D03*
D22*
X205700000Y-61750000D03*
X204000000Y-61750000D03*
D23*
X203925000Y-62287500D03*
D22*
X204000000Y-62825000D03*
%TD*%
D24*
%TO.C,C29*%
X152700000Y-107000000D03*
X150800000Y-107000000D03*
%TD*%
D15*
%TO.C,R13*%
X209050000Y-102500000D03*
X210875000Y-102500000D03*
%TD*%
D25*
%TO.C,L2*%
X217000000Y-82225000D03*
X217000000Y-89975000D03*
%TD*%
D13*
%TO.C,R7*%
X206050000Y-75325000D03*
X206050000Y-73500000D03*
%TD*%
%TO.C,R18*%
X208300000Y-90825000D03*
X208300000Y-89000000D03*
%TD*%
D26*
%TO.C,R28*%
X146400000Y-108325000D03*
X146400000Y-110150000D03*
%TD*%
D20*
%TO.C,C27*%
X135950000Y-109375000D03*
X135950000Y-107475000D03*
%TD*%
D26*
%TO.C,R11*%
X195450000Y-68087500D03*
X195450000Y-69912500D03*
%TD*%
D27*
%TO.C,U4*%
X215650000Y-104275000D03*
X215150000Y-104275000D03*
X214650000Y-104275000D03*
X214150000Y-104275000D03*
D28*
X213500000Y-104700000D03*
X213500000Y-105200000D03*
X216300000Y-105200000D03*
X216300000Y-104700000D03*
%TD*%
D29*
%TO.C,R26*%
X137912500Y-104975000D03*
X136087500Y-104975000D03*
%TD*%
D26*
%TO.C,R22*%
X199550000Y-95325000D03*
X199550000Y-97150000D03*
%TD*%
D24*
%TO.C,C20*%
X196850000Y-87700000D03*
X194950000Y-87700000D03*
%TD*%
D30*
%TO.C,U3*%
X194387500Y-75375000D03*
X195337500Y-75375000D03*
X196287500Y-75375000D03*
X196287500Y-73100000D03*
X195337500Y-73100000D03*
X194387500Y-73100000D03*
%TD*%
D16*
%TO.C,C25*%
X169750000Y-94350000D03*
X169750000Y-96250000D03*
%TD*%
D31*
%TO.C,Q1*%
X200400000Y-73027500D03*
X199450000Y-73027500D03*
X198500000Y-73027500D03*
X198500000Y-75537500D03*
X199450000Y-75537500D03*
X200400000Y-75537500D03*
%TD*%
D13*
%TO.C,R9*%
X217000000Y-78412500D03*
X217000000Y-76587500D03*
%TD*%
D15*
%TO.C,R14*%
X195725000Y-78537500D03*
X197550000Y-78537500D03*
%TD*%
D26*
%TO.C,R24*%
X181700000Y-87987500D03*
X181700000Y-89812500D03*
%TD*%
D15*
%TO.C,R6*%
X207125000Y-65800000D03*
X208950000Y-65800000D03*
%TD*%
D29*
%TO.C,R4*%
X210700000Y-75450000D03*
X208875000Y-75450000D03*
%TD*%
D13*
%TO.C,R3*%
X203450000Y-75325000D03*
X203450000Y-73500000D03*
%TD*%
D26*
%TO.C,R8*%
X217000000Y-68837500D03*
X217000000Y-70662500D03*
%TD*%
D24*
%TO.C,C22*%
X196850000Y-84550000D03*
X194950000Y-84550000D03*
%TD*%
D13*
%TO.C,R21*%
X199200000Y-87450000D03*
X199200000Y-85625000D03*
%TD*%
D26*
%TO.C,R34*%
X172700000Y-107387500D03*
X172700000Y-109212500D03*
%TD*%
D32*
%TO.C,C5*%
X213475000Y-108500000D03*
X211925000Y-108500000D03*
%TD*%
D33*
%TO.C,J1*%
X189440000Y-81968000D03*
X189440000Y-86032000D03*
X188170000Y-81968000D03*
X188170000Y-86032000D03*
X186900000Y-81968000D03*
X186900000Y-86032000D03*
X185630000Y-81968000D03*
X185630000Y-86032000D03*
X184360000Y-81968000D03*
X184360000Y-86032000D03*
%TD*%
D29*
%TO.C,R2*%
X201000000Y-59600000D03*
X199175000Y-59600000D03*
%TD*%
D34*
%TO.C,C10*%
X203700000Y-105700000D03*
X203700000Y-108650000D03*
%TD*%
D13*
%TO.C,R19*%
X204750000Y-87612500D03*
X204750000Y-85787500D03*
%TD*%
D15*
%TO.C,R1*%
X209087500Y-59600000D03*
X210912500Y-59600000D03*
%TD*%
D35*
%TO.C,Y1*%
X166000000Y-101025000D03*
X166000000Y-95500000D03*
%TD*%
D36*
%TO.C,L1*%
X216070000Y-112300000D03*
X213700000Y-112300000D03*
%TD*%
D16*
%TO.C,C31*%
X143900000Y-112082500D03*
X143900000Y-113982500D03*
%TD*%
D37*
%TO.C,D3*%
X141500000Y-96162500D03*
X141500000Y-100162500D03*
%TD*%
D20*
%TO.C,C26*%
X133600000Y-109375000D03*
X133600000Y-107475000D03*
%TD*%
D26*
%TO.C,R31*%
X169525000Y-111550000D03*
X169525000Y-113375000D03*
%TD*%
D34*
%TO.C,C11*%
X199450000Y-105700000D03*
X199450000Y-108650000D03*
%TD*%
D38*
%TO.C,C8*%
X216325000Y-108500000D03*
X217875000Y-108500000D03*
%TD*%
D39*
%TO.C,C18*%
X210200000Y-81250000D03*
X207250000Y-81250000D03*
%TD*%
D40*
%TO.C,C14*%
X214600000Y-102275000D03*
X214600000Y-100725000D03*
%TD*%
D20*
%TO.C,C3*%
X207250000Y-70550000D03*
X207250000Y-68650000D03*
%TD*%
D12*
%TO.C,C17*%
X196600000Y-93250000D03*
X196600000Y-90300000D03*
%TD*%
D26*
%TO.C,R10*%
X217000000Y-64912500D03*
X217000000Y-66737500D03*
%TD*%
D29*
%TO.C,R25*%
X169312500Y-90400000D03*
X167487500Y-90400000D03*
%TD*%
D26*
%TO.C,R30*%
X146385000Y-112100000D03*
X146385000Y-113925000D03*
%TD*%
%TO.C,R20*%
X202600000Y-95400000D03*
X202600000Y-97225000D03*
%TD*%
D16*
%TO.C,C7*%
X221500000Y-106300000D03*
X221500000Y-108200000D03*
%TD*%
D20*
%TO.C,C21*%
X208350000Y-86950000D03*
X208350000Y-85050000D03*
%TD*%
D26*
%TO.C,R17*%
X202500000Y-85787500D03*
X202500000Y-87612500D03*
%TD*%
D29*
%TO.C,R23*%
X149912500Y-90200000D03*
X148087500Y-90200000D03*
%TD*%
D13*
%TO.C,R33*%
X166025000Y-109175000D03*
X166025000Y-107350000D03*
%TD*%
%TO.C,R35*%
X145000000Y-99325000D03*
X145000000Y-97500000D03*
%TD*%
D41*
%TO.C,C12*%
X195250000Y-63050000D03*
X198200000Y-63050000D03*
%TD*%
D20*
%TO.C,C24*%
X172975000Y-92125000D03*
X172975000Y-90225000D03*
%TD*%
D16*
%TO.C,C19*%
X208300000Y-93000000D03*
X208300000Y-94900000D03*
%TD*%
D42*
%TO.C,U7*%
X175150000Y-95300000D03*
X175150000Y-96100000D03*
X175150000Y-96900000D03*
X175150000Y-97700000D03*
X175150000Y-98500000D03*
X175150000Y-99300000D03*
X175150000Y-100100000D03*
X175150000Y-100900000D03*
D43*
X176525000Y-102275000D03*
X177325000Y-102275000D03*
X178125000Y-102275000D03*
X178925000Y-102275000D03*
X179725000Y-102275000D03*
X180525000Y-102275000D03*
X181325000Y-102275000D03*
X182125000Y-102275000D03*
D42*
X183500000Y-100900000D03*
X183500000Y-100100000D03*
X183500000Y-99300000D03*
X183500000Y-98500000D03*
X183500000Y-97700000D03*
X183500000Y-96900000D03*
X183500000Y-96100000D03*
X183500000Y-95300000D03*
D43*
X182125000Y-93925000D03*
X181325000Y-93925000D03*
X180525000Y-93925000D03*
X179725000Y-93925000D03*
X178925000Y-93925000D03*
X178125000Y-93925000D03*
X177325000Y-93925000D03*
X176525000Y-93925000D03*
%TD*%
D34*
%TO.C,C9*%
X207950000Y-105700000D03*
X207950000Y-108650000D03*
%TD*%
D44*
%TO.C,P1*%
X208200000Y-57330000D03*
X207400000Y-57330000D03*
D45*
X206250000Y-57330000D03*
X205250000Y-57330000D03*
X204750000Y-57330000D03*
X203750000Y-57330000D03*
D44*
X202600000Y-57330000D03*
X201800000Y-57330000D03*
X201800000Y-57330000D03*
X202600000Y-57330000D03*
D45*
X203250000Y-57330000D03*
X204250000Y-57330000D03*
X205750000Y-57330000D03*
X206750000Y-57330000D03*
D44*
X207400000Y-57330000D03*
X208200000Y-57330000D03*
D46*
X209320000Y-56755000D03*
D47*
X209320000Y-52575000D03*
D46*
X200680000Y-56755000D03*
D47*
X200680000Y-52575000D03*
%TD*%
D15*
%TO.C,R16*%
X209050000Y-100250000D03*
X210875000Y-100250000D03*
%TD*%
D48*
%TO.C,U1*%
X211900000Y-71862500D03*
X212700000Y-71862500D03*
X211900000Y-71062500D03*
X212700000Y-71062500D03*
D49*
X211550000Y-72900000D03*
X212050000Y-72900000D03*
X212550000Y-72900000D03*
X213050000Y-72900000D03*
D50*
X213737500Y-72212500D03*
X213737500Y-71712500D03*
X213737500Y-71212500D03*
X213737500Y-70712500D03*
D49*
X213050000Y-70025000D03*
X212550000Y-70025000D03*
X212050000Y-70025000D03*
X211550000Y-70025000D03*
D50*
X210862500Y-70712500D03*
X210862500Y-71212500D03*
X210862500Y-71712500D03*
X210862500Y-72212500D03*
%TD*%
D20*
%TO.C,C28*%
X169750000Y-102150000D03*
X169750000Y-100250000D03*
%TD*%
D24*
%TO.C,C33*%
X156350000Y-90350000D03*
X154450000Y-90350000D03*
%TD*%
D51*
%TO.C,R37*%
X134000000Y-98075000D03*
X134000000Y-101000000D03*
%TD*%
D52*
%TO.C,C4*%
X204200000Y-70700000D03*
X204200000Y-67750000D03*
%TD*%
D26*
%TO.C,R36*%
X155150000Y-96587500D03*
X155150000Y-98412500D03*
%TD*%
D13*
%TO.C,R29*%
X157550000Y-111300000D03*
X157550000Y-109475000D03*
%TD*%
%TO.C,R38*%
X152750000Y-98412500D03*
X152750000Y-96587500D03*
%TD*%
%TO.C,R5*%
X217000000Y-74725000D03*
X217000000Y-72900000D03*
%TD*%
D14*
%TO.C,C23*%
X181550000Y-105750000D03*
X183450000Y-105750000D03*
%TD*%
D53*
%TO.C,U5*%
X203900000Y-91125000D03*
D54*
X202100000Y-91150000D03*
D55*
X203300000Y-91500000D03*
D54*
X202100000Y-91850000D03*
D53*
X203900000Y-91875000D03*
D56*
X203590000Y-90325000D03*
X203090000Y-90325000D03*
X202590000Y-90325000D03*
X202090000Y-90325000D03*
D57*
X202090000Y-92675000D03*
X202590000Y-92675000D03*
X203090000Y-92675000D03*
X203590000Y-92675000D03*
%TD*%
M02*
