%TF.GenerationSoftware,KiCad,Pcbnew,10.0.4*%
%TF.CreationDate,2026-09-10T13:39:29+02:00*%
%TF.ProjectId,005_CPU soldering fan,3030355f-4350-4552-9073-6f6c64657269,1.0*%
%TF.SameCoordinates,Original*%
%TF.FileFunction,Legend,Top*%
%TF.FilePolarity,Positive*%
%FSLAX46Y46*%
G04 Gerber Fmt 4.6, Leading zero omitted, Abs format (unit mm)*
G04 Created by KiCad (PCBNEW 10.0.4) date 2026-09-10 13:39:29*
%MOMM*%
%LPD*%
G01*
G04 APERTURE LIST*
%ADD10C,0.300000*%
%ADD11C,0.250000*%
%ADD12C,0.150000*%
%ADD13C,0.254000*%
%ADD14C,0.120000*%
%ADD15C,0.127000*%
%ADD16C,0.200000*%
%ADD17C,0.100000*%
G04 APERTURE END LIST*
D10*
G36*
X186910027Y-65998006D02*
G01*
X186147990Y-65998006D01*
X186147990Y-64627041D01*
X186910027Y-64627041D01*
X186910027Y-65998006D01*
G37*
G36*
X186269949Y-72390000D02*
G01*
X186269949Y-71616238D01*
X185496920Y-71616238D01*
X185496920Y-71041779D01*
X186269949Y-71041779D01*
X186269949Y-70265453D01*
X186850453Y-70265453D01*
X186850453Y-71041779D01*
X187623482Y-71041779D01*
X187623482Y-71616238D01*
X186850453Y-71616238D01*
X186850453Y-72390000D01*
X186269949Y-72390000D01*
G37*
D11*
G36*
X225430000Y-92894731D02*
G01*
X224417857Y-92894731D01*
X224417857Y-91785929D01*
X224652330Y-91785929D01*
X224652330Y-92584359D01*
X224812554Y-92584359D01*
X224812554Y-91828306D01*
X225023579Y-91828306D01*
X225023579Y-92584359D01*
X225187711Y-92584359D01*
X225187711Y-91768161D01*
X225430000Y-91768161D01*
X225430000Y-92894731D01*
G37*
G36*
X225430000Y-91580704D02*
G01*
X224417857Y-91580704D01*
X224417857Y-91099424D01*
X225152479Y-90515683D01*
X225152479Y-90512936D01*
X224417857Y-90512936D01*
X224417857Y-90201892D01*
X225430000Y-90201892D01*
X225430000Y-90683845D01*
X224693790Y-91267585D01*
X224693790Y-91270333D01*
X225430000Y-91270333D01*
X225430000Y-91580704D01*
G37*
G36*
X225430000Y-90041364D02*
G01*
X225187711Y-90041364D01*
X224662894Y-89314680D01*
X224660146Y-89314680D01*
X224660146Y-90021519D01*
X224417857Y-90021519D01*
X224417857Y-88855321D01*
X224660146Y-88855321D01*
X225184963Y-89580600D01*
X225187711Y-89580600D01*
X225187711Y-88838895D01*
X225430000Y-88838895D01*
X225430000Y-90041364D01*
G37*
G36*
X225148006Y-87312661D02*
G01*
X225207708Y-87323058D01*
X225256526Y-87339000D01*
X225301696Y-87362582D01*
X225338840Y-87391682D01*
X225368939Y-87426500D01*
X225392759Y-87466308D01*
X225411753Y-87512252D01*
X225425664Y-87565230D01*
X225437408Y-87650089D01*
X225441723Y-87755983D01*
X225441723Y-88254300D01*
X225437415Y-88359547D01*
X225425664Y-88444321D01*
X225411790Y-88497324D01*
X225392916Y-88543290D01*
X225369305Y-88583112D01*
X225339365Y-88617842D01*
X225302122Y-88646950D01*
X225256526Y-88670612D01*
X225207279Y-88686555D01*
X225147534Y-88696915D01*
X225075359Y-88700654D01*
X224772498Y-88700654D01*
X224700299Y-88696946D01*
X224640688Y-88686684D01*
X224591697Y-88670917D01*
X224546261Y-88647528D01*
X224509141Y-88618761D01*
X224479284Y-88584455D01*
X224455581Y-88545120D01*
X224436593Y-88499833D01*
X224422559Y-88447740D01*
X224410605Y-88363573D01*
X224406133Y-88254300D01*
X224406133Y-87822967D01*
X224667962Y-87822967D01*
X224667962Y-88187316D01*
X224671055Y-88240027D01*
X224679282Y-88279651D01*
X224691409Y-88308949D01*
X224709543Y-88334465D01*
X224731687Y-88353377D01*
X224758393Y-88366407D01*
X224805132Y-88377274D01*
X224869890Y-88381428D01*
X224977967Y-88381428D01*
X225050989Y-88377305D01*
X225097951Y-88367079D01*
X225124042Y-88354667D01*
X225144520Y-88337279D01*
X225160172Y-88314445D01*
X225174258Y-88271405D01*
X225179895Y-88203681D01*
X225179895Y-87805870D01*
X225174258Y-87738145D01*
X225160172Y-87695106D01*
X225144520Y-87672271D01*
X225124042Y-87654883D01*
X225097951Y-87642472D01*
X225050989Y-87632246D01*
X224977967Y-87628122D01*
X224869890Y-87628122D01*
X224805135Y-87632293D01*
X224758393Y-87643204D01*
X224731688Y-87656200D01*
X224709545Y-87675091D01*
X224691409Y-87700601D01*
X224679300Y-87729908D01*
X224671065Y-87769747D01*
X224667962Y-87822967D01*
X224406133Y-87822967D01*
X224406133Y-87755983D01*
X224410056Y-87655485D01*
X224420772Y-87574238D01*
X224436908Y-87509237D01*
X224463391Y-87449174D01*
X224500310Y-87400235D01*
X224548344Y-87360860D01*
X224604548Y-87333571D01*
X224677796Y-87315554D01*
X224772498Y-87308897D01*
X225075359Y-87308897D01*
X225148006Y-87312661D01*
G37*
G36*
X224931904Y-85223612D02*
G01*
X225007643Y-85244068D01*
X225054097Y-85266445D01*
X225094258Y-85296774D01*
X225128848Y-85335659D01*
X225154203Y-85380728D01*
X225170245Y-85435543D01*
X225175987Y-85502477D01*
X225175987Y-86119740D01*
X225430000Y-86119740D01*
X225430000Y-86430111D01*
X224417857Y-86430111D01*
X224417857Y-85663066D01*
X224671870Y-85663066D01*
X224671870Y-86119740D01*
X224921974Y-86119740D01*
X224921974Y-85636444D01*
X224918339Y-85603532D01*
X224908437Y-85578910D01*
X224892848Y-85560546D01*
X224860143Y-85542446D01*
X224816034Y-85535938D01*
X224777810Y-85535938D01*
X224743760Y-85539598D01*
X224717935Y-85549606D01*
X224698370Y-85565369D01*
X224684760Y-85586709D01*
X224675452Y-85618089D01*
X224671870Y-85663066D01*
X224417857Y-85663066D01*
X224417857Y-85583138D01*
X224422480Y-85495892D01*
X224435075Y-85426485D01*
X224454093Y-85371794D01*
X224478538Y-85329138D01*
X224508044Y-85296397D01*
X224554892Y-85263197D01*
X224611848Y-85238372D01*
X224680967Y-85222438D01*
X224764804Y-85216713D01*
X224851571Y-85216713D01*
X224931904Y-85223612D01*
G37*
G36*
X225430000Y-85048674D02*
G01*
X224417857Y-85048674D01*
X224417857Y-83939872D01*
X224652330Y-83939872D01*
X224652330Y-84738302D01*
X224812554Y-84738302D01*
X224812554Y-83982248D01*
X225023579Y-83982248D01*
X225023579Y-84738302D01*
X225187711Y-84738302D01*
X225187711Y-83922103D01*
X225430000Y-83922103D01*
X225430000Y-85048674D01*
G37*
G36*
X224852000Y-82497088D02*
G01*
X224902984Y-82507266D01*
X224946816Y-82527251D01*
X224982791Y-82559228D01*
X225009755Y-82602538D01*
X225031212Y-82666878D01*
X225033960Y-82666878D01*
X225046948Y-82617481D01*
X225065040Y-82578035D01*
X225091881Y-82545504D01*
X225132329Y-82519234D01*
X225182848Y-82503472D01*
X225257930Y-82497313D01*
X225430000Y-82497313D01*
X225430000Y-82808356D01*
X225308916Y-82808356D01*
X225258274Y-82811667D01*
X225224652Y-82820019D01*
X225198272Y-82835882D01*
X225181116Y-82859647D01*
X225171793Y-82890441D01*
X225168171Y-82935484D01*
X225168171Y-83424275D01*
X225430000Y-83424275D01*
X225430000Y-83734647D01*
X224417857Y-83734647D01*
X224417857Y-82938293D01*
X224671870Y-82938293D01*
X224671870Y-83424275D01*
X224914159Y-83424275D01*
X224914159Y-82910266D01*
X224910816Y-82868879D01*
X224902180Y-82840425D01*
X224889612Y-82821423D01*
X224871431Y-82807801D01*
X224845710Y-82798804D01*
X224809867Y-82795411D01*
X224776833Y-82795411D01*
X224736299Y-82799579D01*
X224710582Y-82810127D01*
X224692044Y-82828419D01*
X224679991Y-82856228D01*
X224674144Y-82890084D01*
X224671870Y-82938293D01*
X224417857Y-82938293D01*
X224417857Y-82796755D01*
X224422511Y-82720143D01*
X224435092Y-82660533D01*
X224454005Y-82614610D01*
X224481838Y-82573980D01*
X224515511Y-82542998D01*
X224555671Y-82520577D01*
X224600198Y-82506040D01*
X224653997Y-82496616D01*
X224718764Y-82493222D01*
X224782878Y-82493222D01*
X224852000Y-82497088D01*
G37*
G36*
X224852000Y-81045308D02*
G01*
X224902984Y-81055486D01*
X224946816Y-81075472D01*
X224982791Y-81107449D01*
X225009755Y-81150758D01*
X225031212Y-81215099D01*
X225033960Y-81215099D01*
X225046948Y-81165702D01*
X225065040Y-81126256D01*
X225091881Y-81093724D01*
X225132329Y-81067454D01*
X225182848Y-81051693D01*
X225257930Y-81045533D01*
X225430000Y-81045533D01*
X225430000Y-81356577D01*
X225308916Y-81356577D01*
X225258274Y-81359888D01*
X225224652Y-81368239D01*
X225198272Y-81384102D01*
X225181116Y-81407868D01*
X225171793Y-81438662D01*
X225168171Y-81483705D01*
X225168171Y-81972496D01*
X225430000Y-81972496D01*
X225430000Y-82282868D01*
X224417857Y-82282868D01*
X224417857Y-81486514D01*
X224671870Y-81486514D01*
X224671870Y-81972496D01*
X224914159Y-81972496D01*
X224914159Y-81458487D01*
X224910816Y-81417100D01*
X224902180Y-81388645D01*
X224889612Y-81369644D01*
X224871431Y-81356021D01*
X224845710Y-81347024D01*
X224809867Y-81343632D01*
X224776833Y-81343632D01*
X224736299Y-81347800D01*
X224710582Y-81358347D01*
X224692044Y-81376640D01*
X224679991Y-81404448D01*
X224674144Y-81438305D01*
X224671870Y-81486514D01*
X224417857Y-81486514D01*
X224417857Y-81344975D01*
X224422511Y-81268364D01*
X224435092Y-81208753D01*
X224454005Y-81162831D01*
X224481838Y-81122201D01*
X224515511Y-81091218D01*
X224555671Y-81068797D01*
X224600198Y-81054261D01*
X224653997Y-81044837D01*
X224718764Y-81041442D01*
X224782878Y-81041442D01*
X224852000Y-81045308D01*
G37*
G36*
X225430000Y-80814663D02*
G01*
X224417857Y-80814663D01*
X224417857Y-80503620D01*
X225430000Y-80503620D01*
X225430000Y-80814663D01*
G37*
G36*
X225430000Y-80277145D02*
G01*
X224417857Y-80277145D01*
X224417857Y-79168344D01*
X224652330Y-79168344D01*
X224652330Y-79966774D01*
X224812554Y-79966774D01*
X224812554Y-79210720D01*
X225023579Y-79210720D01*
X225023579Y-79966774D01*
X225187711Y-79966774D01*
X225187711Y-79150575D01*
X225430000Y-79150575D01*
X225430000Y-80277145D01*
G37*
G36*
X224852000Y-77725559D02*
G01*
X224902984Y-77735737D01*
X224946816Y-77755723D01*
X224982791Y-77787700D01*
X225009755Y-77831010D01*
X225031212Y-77895350D01*
X225033960Y-77895350D01*
X225046948Y-77845953D01*
X225065040Y-77806507D01*
X225091881Y-77773975D01*
X225132329Y-77747705D01*
X225182848Y-77731944D01*
X225257930Y-77725785D01*
X225430000Y-77725785D01*
X225430000Y-78036828D01*
X225308916Y-78036828D01*
X225258274Y-78040139D01*
X225224652Y-78048490D01*
X225198272Y-78064353D01*
X225181116Y-78088119D01*
X225171793Y-78118913D01*
X225168171Y-78163956D01*
X225168171Y-78652747D01*
X225430000Y-78652747D01*
X225430000Y-78963119D01*
X224417857Y-78963119D01*
X224417857Y-78166765D01*
X224671870Y-78166765D01*
X224671870Y-78652747D01*
X224914159Y-78652747D01*
X224914159Y-78138738D01*
X224910816Y-78097351D01*
X224902180Y-78068896D01*
X224889612Y-78049895D01*
X224871431Y-78036272D01*
X224845710Y-78027275D01*
X224809867Y-78023883D01*
X224776833Y-78023883D01*
X224736299Y-78028051D01*
X224710582Y-78038599D01*
X224692044Y-78056891D01*
X224679991Y-78084699D01*
X224674144Y-78118556D01*
X224671870Y-78166765D01*
X224417857Y-78166765D01*
X224417857Y-78025226D01*
X224422511Y-77948615D01*
X224435092Y-77889004D01*
X224454005Y-77843082D01*
X224481838Y-77802452D01*
X224515511Y-77771469D01*
X224555671Y-77749049D01*
X224600198Y-77734512D01*
X224653997Y-77725088D01*
X224718764Y-77721693D01*
X224782878Y-77721693D01*
X224852000Y-77725559D01*
G37*
D12*
X221961905Y-68524819D02*
X221961905Y-67524819D01*
X221961905Y-67524819D02*
X222200000Y-67524819D01*
X222200000Y-67524819D02*
X222342857Y-67572438D01*
X222342857Y-67572438D02*
X222438095Y-67667676D01*
X222438095Y-67667676D02*
X222485714Y-67762914D01*
X222485714Y-67762914D02*
X222533333Y-67953390D01*
X222533333Y-67953390D02*
X222533333Y-68096247D01*
X222533333Y-68096247D02*
X222485714Y-68286723D01*
X222485714Y-68286723D02*
X222438095Y-68381961D01*
X222438095Y-68381961D02*
X222342857Y-68477200D01*
X222342857Y-68477200D02*
X222200000Y-68524819D01*
X222200000Y-68524819D02*
X221961905Y-68524819D01*
X222914286Y-67620057D02*
X222961905Y-67572438D01*
X222961905Y-67572438D02*
X223057143Y-67524819D01*
X223057143Y-67524819D02*
X223295238Y-67524819D01*
X223295238Y-67524819D02*
X223390476Y-67572438D01*
X223390476Y-67572438D02*
X223438095Y-67620057D01*
X223438095Y-67620057D02*
X223485714Y-67715295D01*
X223485714Y-67715295D02*
X223485714Y-67810533D01*
X223485714Y-67810533D02*
X223438095Y-67953390D01*
X223438095Y-67953390D02*
X222866667Y-68524819D01*
X222866667Y-68524819D02*
X223485714Y-68524819D01*
X221961905Y-72524819D02*
X221961905Y-71524819D01*
X221961905Y-71524819D02*
X222200000Y-71524819D01*
X222200000Y-71524819D02*
X222342857Y-71572438D01*
X222342857Y-71572438D02*
X222438095Y-71667676D01*
X222438095Y-71667676D02*
X222485714Y-71762914D01*
X222485714Y-71762914D02*
X222533333Y-71953390D01*
X222533333Y-71953390D02*
X222533333Y-72096247D01*
X222533333Y-72096247D02*
X222485714Y-72286723D01*
X222485714Y-72286723D02*
X222438095Y-72381961D01*
X222438095Y-72381961D02*
X222342857Y-72477200D01*
X222342857Y-72477200D02*
X222200000Y-72524819D01*
X222200000Y-72524819D02*
X221961905Y-72524819D01*
X223485714Y-72524819D02*
X222914286Y-72524819D01*
X223200000Y-72524819D02*
X223200000Y-71524819D01*
X223200000Y-71524819D02*
X223104762Y-71667676D01*
X223104762Y-71667676D02*
X223009524Y-71762914D01*
X223009524Y-71762914D02*
X222914286Y-71810533D01*
X191707142Y-95159580D02*
X191659523Y-95207200D01*
X191659523Y-95207200D02*
X191516666Y-95254819D01*
X191516666Y-95254819D02*
X191421428Y-95254819D01*
X191421428Y-95254819D02*
X191278571Y-95207200D01*
X191278571Y-95207200D02*
X191183333Y-95111961D01*
X191183333Y-95111961D02*
X191135714Y-95016723D01*
X191135714Y-95016723D02*
X191088095Y-94826247D01*
X191088095Y-94826247D02*
X191088095Y-94683390D01*
X191088095Y-94683390D02*
X191135714Y-94492914D01*
X191135714Y-94492914D02*
X191183333Y-94397676D01*
X191183333Y-94397676D02*
X191278571Y-94302438D01*
X191278571Y-94302438D02*
X191421428Y-94254819D01*
X191421428Y-94254819D02*
X191516666Y-94254819D01*
X191516666Y-94254819D02*
X191659523Y-94302438D01*
X191659523Y-94302438D02*
X191707142Y-94350057D01*
X192659523Y-95254819D02*
X192088095Y-95254819D01*
X192373809Y-95254819D02*
X192373809Y-94254819D01*
X192373809Y-94254819D02*
X192278571Y-94397676D01*
X192278571Y-94397676D02*
X192183333Y-94492914D01*
X192183333Y-94492914D02*
X192088095Y-94540533D01*
X193516666Y-94254819D02*
X193326190Y-94254819D01*
X193326190Y-94254819D02*
X193230952Y-94302438D01*
X193230952Y-94302438D02*
X193183333Y-94350057D01*
X193183333Y-94350057D02*
X193088095Y-94492914D01*
X193088095Y-94492914D02*
X193040476Y-94683390D01*
X193040476Y-94683390D02*
X193040476Y-95064342D01*
X193040476Y-95064342D02*
X193088095Y-95159580D01*
X193088095Y-95159580D02*
X193135714Y-95207200D01*
X193135714Y-95207200D02*
X193230952Y-95254819D01*
X193230952Y-95254819D02*
X193421428Y-95254819D01*
X193421428Y-95254819D02*
X193516666Y-95207200D01*
X193516666Y-95207200D02*
X193564285Y-95159580D01*
X193564285Y-95159580D02*
X193611904Y-95064342D01*
X193611904Y-95064342D02*
X193611904Y-94826247D01*
X193611904Y-94826247D02*
X193564285Y-94731009D01*
X193564285Y-94731009D02*
X193516666Y-94683390D01*
X193516666Y-94683390D02*
X193421428Y-94635771D01*
X193421428Y-94635771D02*
X193230952Y-94635771D01*
X193230952Y-94635771D02*
X193135714Y-94683390D01*
X193135714Y-94683390D02*
X193088095Y-94731009D01*
X193088095Y-94731009D02*
X193040476Y-94826247D01*
X168657142Y-106154819D02*
X168323809Y-105678628D01*
X168085714Y-106154819D02*
X168085714Y-105154819D01*
X168085714Y-105154819D02*
X168466666Y-105154819D01*
X168466666Y-105154819D02*
X168561904Y-105202438D01*
X168561904Y-105202438D02*
X168609523Y-105250057D01*
X168609523Y-105250057D02*
X168657142Y-105345295D01*
X168657142Y-105345295D02*
X168657142Y-105488152D01*
X168657142Y-105488152D02*
X168609523Y-105583390D01*
X168609523Y-105583390D02*
X168561904Y-105631009D01*
X168561904Y-105631009D02*
X168466666Y-105678628D01*
X168466666Y-105678628D02*
X168085714Y-105678628D01*
X168990476Y-105154819D02*
X169609523Y-105154819D01*
X169609523Y-105154819D02*
X169276190Y-105535771D01*
X169276190Y-105535771D02*
X169419047Y-105535771D01*
X169419047Y-105535771D02*
X169514285Y-105583390D01*
X169514285Y-105583390D02*
X169561904Y-105631009D01*
X169561904Y-105631009D02*
X169609523Y-105726247D01*
X169609523Y-105726247D02*
X169609523Y-105964342D01*
X169609523Y-105964342D02*
X169561904Y-106059580D01*
X169561904Y-106059580D02*
X169514285Y-106107200D01*
X169514285Y-106107200D02*
X169419047Y-106154819D01*
X169419047Y-106154819D02*
X169133333Y-106154819D01*
X169133333Y-106154819D02*
X169038095Y-106107200D01*
X169038095Y-106107200D02*
X168990476Y-106059580D01*
X169990476Y-105250057D02*
X170038095Y-105202438D01*
X170038095Y-105202438D02*
X170133333Y-105154819D01*
X170133333Y-105154819D02*
X170371428Y-105154819D01*
X170371428Y-105154819D02*
X170466666Y-105202438D01*
X170466666Y-105202438D02*
X170514285Y-105250057D01*
X170514285Y-105250057D02*
X170561904Y-105345295D01*
X170561904Y-105345295D02*
X170561904Y-105440533D01*
X170561904Y-105440533D02*
X170514285Y-105583390D01*
X170514285Y-105583390D02*
X169942857Y-106154819D01*
X169942857Y-106154819D02*
X170561904Y-106154819D01*
X213183333Y-65379580D02*
X213135714Y-65427200D01*
X213135714Y-65427200D02*
X212992857Y-65474819D01*
X212992857Y-65474819D02*
X212897619Y-65474819D01*
X212897619Y-65474819D02*
X212754762Y-65427200D01*
X212754762Y-65427200D02*
X212659524Y-65331961D01*
X212659524Y-65331961D02*
X212611905Y-65236723D01*
X212611905Y-65236723D02*
X212564286Y-65046247D01*
X212564286Y-65046247D02*
X212564286Y-64903390D01*
X212564286Y-64903390D02*
X212611905Y-64712914D01*
X212611905Y-64712914D02*
X212659524Y-64617676D01*
X212659524Y-64617676D02*
X212754762Y-64522438D01*
X212754762Y-64522438D02*
X212897619Y-64474819D01*
X212897619Y-64474819D02*
X212992857Y-64474819D01*
X212992857Y-64474819D02*
X213135714Y-64522438D01*
X213135714Y-64522438D02*
X213183333Y-64570057D01*
X214135714Y-65474819D02*
X213564286Y-65474819D01*
X213850000Y-65474819D02*
X213850000Y-64474819D01*
X213850000Y-64474819D02*
X213754762Y-64617676D01*
X213754762Y-64617676D02*
X213659524Y-64712914D01*
X213659524Y-64712914D02*
X213564286Y-64760533D01*
X209319642Y-96754819D02*
X208986309Y-96278628D01*
X208748214Y-96754819D02*
X208748214Y-95754819D01*
X208748214Y-95754819D02*
X209129166Y-95754819D01*
X209129166Y-95754819D02*
X209224404Y-95802438D01*
X209224404Y-95802438D02*
X209272023Y-95850057D01*
X209272023Y-95850057D02*
X209319642Y-95945295D01*
X209319642Y-95945295D02*
X209319642Y-96088152D01*
X209319642Y-96088152D02*
X209272023Y-96183390D01*
X209272023Y-96183390D02*
X209224404Y-96231009D01*
X209224404Y-96231009D02*
X209129166Y-96278628D01*
X209129166Y-96278628D02*
X208748214Y-96278628D01*
X210272023Y-96754819D02*
X209700595Y-96754819D01*
X209986309Y-96754819D02*
X209986309Y-95754819D01*
X209986309Y-95754819D02*
X209891071Y-95897676D01*
X209891071Y-95897676D02*
X209795833Y-95992914D01*
X209795833Y-95992914D02*
X209700595Y-96040533D01*
X210652976Y-95850057D02*
X210700595Y-95802438D01*
X210700595Y-95802438D02*
X210795833Y-95754819D01*
X210795833Y-95754819D02*
X211033928Y-95754819D01*
X211033928Y-95754819D02*
X211129166Y-95802438D01*
X211129166Y-95802438D02*
X211176785Y-95850057D01*
X211176785Y-95850057D02*
X211224404Y-95945295D01*
X211224404Y-95945295D02*
X211224404Y-96040533D01*
X211224404Y-96040533D02*
X211176785Y-96183390D01*
X211176785Y-96183390D02*
X210605357Y-96754819D01*
X210605357Y-96754819D02*
X211224404Y-96754819D01*
X188488095Y-73506819D02*
X189059523Y-73506819D01*
X188773809Y-74506819D02*
X188773809Y-73506819D01*
X189392857Y-74506819D02*
X189392857Y-73506819D01*
X189392857Y-73506819D02*
X189773809Y-73506819D01*
X189773809Y-73506819D02*
X189869047Y-73554438D01*
X189869047Y-73554438D02*
X189916666Y-73602057D01*
X189916666Y-73602057D02*
X189964285Y-73697295D01*
X189964285Y-73697295D02*
X189964285Y-73840152D01*
X189964285Y-73840152D02*
X189916666Y-73935390D01*
X189916666Y-73935390D02*
X189869047Y-73983009D01*
X189869047Y-73983009D02*
X189773809Y-74030628D01*
X189773809Y-74030628D02*
X189392857Y-74030628D01*
X190345238Y-73602057D02*
X190392857Y-73554438D01*
X190392857Y-73554438D02*
X190488095Y-73506819D01*
X190488095Y-73506819D02*
X190726190Y-73506819D01*
X190726190Y-73506819D02*
X190821428Y-73554438D01*
X190821428Y-73554438D02*
X190869047Y-73602057D01*
X190869047Y-73602057D02*
X190916666Y-73697295D01*
X190916666Y-73697295D02*
X190916666Y-73792533D01*
X190916666Y-73792533D02*
X190869047Y-73935390D01*
X190869047Y-73935390D02*
X190297619Y-74506819D01*
X190297619Y-74506819D02*
X190916666Y-74506819D01*
X187457142Y-95209580D02*
X187409523Y-95257200D01*
X187409523Y-95257200D02*
X187266666Y-95304819D01*
X187266666Y-95304819D02*
X187171428Y-95304819D01*
X187171428Y-95304819D02*
X187028571Y-95257200D01*
X187028571Y-95257200D02*
X186933333Y-95161961D01*
X186933333Y-95161961D02*
X186885714Y-95066723D01*
X186885714Y-95066723D02*
X186838095Y-94876247D01*
X186838095Y-94876247D02*
X186838095Y-94733390D01*
X186838095Y-94733390D02*
X186885714Y-94542914D01*
X186885714Y-94542914D02*
X186933333Y-94447676D01*
X186933333Y-94447676D02*
X187028571Y-94352438D01*
X187028571Y-94352438D02*
X187171428Y-94304819D01*
X187171428Y-94304819D02*
X187266666Y-94304819D01*
X187266666Y-94304819D02*
X187409523Y-94352438D01*
X187409523Y-94352438D02*
X187457142Y-94400057D01*
X188409523Y-95304819D02*
X187838095Y-95304819D01*
X188123809Y-95304819D02*
X188123809Y-94304819D01*
X188123809Y-94304819D02*
X188028571Y-94447676D01*
X188028571Y-94447676D02*
X187933333Y-94542914D01*
X187933333Y-94542914D02*
X187838095Y-94590533D01*
X189314285Y-94304819D02*
X188838095Y-94304819D01*
X188838095Y-94304819D02*
X188790476Y-94781009D01*
X188790476Y-94781009D02*
X188838095Y-94733390D01*
X188838095Y-94733390D02*
X188933333Y-94685771D01*
X188933333Y-94685771D02*
X189171428Y-94685771D01*
X189171428Y-94685771D02*
X189266666Y-94733390D01*
X189266666Y-94733390D02*
X189314285Y-94781009D01*
X189314285Y-94781009D02*
X189361904Y-94876247D01*
X189361904Y-94876247D02*
X189361904Y-95114342D01*
X189361904Y-95114342D02*
X189314285Y-95209580D01*
X189314285Y-95209580D02*
X189266666Y-95257200D01*
X189266666Y-95257200D02*
X189171428Y-95304819D01*
X189171428Y-95304819D02*
X188933333Y-95304819D01*
X188933333Y-95304819D02*
X188838095Y-95257200D01*
X188838095Y-95257200D02*
X188790476Y-95209580D01*
X165282142Y-115209580D02*
X165234523Y-115257200D01*
X165234523Y-115257200D02*
X165091666Y-115304819D01*
X165091666Y-115304819D02*
X164996428Y-115304819D01*
X164996428Y-115304819D02*
X164853571Y-115257200D01*
X164853571Y-115257200D02*
X164758333Y-115161961D01*
X164758333Y-115161961D02*
X164710714Y-115066723D01*
X164710714Y-115066723D02*
X164663095Y-114876247D01*
X164663095Y-114876247D02*
X164663095Y-114733390D01*
X164663095Y-114733390D02*
X164710714Y-114542914D01*
X164710714Y-114542914D02*
X164758333Y-114447676D01*
X164758333Y-114447676D02*
X164853571Y-114352438D01*
X164853571Y-114352438D02*
X164996428Y-114304819D01*
X164996428Y-114304819D02*
X165091666Y-114304819D01*
X165091666Y-114304819D02*
X165234523Y-114352438D01*
X165234523Y-114352438D02*
X165282142Y-114400057D01*
X165615476Y-114304819D02*
X166234523Y-114304819D01*
X166234523Y-114304819D02*
X165901190Y-114685771D01*
X165901190Y-114685771D02*
X166044047Y-114685771D01*
X166044047Y-114685771D02*
X166139285Y-114733390D01*
X166139285Y-114733390D02*
X166186904Y-114781009D01*
X166186904Y-114781009D02*
X166234523Y-114876247D01*
X166234523Y-114876247D02*
X166234523Y-115114342D01*
X166234523Y-115114342D02*
X166186904Y-115209580D01*
X166186904Y-115209580D02*
X166139285Y-115257200D01*
X166139285Y-115257200D02*
X166044047Y-115304819D01*
X166044047Y-115304819D02*
X165758333Y-115304819D01*
X165758333Y-115304819D02*
X165663095Y-115257200D01*
X165663095Y-115257200D02*
X165615476Y-115209580D01*
X166615476Y-114400057D02*
X166663095Y-114352438D01*
X166663095Y-114352438D02*
X166758333Y-114304819D01*
X166758333Y-114304819D02*
X166996428Y-114304819D01*
X166996428Y-114304819D02*
X167091666Y-114352438D01*
X167091666Y-114352438D02*
X167139285Y-114400057D01*
X167139285Y-114400057D02*
X167186904Y-114495295D01*
X167186904Y-114495295D02*
X167186904Y-114590533D01*
X167186904Y-114590533D02*
X167139285Y-114733390D01*
X167139285Y-114733390D02*
X166567857Y-115304819D01*
X166567857Y-115304819D02*
X167186904Y-115304819D01*
X224033333Y-105159580D02*
X223985714Y-105207200D01*
X223985714Y-105207200D02*
X223842857Y-105254819D01*
X223842857Y-105254819D02*
X223747619Y-105254819D01*
X223747619Y-105254819D02*
X223604762Y-105207200D01*
X223604762Y-105207200D02*
X223509524Y-105111961D01*
X223509524Y-105111961D02*
X223461905Y-105016723D01*
X223461905Y-105016723D02*
X223414286Y-104826247D01*
X223414286Y-104826247D02*
X223414286Y-104683390D01*
X223414286Y-104683390D02*
X223461905Y-104492914D01*
X223461905Y-104492914D02*
X223509524Y-104397676D01*
X223509524Y-104397676D02*
X223604762Y-104302438D01*
X223604762Y-104302438D02*
X223747619Y-104254819D01*
X223747619Y-104254819D02*
X223842857Y-104254819D01*
X223842857Y-104254819D02*
X223985714Y-104302438D01*
X223985714Y-104302438D02*
X224033333Y-104350057D01*
X224890476Y-104254819D02*
X224700000Y-104254819D01*
X224700000Y-104254819D02*
X224604762Y-104302438D01*
X224604762Y-104302438D02*
X224557143Y-104350057D01*
X224557143Y-104350057D02*
X224461905Y-104492914D01*
X224461905Y-104492914D02*
X224414286Y-104683390D01*
X224414286Y-104683390D02*
X224414286Y-105064342D01*
X224414286Y-105064342D02*
X224461905Y-105159580D01*
X224461905Y-105159580D02*
X224509524Y-105207200D01*
X224509524Y-105207200D02*
X224604762Y-105254819D01*
X224604762Y-105254819D02*
X224795238Y-105254819D01*
X224795238Y-105254819D02*
X224890476Y-105207200D01*
X224890476Y-105207200D02*
X224938095Y-105159580D01*
X224938095Y-105159580D02*
X224985714Y-105064342D01*
X224985714Y-105064342D02*
X224985714Y-104826247D01*
X224985714Y-104826247D02*
X224938095Y-104731009D01*
X224938095Y-104731009D02*
X224890476Y-104683390D01*
X224890476Y-104683390D02*
X224795238Y-104635771D01*
X224795238Y-104635771D02*
X224604762Y-104635771D01*
X224604762Y-104635771D02*
X224509524Y-104683390D01*
X224509524Y-104683390D02*
X224461905Y-104731009D01*
X224461905Y-104731009D02*
X224414286Y-104826247D01*
X148944761Y-100162557D02*
X148849523Y-100114938D01*
X148849523Y-100114938D02*
X148754285Y-100019700D01*
X148754285Y-100019700D02*
X148611428Y-99876842D01*
X148611428Y-99876842D02*
X148516190Y-99829223D01*
X148516190Y-99829223D02*
X148420952Y-99829223D01*
X148468571Y-100067319D02*
X148373333Y-100019700D01*
X148373333Y-100019700D02*
X148278095Y-99924461D01*
X148278095Y-99924461D02*
X148230476Y-99733985D01*
X148230476Y-99733985D02*
X148230476Y-99400652D01*
X148230476Y-99400652D02*
X148278095Y-99210176D01*
X148278095Y-99210176D02*
X148373333Y-99114938D01*
X148373333Y-99114938D02*
X148468571Y-99067319D01*
X148468571Y-99067319D02*
X148659047Y-99067319D01*
X148659047Y-99067319D02*
X148754285Y-99114938D01*
X148754285Y-99114938D02*
X148849523Y-99210176D01*
X148849523Y-99210176D02*
X148897142Y-99400652D01*
X148897142Y-99400652D02*
X148897142Y-99733985D01*
X148897142Y-99733985D02*
X148849523Y-99924461D01*
X148849523Y-99924461D02*
X148754285Y-100019700D01*
X148754285Y-100019700D02*
X148659047Y-100067319D01*
X148659047Y-100067319D02*
X148468571Y-100067319D01*
X149278095Y-99162557D02*
X149325714Y-99114938D01*
X149325714Y-99114938D02*
X149420952Y-99067319D01*
X149420952Y-99067319D02*
X149659047Y-99067319D01*
X149659047Y-99067319D02*
X149754285Y-99114938D01*
X149754285Y-99114938D02*
X149801904Y-99162557D01*
X149801904Y-99162557D02*
X149849523Y-99257795D01*
X149849523Y-99257795D02*
X149849523Y-99353033D01*
X149849523Y-99353033D02*
X149801904Y-99495890D01*
X149801904Y-99495890D02*
X149230476Y-100067319D01*
X149230476Y-100067319D02*
X149849523Y-100067319D01*
X151188095Y-114104819D02*
X151188095Y-114914342D01*
X151188095Y-114914342D02*
X151235714Y-115009580D01*
X151235714Y-115009580D02*
X151283333Y-115057200D01*
X151283333Y-115057200D02*
X151378571Y-115104819D01*
X151378571Y-115104819D02*
X151569047Y-115104819D01*
X151569047Y-115104819D02*
X151664285Y-115057200D01*
X151664285Y-115057200D02*
X151711904Y-115009580D01*
X151711904Y-115009580D02*
X151759523Y-114914342D01*
X151759523Y-114914342D02*
X151759523Y-114104819D01*
X152378571Y-114533390D02*
X152283333Y-114485771D01*
X152283333Y-114485771D02*
X152235714Y-114438152D01*
X152235714Y-114438152D02*
X152188095Y-114342914D01*
X152188095Y-114342914D02*
X152188095Y-114295295D01*
X152188095Y-114295295D02*
X152235714Y-114200057D01*
X152235714Y-114200057D02*
X152283333Y-114152438D01*
X152283333Y-114152438D02*
X152378571Y-114104819D01*
X152378571Y-114104819D02*
X152569047Y-114104819D01*
X152569047Y-114104819D02*
X152664285Y-114152438D01*
X152664285Y-114152438D02*
X152711904Y-114200057D01*
X152711904Y-114200057D02*
X152759523Y-114295295D01*
X152759523Y-114295295D02*
X152759523Y-114342914D01*
X152759523Y-114342914D02*
X152711904Y-114438152D01*
X152711904Y-114438152D02*
X152664285Y-114485771D01*
X152664285Y-114485771D02*
X152569047Y-114533390D01*
X152569047Y-114533390D02*
X152378571Y-114533390D01*
X152378571Y-114533390D02*
X152283333Y-114581009D01*
X152283333Y-114581009D02*
X152235714Y-114628628D01*
X152235714Y-114628628D02*
X152188095Y-114723866D01*
X152188095Y-114723866D02*
X152188095Y-114914342D01*
X152188095Y-114914342D02*
X152235714Y-115009580D01*
X152235714Y-115009580D02*
X152283333Y-115057200D01*
X152283333Y-115057200D02*
X152378571Y-115104819D01*
X152378571Y-115104819D02*
X152569047Y-115104819D01*
X152569047Y-115104819D02*
X152664285Y-115057200D01*
X152664285Y-115057200D02*
X152711904Y-115009580D01*
X152711904Y-115009580D02*
X152759523Y-114914342D01*
X152759523Y-114914342D02*
X152759523Y-114723866D01*
X152759523Y-114723866D02*
X152711904Y-114628628D01*
X152711904Y-114628628D02*
X152664285Y-114581009D01*
X152664285Y-114581009D02*
X152569047Y-114533390D01*
X213783333Y-79009580D02*
X213735714Y-79057200D01*
X213735714Y-79057200D02*
X213592857Y-79104819D01*
X213592857Y-79104819D02*
X213497619Y-79104819D01*
X213497619Y-79104819D02*
X213354762Y-79057200D01*
X213354762Y-79057200D02*
X213259524Y-78961961D01*
X213259524Y-78961961D02*
X213211905Y-78866723D01*
X213211905Y-78866723D02*
X213164286Y-78676247D01*
X213164286Y-78676247D02*
X213164286Y-78533390D01*
X213164286Y-78533390D02*
X213211905Y-78342914D01*
X213211905Y-78342914D02*
X213259524Y-78247676D01*
X213259524Y-78247676D02*
X213354762Y-78152438D01*
X213354762Y-78152438D02*
X213497619Y-78104819D01*
X213497619Y-78104819D02*
X213592857Y-78104819D01*
X213592857Y-78104819D02*
X213735714Y-78152438D01*
X213735714Y-78152438D02*
X213783333Y-78200057D01*
X214164286Y-78200057D02*
X214211905Y-78152438D01*
X214211905Y-78152438D02*
X214307143Y-78104819D01*
X214307143Y-78104819D02*
X214545238Y-78104819D01*
X214545238Y-78104819D02*
X214640476Y-78152438D01*
X214640476Y-78152438D02*
X214688095Y-78200057D01*
X214688095Y-78200057D02*
X214735714Y-78295295D01*
X214735714Y-78295295D02*
X214735714Y-78390533D01*
X214735714Y-78390533D02*
X214688095Y-78533390D01*
X214688095Y-78533390D02*
X214116667Y-79104819D01*
X214116667Y-79104819D02*
X214735714Y-79104819D01*
X138538095Y-105492319D02*
X138538095Y-106301842D01*
X138538095Y-106301842D02*
X138585714Y-106397080D01*
X138585714Y-106397080D02*
X138633333Y-106444700D01*
X138633333Y-106444700D02*
X138728571Y-106492319D01*
X138728571Y-106492319D02*
X138919047Y-106492319D01*
X138919047Y-106492319D02*
X139014285Y-106444700D01*
X139014285Y-106444700D02*
X139061904Y-106397080D01*
X139061904Y-106397080D02*
X139109523Y-106301842D01*
X139109523Y-106301842D02*
X139109523Y-105492319D01*
X140014285Y-105492319D02*
X139823809Y-105492319D01*
X139823809Y-105492319D02*
X139728571Y-105539938D01*
X139728571Y-105539938D02*
X139680952Y-105587557D01*
X139680952Y-105587557D02*
X139585714Y-105730414D01*
X139585714Y-105730414D02*
X139538095Y-105920890D01*
X139538095Y-105920890D02*
X139538095Y-106301842D01*
X139538095Y-106301842D02*
X139585714Y-106397080D01*
X139585714Y-106397080D02*
X139633333Y-106444700D01*
X139633333Y-106444700D02*
X139728571Y-106492319D01*
X139728571Y-106492319D02*
X139919047Y-106492319D01*
X139919047Y-106492319D02*
X140014285Y-106444700D01*
X140014285Y-106444700D02*
X140061904Y-106397080D01*
X140061904Y-106397080D02*
X140109523Y-106301842D01*
X140109523Y-106301842D02*
X140109523Y-106063747D01*
X140109523Y-106063747D02*
X140061904Y-105968509D01*
X140061904Y-105968509D02*
X140014285Y-105920890D01*
X140014285Y-105920890D02*
X139919047Y-105873271D01*
X139919047Y-105873271D02*
X139728571Y-105873271D01*
X139728571Y-105873271D02*
X139633333Y-105920890D01*
X139633333Y-105920890D02*
X139585714Y-105968509D01*
X139585714Y-105968509D02*
X139538095Y-106063747D01*
X218954819Y-105642857D02*
X218478628Y-105976190D01*
X218954819Y-106214285D02*
X217954819Y-106214285D01*
X217954819Y-106214285D02*
X217954819Y-105833333D01*
X217954819Y-105833333D02*
X218002438Y-105738095D01*
X218002438Y-105738095D02*
X218050057Y-105690476D01*
X218050057Y-105690476D02*
X218145295Y-105642857D01*
X218145295Y-105642857D02*
X218288152Y-105642857D01*
X218288152Y-105642857D02*
X218383390Y-105690476D01*
X218383390Y-105690476D02*
X218431009Y-105738095D01*
X218431009Y-105738095D02*
X218478628Y-105833333D01*
X218478628Y-105833333D02*
X218478628Y-106214285D01*
X218954819Y-104690476D02*
X218954819Y-105261904D01*
X218954819Y-104976190D02*
X217954819Y-104976190D01*
X217954819Y-104976190D02*
X218097676Y-105071428D01*
X218097676Y-105071428D02*
X218192914Y-105166666D01*
X218192914Y-105166666D02*
X218240533Y-105261904D01*
X217954819Y-103785714D02*
X217954819Y-104261904D01*
X217954819Y-104261904D02*
X218431009Y-104309523D01*
X218431009Y-104309523D02*
X218383390Y-104261904D01*
X218383390Y-104261904D02*
X218335771Y-104166666D01*
X218335771Y-104166666D02*
X218335771Y-103928571D01*
X218335771Y-103928571D02*
X218383390Y-103833333D01*
X218383390Y-103833333D02*
X218431009Y-103785714D01*
X218431009Y-103785714D02*
X218526247Y-103738095D01*
X218526247Y-103738095D02*
X218764342Y-103738095D01*
X218764342Y-103738095D02*
X218859580Y-103785714D01*
X218859580Y-103785714D02*
X218907200Y-103833333D01*
X218907200Y-103833333D02*
X218954819Y-103928571D01*
X218954819Y-103928571D02*
X218954819Y-104166666D01*
X218954819Y-104166666D02*
X218907200Y-104261904D01*
X218907200Y-104261904D02*
X218859580Y-104309523D01*
X160057142Y-117142080D02*
X160009523Y-117189700D01*
X160009523Y-117189700D02*
X159866666Y-117237319D01*
X159866666Y-117237319D02*
X159771428Y-117237319D01*
X159771428Y-117237319D02*
X159628571Y-117189700D01*
X159628571Y-117189700D02*
X159533333Y-117094461D01*
X159533333Y-117094461D02*
X159485714Y-116999223D01*
X159485714Y-116999223D02*
X159438095Y-116808747D01*
X159438095Y-116808747D02*
X159438095Y-116665890D01*
X159438095Y-116665890D02*
X159485714Y-116475414D01*
X159485714Y-116475414D02*
X159533333Y-116380176D01*
X159533333Y-116380176D02*
X159628571Y-116284938D01*
X159628571Y-116284938D02*
X159771428Y-116237319D01*
X159771428Y-116237319D02*
X159866666Y-116237319D01*
X159866666Y-116237319D02*
X160009523Y-116284938D01*
X160009523Y-116284938D02*
X160057142Y-116332557D01*
X160390476Y-116237319D02*
X161009523Y-116237319D01*
X161009523Y-116237319D02*
X160676190Y-116618271D01*
X160676190Y-116618271D02*
X160819047Y-116618271D01*
X160819047Y-116618271D02*
X160914285Y-116665890D01*
X160914285Y-116665890D02*
X160961904Y-116713509D01*
X160961904Y-116713509D02*
X161009523Y-116808747D01*
X161009523Y-116808747D02*
X161009523Y-117046842D01*
X161009523Y-117046842D02*
X160961904Y-117142080D01*
X160961904Y-117142080D02*
X160914285Y-117189700D01*
X160914285Y-117189700D02*
X160819047Y-117237319D01*
X160819047Y-117237319D02*
X160533333Y-117237319D01*
X160533333Y-117237319D02*
X160438095Y-117189700D01*
X160438095Y-117189700D02*
X160390476Y-117142080D01*
X161628571Y-116237319D02*
X161723809Y-116237319D01*
X161723809Y-116237319D02*
X161819047Y-116284938D01*
X161819047Y-116284938D02*
X161866666Y-116332557D01*
X161866666Y-116332557D02*
X161914285Y-116427795D01*
X161914285Y-116427795D02*
X161961904Y-116618271D01*
X161961904Y-116618271D02*
X161961904Y-116856366D01*
X161961904Y-116856366D02*
X161914285Y-117046842D01*
X161914285Y-117046842D02*
X161866666Y-117142080D01*
X161866666Y-117142080D02*
X161819047Y-117189700D01*
X161819047Y-117189700D02*
X161723809Y-117237319D01*
X161723809Y-117237319D02*
X161628571Y-117237319D01*
X161628571Y-117237319D02*
X161533333Y-117189700D01*
X161533333Y-117189700D02*
X161485714Y-117142080D01*
X161485714Y-117142080D02*
X161438095Y-117046842D01*
X161438095Y-117046842D02*
X161390476Y-116856366D01*
X161390476Y-116856366D02*
X161390476Y-116618271D01*
X161390476Y-116618271D02*
X161438095Y-116427795D01*
X161438095Y-116427795D02*
X161485714Y-116332557D01*
X161485714Y-116332557D02*
X161533333Y-116284938D01*
X161533333Y-116284938D02*
X161628571Y-116237319D01*
X197457142Y-66859580D02*
X197409523Y-66907200D01*
X197409523Y-66907200D02*
X197266666Y-66954819D01*
X197266666Y-66954819D02*
X197171428Y-66954819D01*
X197171428Y-66954819D02*
X197028571Y-66907200D01*
X197028571Y-66907200D02*
X196933333Y-66811961D01*
X196933333Y-66811961D02*
X196885714Y-66716723D01*
X196885714Y-66716723D02*
X196838095Y-66526247D01*
X196838095Y-66526247D02*
X196838095Y-66383390D01*
X196838095Y-66383390D02*
X196885714Y-66192914D01*
X196885714Y-66192914D02*
X196933333Y-66097676D01*
X196933333Y-66097676D02*
X197028571Y-66002438D01*
X197028571Y-66002438D02*
X197171428Y-65954819D01*
X197171428Y-65954819D02*
X197266666Y-65954819D01*
X197266666Y-65954819D02*
X197409523Y-66002438D01*
X197409523Y-66002438D02*
X197457142Y-66050057D01*
X198409523Y-66954819D02*
X197838095Y-66954819D01*
X198123809Y-66954819D02*
X198123809Y-65954819D01*
X198123809Y-65954819D02*
X198028571Y-66097676D01*
X198028571Y-66097676D02*
X197933333Y-66192914D01*
X197933333Y-66192914D02*
X197838095Y-66240533D01*
X198742857Y-65954819D02*
X199361904Y-65954819D01*
X199361904Y-65954819D02*
X199028571Y-66335771D01*
X199028571Y-66335771D02*
X199171428Y-66335771D01*
X199171428Y-66335771D02*
X199266666Y-66383390D01*
X199266666Y-66383390D02*
X199314285Y-66431009D01*
X199314285Y-66431009D02*
X199361904Y-66526247D01*
X199361904Y-66526247D02*
X199361904Y-66764342D01*
X199361904Y-66764342D02*
X199314285Y-66859580D01*
X199314285Y-66859580D02*
X199266666Y-66907200D01*
X199266666Y-66907200D02*
X199171428Y-66954819D01*
X199171428Y-66954819D02*
X198885714Y-66954819D01*
X198885714Y-66954819D02*
X198790476Y-66907200D01*
X198790476Y-66907200D02*
X198742857Y-66859580D01*
X129457142Y-96854819D02*
X129123809Y-96378628D01*
X128885714Y-96854819D02*
X128885714Y-95854819D01*
X128885714Y-95854819D02*
X129266666Y-95854819D01*
X129266666Y-95854819D02*
X129361904Y-95902438D01*
X129361904Y-95902438D02*
X129409523Y-95950057D01*
X129409523Y-95950057D02*
X129457142Y-96045295D01*
X129457142Y-96045295D02*
X129457142Y-96188152D01*
X129457142Y-96188152D02*
X129409523Y-96283390D01*
X129409523Y-96283390D02*
X129361904Y-96331009D01*
X129361904Y-96331009D02*
X129266666Y-96378628D01*
X129266666Y-96378628D02*
X128885714Y-96378628D01*
X129790476Y-95854819D02*
X130409523Y-95854819D01*
X130409523Y-95854819D02*
X130076190Y-96235771D01*
X130076190Y-96235771D02*
X130219047Y-96235771D01*
X130219047Y-96235771D02*
X130314285Y-96283390D01*
X130314285Y-96283390D02*
X130361904Y-96331009D01*
X130361904Y-96331009D02*
X130409523Y-96426247D01*
X130409523Y-96426247D02*
X130409523Y-96664342D01*
X130409523Y-96664342D02*
X130361904Y-96759580D01*
X130361904Y-96759580D02*
X130314285Y-96807200D01*
X130314285Y-96807200D02*
X130219047Y-96854819D01*
X130219047Y-96854819D02*
X129933333Y-96854819D01*
X129933333Y-96854819D02*
X129838095Y-96807200D01*
X129838095Y-96807200D02*
X129790476Y-96759580D01*
X130885714Y-96854819D02*
X131076190Y-96854819D01*
X131076190Y-96854819D02*
X131171428Y-96807200D01*
X131171428Y-96807200D02*
X131219047Y-96759580D01*
X131219047Y-96759580D02*
X131314285Y-96616723D01*
X131314285Y-96616723D02*
X131361904Y-96426247D01*
X131361904Y-96426247D02*
X131361904Y-96045295D01*
X131361904Y-96045295D02*
X131314285Y-95950057D01*
X131314285Y-95950057D02*
X131266666Y-95902438D01*
X131266666Y-95902438D02*
X131171428Y-95854819D01*
X131171428Y-95854819D02*
X130980952Y-95854819D01*
X130980952Y-95854819D02*
X130885714Y-95902438D01*
X130885714Y-95902438D02*
X130838095Y-95950057D01*
X130838095Y-95950057D02*
X130790476Y-96045295D01*
X130790476Y-96045295D02*
X130790476Y-96283390D01*
X130790476Y-96283390D02*
X130838095Y-96378628D01*
X130838095Y-96378628D02*
X130885714Y-96426247D01*
X130885714Y-96426247D02*
X130980952Y-96473866D01*
X130980952Y-96473866D02*
X131171428Y-96473866D01*
X131171428Y-96473866D02*
X131266666Y-96426247D01*
X131266666Y-96426247D02*
X131314285Y-96378628D01*
X131314285Y-96378628D02*
X131361904Y-96283390D01*
X156612777Y-117154819D02*
X156279444Y-116678628D01*
X156041349Y-117154819D02*
X156041349Y-116154819D01*
X156041349Y-116154819D02*
X156422301Y-116154819D01*
X156422301Y-116154819D02*
X156517539Y-116202438D01*
X156517539Y-116202438D02*
X156565158Y-116250057D01*
X156565158Y-116250057D02*
X156612777Y-116345295D01*
X156612777Y-116345295D02*
X156612777Y-116488152D01*
X156612777Y-116488152D02*
X156565158Y-116583390D01*
X156565158Y-116583390D02*
X156517539Y-116631009D01*
X156517539Y-116631009D02*
X156422301Y-116678628D01*
X156422301Y-116678628D02*
X156041349Y-116678628D01*
X156993730Y-116250057D02*
X157041349Y-116202438D01*
X157041349Y-116202438D02*
X157136587Y-116154819D01*
X157136587Y-116154819D02*
X157374682Y-116154819D01*
X157374682Y-116154819D02*
X157469920Y-116202438D01*
X157469920Y-116202438D02*
X157517539Y-116250057D01*
X157517539Y-116250057D02*
X157565158Y-116345295D01*
X157565158Y-116345295D02*
X157565158Y-116440533D01*
X157565158Y-116440533D02*
X157517539Y-116583390D01*
X157517539Y-116583390D02*
X156946111Y-117154819D01*
X156946111Y-117154819D02*
X157565158Y-117154819D01*
X157898492Y-116154819D02*
X158565158Y-116154819D01*
X158565158Y-116154819D02*
X158136587Y-117154819D01*
X204238095Y-59979819D02*
X204238095Y-60789342D01*
X204238095Y-60789342D02*
X204285714Y-60884580D01*
X204285714Y-60884580D02*
X204333333Y-60932200D01*
X204333333Y-60932200D02*
X204428571Y-60979819D01*
X204428571Y-60979819D02*
X204619047Y-60979819D01*
X204619047Y-60979819D02*
X204714285Y-60932200D01*
X204714285Y-60932200D02*
X204761904Y-60884580D01*
X204761904Y-60884580D02*
X204809523Y-60789342D01*
X204809523Y-60789342D02*
X204809523Y-59979819D01*
X205238095Y-60075057D02*
X205285714Y-60027438D01*
X205285714Y-60027438D02*
X205380952Y-59979819D01*
X205380952Y-59979819D02*
X205619047Y-59979819D01*
X205619047Y-59979819D02*
X205714285Y-60027438D01*
X205714285Y-60027438D02*
X205761904Y-60075057D01*
X205761904Y-60075057D02*
X205809523Y-60170295D01*
X205809523Y-60170295D02*
X205809523Y-60265533D01*
X205809523Y-60265533D02*
X205761904Y-60408390D01*
X205761904Y-60408390D02*
X205190476Y-60979819D01*
X205190476Y-60979819D02*
X205809523Y-60979819D01*
X150957142Y-105559580D02*
X150909523Y-105607200D01*
X150909523Y-105607200D02*
X150766666Y-105654819D01*
X150766666Y-105654819D02*
X150671428Y-105654819D01*
X150671428Y-105654819D02*
X150528571Y-105607200D01*
X150528571Y-105607200D02*
X150433333Y-105511961D01*
X150433333Y-105511961D02*
X150385714Y-105416723D01*
X150385714Y-105416723D02*
X150338095Y-105226247D01*
X150338095Y-105226247D02*
X150338095Y-105083390D01*
X150338095Y-105083390D02*
X150385714Y-104892914D01*
X150385714Y-104892914D02*
X150433333Y-104797676D01*
X150433333Y-104797676D02*
X150528571Y-104702438D01*
X150528571Y-104702438D02*
X150671428Y-104654819D01*
X150671428Y-104654819D02*
X150766666Y-104654819D01*
X150766666Y-104654819D02*
X150909523Y-104702438D01*
X150909523Y-104702438D02*
X150957142Y-104750057D01*
X151338095Y-104750057D02*
X151385714Y-104702438D01*
X151385714Y-104702438D02*
X151480952Y-104654819D01*
X151480952Y-104654819D02*
X151719047Y-104654819D01*
X151719047Y-104654819D02*
X151814285Y-104702438D01*
X151814285Y-104702438D02*
X151861904Y-104750057D01*
X151861904Y-104750057D02*
X151909523Y-104845295D01*
X151909523Y-104845295D02*
X151909523Y-104940533D01*
X151909523Y-104940533D02*
X151861904Y-105083390D01*
X151861904Y-105083390D02*
X151290476Y-105654819D01*
X151290476Y-105654819D02*
X151909523Y-105654819D01*
X152385714Y-105654819D02*
X152576190Y-105654819D01*
X152576190Y-105654819D02*
X152671428Y-105607200D01*
X152671428Y-105607200D02*
X152719047Y-105559580D01*
X152719047Y-105559580D02*
X152814285Y-105416723D01*
X152814285Y-105416723D02*
X152861904Y-105226247D01*
X152861904Y-105226247D02*
X152861904Y-104845295D01*
X152861904Y-104845295D02*
X152814285Y-104750057D01*
X152814285Y-104750057D02*
X152766666Y-104702438D01*
X152766666Y-104702438D02*
X152671428Y-104654819D01*
X152671428Y-104654819D02*
X152480952Y-104654819D01*
X152480952Y-104654819D02*
X152385714Y-104702438D01*
X152385714Y-104702438D02*
X152338095Y-104750057D01*
X152338095Y-104750057D02*
X152290476Y-104845295D01*
X152290476Y-104845295D02*
X152290476Y-105083390D01*
X152290476Y-105083390D02*
X152338095Y-105178628D01*
X152338095Y-105178628D02*
X152385714Y-105226247D01*
X152385714Y-105226247D02*
X152480952Y-105273866D01*
X152480952Y-105273866D02*
X152671428Y-105273866D01*
X152671428Y-105273866D02*
X152766666Y-105226247D01*
X152766666Y-105226247D02*
X152814285Y-105178628D01*
X152814285Y-105178628D02*
X152861904Y-105083390D01*
X212854819Y-103242857D02*
X212378628Y-103576190D01*
X212854819Y-103814285D02*
X211854819Y-103814285D01*
X211854819Y-103814285D02*
X211854819Y-103433333D01*
X211854819Y-103433333D02*
X211902438Y-103338095D01*
X211902438Y-103338095D02*
X211950057Y-103290476D01*
X211950057Y-103290476D02*
X212045295Y-103242857D01*
X212045295Y-103242857D02*
X212188152Y-103242857D01*
X212188152Y-103242857D02*
X212283390Y-103290476D01*
X212283390Y-103290476D02*
X212331009Y-103338095D01*
X212331009Y-103338095D02*
X212378628Y-103433333D01*
X212378628Y-103433333D02*
X212378628Y-103814285D01*
X212854819Y-102290476D02*
X212854819Y-102861904D01*
X212854819Y-102576190D02*
X211854819Y-102576190D01*
X211854819Y-102576190D02*
X211997676Y-102671428D01*
X211997676Y-102671428D02*
X212092914Y-102766666D01*
X212092914Y-102766666D02*
X212140533Y-102861904D01*
X211854819Y-101957142D02*
X211854819Y-101338095D01*
X211854819Y-101338095D02*
X212235771Y-101671428D01*
X212235771Y-101671428D02*
X212235771Y-101528571D01*
X212235771Y-101528571D02*
X212283390Y-101433333D01*
X212283390Y-101433333D02*
X212331009Y-101385714D01*
X212331009Y-101385714D02*
X212426247Y-101338095D01*
X212426247Y-101338095D02*
X212664342Y-101338095D01*
X212664342Y-101338095D02*
X212759580Y-101385714D01*
X212759580Y-101385714D02*
X212807200Y-101433333D01*
X212807200Y-101433333D02*
X212854819Y-101528571D01*
X212854819Y-101528571D02*
X212854819Y-101814285D01*
X212854819Y-101814285D02*
X212807200Y-101909523D01*
X212807200Y-101909523D02*
X212759580Y-101957142D01*
X222852319Y-84679166D02*
X222852319Y-85155356D01*
X222852319Y-85155356D02*
X221852319Y-85155356D01*
X221947557Y-84393451D02*
X221899938Y-84345832D01*
X221899938Y-84345832D02*
X221852319Y-84250594D01*
X221852319Y-84250594D02*
X221852319Y-84012499D01*
X221852319Y-84012499D02*
X221899938Y-83917261D01*
X221899938Y-83917261D02*
X221947557Y-83869642D01*
X221947557Y-83869642D02*
X222042795Y-83822023D01*
X222042795Y-83822023D02*
X222138033Y-83822023D01*
X222138033Y-83822023D02*
X222280890Y-83869642D01*
X222280890Y-83869642D02*
X222852319Y-84441070D01*
X222852319Y-84441070D02*
X222852319Y-83822023D01*
X162766666Y-88454819D02*
X162766666Y-89169104D01*
X162766666Y-89169104D02*
X162719047Y-89311961D01*
X162719047Y-89311961D02*
X162623809Y-89407200D01*
X162623809Y-89407200D02*
X162480952Y-89454819D01*
X162480952Y-89454819D02*
X162385714Y-89454819D01*
X163195238Y-88550057D02*
X163242857Y-88502438D01*
X163242857Y-88502438D02*
X163338095Y-88454819D01*
X163338095Y-88454819D02*
X163576190Y-88454819D01*
X163576190Y-88454819D02*
X163671428Y-88502438D01*
X163671428Y-88502438D02*
X163719047Y-88550057D01*
X163719047Y-88550057D02*
X163766666Y-88645295D01*
X163766666Y-88645295D02*
X163766666Y-88740533D01*
X163766666Y-88740533D02*
X163719047Y-88883390D01*
X163719047Y-88883390D02*
X163147619Y-89454819D01*
X163147619Y-89454819D02*
X163766666Y-89454819D01*
X205983333Y-77404819D02*
X205650000Y-76928628D01*
X205411905Y-77404819D02*
X205411905Y-76404819D01*
X205411905Y-76404819D02*
X205792857Y-76404819D01*
X205792857Y-76404819D02*
X205888095Y-76452438D01*
X205888095Y-76452438D02*
X205935714Y-76500057D01*
X205935714Y-76500057D02*
X205983333Y-76595295D01*
X205983333Y-76595295D02*
X205983333Y-76738152D01*
X205983333Y-76738152D02*
X205935714Y-76833390D01*
X205935714Y-76833390D02*
X205888095Y-76881009D01*
X205888095Y-76881009D02*
X205792857Y-76928628D01*
X205792857Y-76928628D02*
X205411905Y-76928628D01*
X206316667Y-76404819D02*
X206983333Y-76404819D01*
X206983333Y-76404819D02*
X206554762Y-77404819D01*
X210404819Y-90555357D02*
X209928628Y-90888690D01*
X210404819Y-91126785D02*
X209404819Y-91126785D01*
X209404819Y-91126785D02*
X209404819Y-90745833D01*
X209404819Y-90745833D02*
X209452438Y-90650595D01*
X209452438Y-90650595D02*
X209500057Y-90602976D01*
X209500057Y-90602976D02*
X209595295Y-90555357D01*
X209595295Y-90555357D02*
X209738152Y-90555357D01*
X209738152Y-90555357D02*
X209833390Y-90602976D01*
X209833390Y-90602976D02*
X209881009Y-90650595D01*
X209881009Y-90650595D02*
X209928628Y-90745833D01*
X209928628Y-90745833D02*
X209928628Y-91126785D01*
X210404819Y-89602976D02*
X210404819Y-90174404D01*
X210404819Y-89888690D02*
X209404819Y-89888690D01*
X209404819Y-89888690D02*
X209547676Y-89983928D01*
X209547676Y-89983928D02*
X209642914Y-90079166D01*
X209642914Y-90079166D02*
X209690533Y-90174404D01*
X209833390Y-89031547D02*
X209785771Y-89126785D01*
X209785771Y-89126785D02*
X209738152Y-89174404D01*
X209738152Y-89174404D02*
X209642914Y-89222023D01*
X209642914Y-89222023D02*
X209595295Y-89222023D01*
X209595295Y-89222023D02*
X209500057Y-89174404D01*
X209500057Y-89174404D02*
X209452438Y-89126785D01*
X209452438Y-89126785D02*
X209404819Y-89031547D01*
X209404819Y-89031547D02*
X209404819Y-88841071D01*
X209404819Y-88841071D02*
X209452438Y-88745833D01*
X209452438Y-88745833D02*
X209500057Y-88698214D01*
X209500057Y-88698214D02*
X209595295Y-88650595D01*
X209595295Y-88650595D02*
X209642914Y-88650595D01*
X209642914Y-88650595D02*
X209738152Y-88698214D01*
X209738152Y-88698214D02*
X209785771Y-88745833D01*
X209785771Y-88745833D02*
X209833390Y-88841071D01*
X209833390Y-88841071D02*
X209833390Y-89031547D01*
X209833390Y-89031547D02*
X209881009Y-89126785D01*
X209881009Y-89126785D02*
X209928628Y-89174404D01*
X209928628Y-89174404D02*
X210023866Y-89222023D01*
X210023866Y-89222023D02*
X210214342Y-89222023D01*
X210214342Y-89222023D02*
X210309580Y-89174404D01*
X210309580Y-89174404D02*
X210357200Y-89126785D01*
X210357200Y-89126785D02*
X210404819Y-89031547D01*
X210404819Y-89031547D02*
X210404819Y-88841071D01*
X210404819Y-88841071D02*
X210357200Y-88745833D01*
X210357200Y-88745833D02*
X210309580Y-88698214D01*
X210309580Y-88698214D02*
X210214342Y-88650595D01*
X210214342Y-88650595D02*
X210023866Y-88650595D01*
X210023866Y-88650595D02*
X209928628Y-88698214D01*
X209928628Y-88698214D02*
X209881009Y-88745833D01*
X209881009Y-88745833D02*
X209833390Y-88841071D01*
X145507142Y-107204819D02*
X145173809Y-106728628D01*
X144935714Y-107204819D02*
X144935714Y-106204819D01*
X144935714Y-106204819D02*
X145316666Y-106204819D01*
X145316666Y-106204819D02*
X145411904Y-106252438D01*
X145411904Y-106252438D02*
X145459523Y-106300057D01*
X145459523Y-106300057D02*
X145507142Y-106395295D01*
X145507142Y-106395295D02*
X145507142Y-106538152D01*
X145507142Y-106538152D02*
X145459523Y-106633390D01*
X145459523Y-106633390D02*
X145411904Y-106681009D01*
X145411904Y-106681009D02*
X145316666Y-106728628D01*
X145316666Y-106728628D02*
X144935714Y-106728628D01*
X145888095Y-106300057D02*
X145935714Y-106252438D01*
X145935714Y-106252438D02*
X146030952Y-106204819D01*
X146030952Y-106204819D02*
X146269047Y-106204819D01*
X146269047Y-106204819D02*
X146364285Y-106252438D01*
X146364285Y-106252438D02*
X146411904Y-106300057D01*
X146411904Y-106300057D02*
X146459523Y-106395295D01*
X146459523Y-106395295D02*
X146459523Y-106490533D01*
X146459523Y-106490533D02*
X146411904Y-106633390D01*
X146411904Y-106633390D02*
X145840476Y-107204819D01*
X145840476Y-107204819D02*
X146459523Y-107204819D01*
X147030952Y-106633390D02*
X146935714Y-106585771D01*
X146935714Y-106585771D02*
X146888095Y-106538152D01*
X146888095Y-106538152D02*
X146840476Y-106442914D01*
X146840476Y-106442914D02*
X146840476Y-106395295D01*
X146840476Y-106395295D02*
X146888095Y-106300057D01*
X146888095Y-106300057D02*
X146935714Y-106252438D01*
X146935714Y-106252438D02*
X147030952Y-106204819D01*
X147030952Y-106204819D02*
X147221428Y-106204819D01*
X147221428Y-106204819D02*
X147316666Y-106252438D01*
X147316666Y-106252438D02*
X147364285Y-106300057D01*
X147364285Y-106300057D02*
X147411904Y-106395295D01*
X147411904Y-106395295D02*
X147411904Y-106442914D01*
X147411904Y-106442914D02*
X147364285Y-106538152D01*
X147364285Y-106538152D02*
X147316666Y-106585771D01*
X147316666Y-106585771D02*
X147221428Y-106633390D01*
X147221428Y-106633390D02*
X147030952Y-106633390D01*
X147030952Y-106633390D02*
X146935714Y-106681009D01*
X146935714Y-106681009D02*
X146888095Y-106728628D01*
X146888095Y-106728628D02*
X146840476Y-106823866D01*
X146840476Y-106823866D02*
X146840476Y-107014342D01*
X146840476Y-107014342D02*
X146888095Y-107109580D01*
X146888095Y-107109580D02*
X146935714Y-107157200D01*
X146935714Y-107157200D02*
X147030952Y-107204819D01*
X147030952Y-107204819D02*
X147221428Y-107204819D01*
X147221428Y-107204819D02*
X147316666Y-107157200D01*
X147316666Y-107157200D02*
X147364285Y-107109580D01*
X147364285Y-107109580D02*
X147411904Y-107014342D01*
X147411904Y-107014342D02*
X147411904Y-106823866D01*
X147411904Y-106823866D02*
X147364285Y-106728628D01*
X147364285Y-106728628D02*
X147316666Y-106681009D01*
X147316666Y-106681009D02*
X147221428Y-106633390D01*
X135157142Y-111359580D02*
X135109523Y-111407200D01*
X135109523Y-111407200D02*
X134966666Y-111454819D01*
X134966666Y-111454819D02*
X134871428Y-111454819D01*
X134871428Y-111454819D02*
X134728571Y-111407200D01*
X134728571Y-111407200D02*
X134633333Y-111311961D01*
X134633333Y-111311961D02*
X134585714Y-111216723D01*
X134585714Y-111216723D02*
X134538095Y-111026247D01*
X134538095Y-111026247D02*
X134538095Y-110883390D01*
X134538095Y-110883390D02*
X134585714Y-110692914D01*
X134585714Y-110692914D02*
X134633333Y-110597676D01*
X134633333Y-110597676D02*
X134728571Y-110502438D01*
X134728571Y-110502438D02*
X134871428Y-110454819D01*
X134871428Y-110454819D02*
X134966666Y-110454819D01*
X134966666Y-110454819D02*
X135109523Y-110502438D01*
X135109523Y-110502438D02*
X135157142Y-110550057D01*
X135538095Y-110550057D02*
X135585714Y-110502438D01*
X135585714Y-110502438D02*
X135680952Y-110454819D01*
X135680952Y-110454819D02*
X135919047Y-110454819D01*
X135919047Y-110454819D02*
X136014285Y-110502438D01*
X136014285Y-110502438D02*
X136061904Y-110550057D01*
X136061904Y-110550057D02*
X136109523Y-110645295D01*
X136109523Y-110645295D02*
X136109523Y-110740533D01*
X136109523Y-110740533D02*
X136061904Y-110883390D01*
X136061904Y-110883390D02*
X135490476Y-111454819D01*
X135490476Y-111454819D02*
X136109523Y-111454819D01*
X136442857Y-110454819D02*
X137109523Y-110454819D01*
X137109523Y-110454819D02*
X136680952Y-111454819D01*
X194407142Y-67017319D02*
X194073809Y-66541128D01*
X193835714Y-67017319D02*
X193835714Y-66017319D01*
X193835714Y-66017319D02*
X194216666Y-66017319D01*
X194216666Y-66017319D02*
X194311904Y-66064938D01*
X194311904Y-66064938D02*
X194359523Y-66112557D01*
X194359523Y-66112557D02*
X194407142Y-66207795D01*
X194407142Y-66207795D02*
X194407142Y-66350652D01*
X194407142Y-66350652D02*
X194359523Y-66445890D01*
X194359523Y-66445890D02*
X194311904Y-66493509D01*
X194311904Y-66493509D02*
X194216666Y-66541128D01*
X194216666Y-66541128D02*
X193835714Y-66541128D01*
X195359523Y-67017319D02*
X194788095Y-67017319D01*
X195073809Y-67017319D02*
X195073809Y-66017319D01*
X195073809Y-66017319D02*
X194978571Y-66160176D01*
X194978571Y-66160176D02*
X194883333Y-66255414D01*
X194883333Y-66255414D02*
X194788095Y-66303033D01*
X196311904Y-67017319D02*
X195740476Y-67017319D01*
X196026190Y-67017319D02*
X196026190Y-66017319D01*
X196026190Y-66017319D02*
X195930952Y-66160176D01*
X195930952Y-66160176D02*
X195835714Y-66255414D01*
X195835714Y-66255414D02*
X195740476Y-66303033D01*
X216490476Y-102762295D02*
X216490476Y-103409914D01*
X216490476Y-103409914D02*
X216528571Y-103486104D01*
X216528571Y-103486104D02*
X216566666Y-103524200D01*
X216566666Y-103524200D02*
X216642857Y-103562295D01*
X216642857Y-103562295D02*
X216795238Y-103562295D01*
X216795238Y-103562295D02*
X216871428Y-103524200D01*
X216871428Y-103524200D02*
X216909523Y-103486104D01*
X216909523Y-103486104D02*
X216947619Y-103409914D01*
X216947619Y-103409914D02*
X216947619Y-102762295D01*
X217671428Y-103028961D02*
X217671428Y-103562295D01*
X217480952Y-102724200D02*
X217290475Y-103295628D01*
X217290475Y-103295628D02*
X217785714Y-103295628D01*
X136357142Y-103554819D02*
X136023809Y-103078628D01*
X135785714Y-103554819D02*
X135785714Y-102554819D01*
X135785714Y-102554819D02*
X136166666Y-102554819D01*
X136166666Y-102554819D02*
X136261904Y-102602438D01*
X136261904Y-102602438D02*
X136309523Y-102650057D01*
X136309523Y-102650057D02*
X136357142Y-102745295D01*
X136357142Y-102745295D02*
X136357142Y-102888152D01*
X136357142Y-102888152D02*
X136309523Y-102983390D01*
X136309523Y-102983390D02*
X136261904Y-103031009D01*
X136261904Y-103031009D02*
X136166666Y-103078628D01*
X136166666Y-103078628D02*
X135785714Y-103078628D01*
X136738095Y-102650057D02*
X136785714Y-102602438D01*
X136785714Y-102602438D02*
X136880952Y-102554819D01*
X136880952Y-102554819D02*
X137119047Y-102554819D01*
X137119047Y-102554819D02*
X137214285Y-102602438D01*
X137214285Y-102602438D02*
X137261904Y-102650057D01*
X137261904Y-102650057D02*
X137309523Y-102745295D01*
X137309523Y-102745295D02*
X137309523Y-102840533D01*
X137309523Y-102840533D02*
X137261904Y-102983390D01*
X137261904Y-102983390D02*
X136690476Y-103554819D01*
X136690476Y-103554819D02*
X137309523Y-103554819D01*
X138166666Y-102554819D02*
X137976190Y-102554819D01*
X137976190Y-102554819D02*
X137880952Y-102602438D01*
X137880952Y-102602438D02*
X137833333Y-102650057D01*
X137833333Y-102650057D02*
X137738095Y-102792914D01*
X137738095Y-102792914D02*
X137690476Y-102983390D01*
X137690476Y-102983390D02*
X137690476Y-103364342D01*
X137690476Y-103364342D02*
X137738095Y-103459580D01*
X137738095Y-103459580D02*
X137785714Y-103507200D01*
X137785714Y-103507200D02*
X137880952Y-103554819D01*
X137880952Y-103554819D02*
X138071428Y-103554819D01*
X138071428Y-103554819D02*
X138166666Y-103507200D01*
X138166666Y-103507200D02*
X138214285Y-103459580D01*
X138214285Y-103459580D02*
X138261904Y-103364342D01*
X138261904Y-103364342D02*
X138261904Y-103126247D01*
X138261904Y-103126247D02*
X138214285Y-103031009D01*
X138214285Y-103031009D02*
X138166666Y-102983390D01*
X138166666Y-102983390D02*
X138071428Y-102935771D01*
X138071428Y-102935771D02*
X137880952Y-102935771D01*
X137880952Y-102935771D02*
X137785714Y-102983390D01*
X137785714Y-102983390D02*
X137738095Y-103031009D01*
X137738095Y-103031009D02*
X137690476Y-103126247D01*
X192531009Y-68985714D02*
X192578628Y-68842857D01*
X192578628Y-68842857D02*
X192626247Y-68795238D01*
X192626247Y-68795238D02*
X192721485Y-68747619D01*
X192721485Y-68747619D02*
X192864342Y-68747619D01*
X192864342Y-68747619D02*
X192959580Y-68795238D01*
X192959580Y-68795238D02*
X193007200Y-68842857D01*
X193007200Y-68842857D02*
X193054819Y-68938095D01*
X193054819Y-68938095D02*
X193054819Y-69319047D01*
X193054819Y-69319047D02*
X192054819Y-69319047D01*
X192054819Y-69319047D02*
X192054819Y-68985714D01*
X192054819Y-68985714D02*
X192102438Y-68890476D01*
X192102438Y-68890476D02*
X192150057Y-68842857D01*
X192150057Y-68842857D02*
X192245295Y-68795238D01*
X192245295Y-68795238D02*
X192340533Y-68795238D01*
X192340533Y-68795238D02*
X192435771Y-68842857D01*
X192435771Y-68842857D02*
X192483390Y-68890476D01*
X192483390Y-68890476D02*
X192531009Y-68985714D01*
X192531009Y-68985714D02*
X192531009Y-69319047D01*
X192054819Y-68461904D02*
X192054819Y-67890476D01*
X193054819Y-68176190D02*
X192054819Y-68176190D01*
X193054819Y-67033333D02*
X193054819Y-67604761D01*
X193054819Y-67319047D02*
X192054819Y-67319047D01*
X192054819Y-67319047D02*
X192197676Y-67414285D01*
X192197676Y-67414285D02*
X192292914Y-67509523D01*
X192292914Y-67509523D02*
X192340533Y-67604761D01*
X198757142Y-99279819D02*
X198423809Y-98803628D01*
X198185714Y-99279819D02*
X198185714Y-98279819D01*
X198185714Y-98279819D02*
X198566666Y-98279819D01*
X198566666Y-98279819D02*
X198661904Y-98327438D01*
X198661904Y-98327438D02*
X198709523Y-98375057D01*
X198709523Y-98375057D02*
X198757142Y-98470295D01*
X198757142Y-98470295D02*
X198757142Y-98613152D01*
X198757142Y-98613152D02*
X198709523Y-98708390D01*
X198709523Y-98708390D02*
X198661904Y-98756009D01*
X198661904Y-98756009D02*
X198566666Y-98803628D01*
X198566666Y-98803628D02*
X198185714Y-98803628D01*
X199138095Y-98375057D02*
X199185714Y-98327438D01*
X199185714Y-98327438D02*
X199280952Y-98279819D01*
X199280952Y-98279819D02*
X199519047Y-98279819D01*
X199519047Y-98279819D02*
X199614285Y-98327438D01*
X199614285Y-98327438D02*
X199661904Y-98375057D01*
X199661904Y-98375057D02*
X199709523Y-98470295D01*
X199709523Y-98470295D02*
X199709523Y-98565533D01*
X199709523Y-98565533D02*
X199661904Y-98708390D01*
X199661904Y-98708390D02*
X199090476Y-99279819D01*
X199090476Y-99279819D02*
X199709523Y-99279819D01*
X200090476Y-98375057D02*
X200138095Y-98327438D01*
X200138095Y-98327438D02*
X200233333Y-98279819D01*
X200233333Y-98279819D02*
X200471428Y-98279819D01*
X200471428Y-98279819D02*
X200566666Y-98327438D01*
X200566666Y-98327438D02*
X200614285Y-98375057D01*
X200614285Y-98375057D02*
X200661904Y-98470295D01*
X200661904Y-98470295D02*
X200661904Y-98565533D01*
X200661904Y-98565533D02*
X200614285Y-98708390D01*
X200614285Y-98708390D02*
X200042857Y-99279819D01*
X200042857Y-99279819D02*
X200661904Y-99279819D01*
X193609580Y-88042857D02*
X193657200Y-88090476D01*
X193657200Y-88090476D02*
X193704819Y-88233333D01*
X193704819Y-88233333D02*
X193704819Y-88328571D01*
X193704819Y-88328571D02*
X193657200Y-88471428D01*
X193657200Y-88471428D02*
X193561961Y-88566666D01*
X193561961Y-88566666D02*
X193466723Y-88614285D01*
X193466723Y-88614285D02*
X193276247Y-88661904D01*
X193276247Y-88661904D02*
X193133390Y-88661904D01*
X193133390Y-88661904D02*
X192942914Y-88614285D01*
X192942914Y-88614285D02*
X192847676Y-88566666D01*
X192847676Y-88566666D02*
X192752438Y-88471428D01*
X192752438Y-88471428D02*
X192704819Y-88328571D01*
X192704819Y-88328571D02*
X192704819Y-88233333D01*
X192704819Y-88233333D02*
X192752438Y-88090476D01*
X192752438Y-88090476D02*
X192800057Y-88042857D01*
X192800057Y-87661904D02*
X192752438Y-87614285D01*
X192752438Y-87614285D02*
X192704819Y-87519047D01*
X192704819Y-87519047D02*
X192704819Y-87280952D01*
X192704819Y-87280952D02*
X192752438Y-87185714D01*
X192752438Y-87185714D02*
X192800057Y-87138095D01*
X192800057Y-87138095D02*
X192895295Y-87090476D01*
X192895295Y-87090476D02*
X192990533Y-87090476D01*
X192990533Y-87090476D02*
X193133390Y-87138095D01*
X193133390Y-87138095D02*
X193704819Y-87709523D01*
X193704819Y-87709523D02*
X193704819Y-87090476D01*
X192704819Y-86471428D02*
X192704819Y-86376190D01*
X192704819Y-86376190D02*
X192752438Y-86280952D01*
X192752438Y-86280952D02*
X192800057Y-86233333D01*
X192800057Y-86233333D02*
X192895295Y-86185714D01*
X192895295Y-86185714D02*
X193085771Y-86138095D01*
X193085771Y-86138095D02*
X193323866Y-86138095D01*
X193323866Y-86138095D02*
X193514342Y-86185714D01*
X193514342Y-86185714D02*
X193609580Y-86233333D01*
X193609580Y-86233333D02*
X193657200Y-86280952D01*
X193657200Y-86280952D02*
X193704819Y-86376190D01*
X193704819Y-86376190D02*
X193704819Y-86471428D01*
X193704819Y-86471428D02*
X193657200Y-86566666D01*
X193657200Y-86566666D02*
X193609580Y-86614285D01*
X193609580Y-86614285D02*
X193514342Y-86661904D01*
X193514342Y-86661904D02*
X193323866Y-86709523D01*
X193323866Y-86709523D02*
X193085771Y-86709523D01*
X193085771Y-86709523D02*
X192895295Y-86661904D01*
X192895295Y-86661904D02*
X192800057Y-86614285D01*
X192800057Y-86614285D02*
X192752438Y-86566666D01*
X192752438Y-86566666D02*
X192704819Y-86471428D01*
X192604819Y-75149404D02*
X193414342Y-75149404D01*
X193414342Y-75149404D02*
X193509580Y-75101785D01*
X193509580Y-75101785D02*
X193557200Y-75054166D01*
X193557200Y-75054166D02*
X193604819Y-74958928D01*
X193604819Y-74958928D02*
X193604819Y-74768452D01*
X193604819Y-74768452D02*
X193557200Y-74673214D01*
X193557200Y-74673214D02*
X193509580Y-74625595D01*
X193509580Y-74625595D02*
X193414342Y-74577976D01*
X193414342Y-74577976D02*
X192604819Y-74577976D01*
X192604819Y-74197023D02*
X192604819Y-73577976D01*
X192604819Y-73577976D02*
X192985771Y-73911309D01*
X192985771Y-73911309D02*
X192985771Y-73768452D01*
X192985771Y-73768452D02*
X193033390Y-73673214D01*
X193033390Y-73673214D02*
X193081009Y-73625595D01*
X193081009Y-73625595D02*
X193176247Y-73577976D01*
X193176247Y-73577976D02*
X193414342Y-73577976D01*
X193414342Y-73577976D02*
X193509580Y-73625595D01*
X193509580Y-73625595D02*
X193557200Y-73673214D01*
X193557200Y-73673214D02*
X193604819Y-73768452D01*
X193604819Y-73768452D02*
X193604819Y-74054166D01*
X193604819Y-74054166D02*
X193557200Y-74149404D01*
X193557200Y-74149404D02*
X193509580Y-74197023D01*
X171789580Y-95942857D02*
X171837200Y-95990476D01*
X171837200Y-95990476D02*
X171884819Y-96133333D01*
X171884819Y-96133333D02*
X171884819Y-96228571D01*
X171884819Y-96228571D02*
X171837200Y-96371428D01*
X171837200Y-96371428D02*
X171741961Y-96466666D01*
X171741961Y-96466666D02*
X171646723Y-96514285D01*
X171646723Y-96514285D02*
X171456247Y-96561904D01*
X171456247Y-96561904D02*
X171313390Y-96561904D01*
X171313390Y-96561904D02*
X171122914Y-96514285D01*
X171122914Y-96514285D02*
X171027676Y-96466666D01*
X171027676Y-96466666D02*
X170932438Y-96371428D01*
X170932438Y-96371428D02*
X170884819Y-96228571D01*
X170884819Y-96228571D02*
X170884819Y-96133333D01*
X170884819Y-96133333D02*
X170932438Y-95990476D01*
X170932438Y-95990476D02*
X170980057Y-95942857D01*
X170980057Y-95561904D02*
X170932438Y-95514285D01*
X170932438Y-95514285D02*
X170884819Y-95419047D01*
X170884819Y-95419047D02*
X170884819Y-95180952D01*
X170884819Y-95180952D02*
X170932438Y-95085714D01*
X170932438Y-95085714D02*
X170980057Y-95038095D01*
X170980057Y-95038095D02*
X171075295Y-94990476D01*
X171075295Y-94990476D02*
X171170533Y-94990476D01*
X171170533Y-94990476D02*
X171313390Y-95038095D01*
X171313390Y-95038095D02*
X171884819Y-95609523D01*
X171884819Y-95609523D02*
X171884819Y-94990476D01*
X170884819Y-94085714D02*
X170884819Y-94561904D01*
X170884819Y-94561904D02*
X171361009Y-94609523D01*
X171361009Y-94609523D02*
X171313390Y-94561904D01*
X171313390Y-94561904D02*
X171265771Y-94466666D01*
X171265771Y-94466666D02*
X171265771Y-94228571D01*
X171265771Y-94228571D02*
X171313390Y-94133333D01*
X171313390Y-94133333D02*
X171361009Y-94085714D01*
X171361009Y-94085714D02*
X171456247Y-94038095D01*
X171456247Y-94038095D02*
X171694342Y-94038095D01*
X171694342Y-94038095D02*
X171789580Y-94085714D01*
X171789580Y-94085714D02*
X171837200Y-94133333D01*
X171837200Y-94133333D02*
X171884819Y-94228571D01*
X171884819Y-94228571D02*
X171884819Y-94466666D01*
X171884819Y-94466666D02*
X171837200Y-94561904D01*
X171837200Y-94561904D02*
X171789580Y-94609523D01*
X200254761Y-77686057D02*
X200159523Y-77638438D01*
X200159523Y-77638438D02*
X200064285Y-77543200D01*
X200064285Y-77543200D02*
X199921428Y-77400342D01*
X199921428Y-77400342D02*
X199826190Y-77352723D01*
X199826190Y-77352723D02*
X199730952Y-77352723D01*
X199778571Y-77590819D02*
X199683333Y-77543200D01*
X199683333Y-77543200D02*
X199588095Y-77447961D01*
X199588095Y-77447961D02*
X199540476Y-77257485D01*
X199540476Y-77257485D02*
X199540476Y-76924152D01*
X199540476Y-76924152D02*
X199588095Y-76733676D01*
X199588095Y-76733676D02*
X199683333Y-76638438D01*
X199683333Y-76638438D02*
X199778571Y-76590819D01*
X199778571Y-76590819D02*
X199969047Y-76590819D01*
X199969047Y-76590819D02*
X200064285Y-76638438D01*
X200064285Y-76638438D02*
X200159523Y-76733676D01*
X200159523Y-76733676D02*
X200207142Y-76924152D01*
X200207142Y-76924152D02*
X200207142Y-77257485D01*
X200207142Y-77257485D02*
X200159523Y-77447961D01*
X200159523Y-77447961D02*
X200064285Y-77543200D01*
X200064285Y-77543200D02*
X199969047Y-77590819D01*
X199969047Y-77590819D02*
X199778571Y-77590819D01*
X201159523Y-77590819D02*
X200588095Y-77590819D01*
X200873809Y-77590819D02*
X200873809Y-76590819D01*
X200873809Y-76590819D02*
X200778571Y-76733676D01*
X200778571Y-76733676D02*
X200683333Y-76828914D01*
X200683333Y-76828914D02*
X200588095Y-76876533D01*
X219154819Y-77766666D02*
X218678628Y-78099999D01*
X219154819Y-78338094D02*
X218154819Y-78338094D01*
X218154819Y-78338094D02*
X218154819Y-77957142D01*
X218154819Y-77957142D02*
X218202438Y-77861904D01*
X218202438Y-77861904D02*
X218250057Y-77814285D01*
X218250057Y-77814285D02*
X218345295Y-77766666D01*
X218345295Y-77766666D02*
X218488152Y-77766666D01*
X218488152Y-77766666D02*
X218583390Y-77814285D01*
X218583390Y-77814285D02*
X218631009Y-77861904D01*
X218631009Y-77861904D02*
X218678628Y-77957142D01*
X218678628Y-77957142D02*
X218678628Y-78338094D01*
X219154819Y-77290475D02*
X219154819Y-77099999D01*
X219154819Y-77099999D02*
X219107200Y-77004761D01*
X219107200Y-77004761D02*
X219059580Y-76957142D01*
X219059580Y-76957142D02*
X218916723Y-76861904D01*
X218916723Y-76861904D02*
X218726247Y-76814285D01*
X218726247Y-76814285D02*
X218345295Y-76814285D01*
X218345295Y-76814285D02*
X218250057Y-76861904D01*
X218250057Y-76861904D02*
X218202438Y-76909523D01*
X218202438Y-76909523D02*
X218154819Y-77004761D01*
X218154819Y-77004761D02*
X218154819Y-77195237D01*
X218154819Y-77195237D02*
X218202438Y-77290475D01*
X218202438Y-77290475D02*
X218250057Y-77338094D01*
X218250057Y-77338094D02*
X218345295Y-77385713D01*
X218345295Y-77385713D02*
X218583390Y-77385713D01*
X218583390Y-77385713D02*
X218678628Y-77338094D01*
X218678628Y-77338094D02*
X218726247Y-77290475D01*
X218726247Y-77290475D02*
X218773866Y-77195237D01*
X218773866Y-77195237D02*
X218773866Y-77004761D01*
X218773866Y-77004761D02*
X218726247Y-76909523D01*
X218726247Y-76909523D02*
X218678628Y-76861904D01*
X218678628Y-76861904D02*
X218583390Y-76814285D01*
X196157142Y-80654819D02*
X195823809Y-80178628D01*
X195585714Y-80654819D02*
X195585714Y-79654819D01*
X195585714Y-79654819D02*
X195966666Y-79654819D01*
X195966666Y-79654819D02*
X196061904Y-79702438D01*
X196061904Y-79702438D02*
X196109523Y-79750057D01*
X196109523Y-79750057D02*
X196157142Y-79845295D01*
X196157142Y-79845295D02*
X196157142Y-79988152D01*
X196157142Y-79988152D02*
X196109523Y-80083390D01*
X196109523Y-80083390D02*
X196061904Y-80131009D01*
X196061904Y-80131009D02*
X195966666Y-80178628D01*
X195966666Y-80178628D02*
X195585714Y-80178628D01*
X197109523Y-80654819D02*
X196538095Y-80654819D01*
X196823809Y-80654819D02*
X196823809Y-79654819D01*
X196823809Y-79654819D02*
X196728571Y-79797676D01*
X196728571Y-79797676D02*
X196633333Y-79892914D01*
X196633333Y-79892914D02*
X196538095Y-79940533D01*
X197966666Y-79988152D02*
X197966666Y-80654819D01*
X197728571Y-79607200D02*
X197490476Y-80321485D01*
X197490476Y-80321485D02*
X198109523Y-80321485D01*
X181057142Y-86954819D02*
X180723809Y-86478628D01*
X180485714Y-86954819D02*
X180485714Y-85954819D01*
X180485714Y-85954819D02*
X180866666Y-85954819D01*
X180866666Y-85954819D02*
X180961904Y-86002438D01*
X180961904Y-86002438D02*
X181009523Y-86050057D01*
X181009523Y-86050057D02*
X181057142Y-86145295D01*
X181057142Y-86145295D02*
X181057142Y-86288152D01*
X181057142Y-86288152D02*
X181009523Y-86383390D01*
X181009523Y-86383390D02*
X180961904Y-86431009D01*
X180961904Y-86431009D02*
X180866666Y-86478628D01*
X180866666Y-86478628D02*
X180485714Y-86478628D01*
X181438095Y-86050057D02*
X181485714Y-86002438D01*
X181485714Y-86002438D02*
X181580952Y-85954819D01*
X181580952Y-85954819D02*
X181819047Y-85954819D01*
X181819047Y-85954819D02*
X181914285Y-86002438D01*
X181914285Y-86002438D02*
X181961904Y-86050057D01*
X181961904Y-86050057D02*
X182009523Y-86145295D01*
X182009523Y-86145295D02*
X182009523Y-86240533D01*
X182009523Y-86240533D02*
X181961904Y-86383390D01*
X181961904Y-86383390D02*
X181390476Y-86954819D01*
X181390476Y-86954819D02*
X182009523Y-86954819D01*
X182866666Y-86288152D02*
X182866666Y-86954819D01*
X182628571Y-85907200D02*
X182390476Y-86621485D01*
X182390476Y-86621485D02*
X183009523Y-86621485D01*
X207870833Y-64604819D02*
X207537500Y-64128628D01*
X207299405Y-64604819D02*
X207299405Y-63604819D01*
X207299405Y-63604819D02*
X207680357Y-63604819D01*
X207680357Y-63604819D02*
X207775595Y-63652438D01*
X207775595Y-63652438D02*
X207823214Y-63700057D01*
X207823214Y-63700057D02*
X207870833Y-63795295D01*
X207870833Y-63795295D02*
X207870833Y-63938152D01*
X207870833Y-63938152D02*
X207823214Y-64033390D01*
X207823214Y-64033390D02*
X207775595Y-64081009D01*
X207775595Y-64081009D02*
X207680357Y-64128628D01*
X207680357Y-64128628D02*
X207299405Y-64128628D01*
X208727976Y-63604819D02*
X208537500Y-63604819D01*
X208537500Y-63604819D02*
X208442262Y-63652438D01*
X208442262Y-63652438D02*
X208394643Y-63700057D01*
X208394643Y-63700057D02*
X208299405Y-63842914D01*
X208299405Y-63842914D02*
X208251786Y-64033390D01*
X208251786Y-64033390D02*
X208251786Y-64414342D01*
X208251786Y-64414342D02*
X208299405Y-64509580D01*
X208299405Y-64509580D02*
X208347024Y-64557200D01*
X208347024Y-64557200D02*
X208442262Y-64604819D01*
X208442262Y-64604819D02*
X208632738Y-64604819D01*
X208632738Y-64604819D02*
X208727976Y-64557200D01*
X208727976Y-64557200D02*
X208775595Y-64509580D01*
X208775595Y-64509580D02*
X208823214Y-64414342D01*
X208823214Y-64414342D02*
X208823214Y-64176247D01*
X208823214Y-64176247D02*
X208775595Y-64081009D01*
X208775595Y-64081009D02*
X208727976Y-64033390D01*
X208727976Y-64033390D02*
X208632738Y-63985771D01*
X208632738Y-63985771D02*
X208442262Y-63985771D01*
X208442262Y-63985771D02*
X208347024Y-64033390D01*
X208347024Y-64033390D02*
X208299405Y-64081009D01*
X208299405Y-64081009D02*
X208251786Y-64176247D01*
X209620833Y-77554819D02*
X209287500Y-77078628D01*
X209049405Y-77554819D02*
X209049405Y-76554819D01*
X209049405Y-76554819D02*
X209430357Y-76554819D01*
X209430357Y-76554819D02*
X209525595Y-76602438D01*
X209525595Y-76602438D02*
X209573214Y-76650057D01*
X209573214Y-76650057D02*
X209620833Y-76745295D01*
X209620833Y-76745295D02*
X209620833Y-76888152D01*
X209620833Y-76888152D02*
X209573214Y-76983390D01*
X209573214Y-76983390D02*
X209525595Y-77031009D01*
X209525595Y-77031009D02*
X209430357Y-77078628D01*
X209430357Y-77078628D02*
X209049405Y-77078628D01*
X210477976Y-76888152D02*
X210477976Y-77554819D01*
X210239881Y-76507200D02*
X210001786Y-77221485D01*
X210001786Y-77221485D02*
X210620833Y-77221485D01*
X203183333Y-77354819D02*
X202850000Y-76878628D01*
X202611905Y-77354819D02*
X202611905Y-76354819D01*
X202611905Y-76354819D02*
X202992857Y-76354819D01*
X202992857Y-76354819D02*
X203088095Y-76402438D01*
X203088095Y-76402438D02*
X203135714Y-76450057D01*
X203135714Y-76450057D02*
X203183333Y-76545295D01*
X203183333Y-76545295D02*
X203183333Y-76688152D01*
X203183333Y-76688152D02*
X203135714Y-76783390D01*
X203135714Y-76783390D02*
X203088095Y-76831009D01*
X203088095Y-76831009D02*
X202992857Y-76878628D01*
X202992857Y-76878628D02*
X202611905Y-76878628D01*
X203516667Y-76354819D02*
X204135714Y-76354819D01*
X204135714Y-76354819D02*
X203802381Y-76735771D01*
X203802381Y-76735771D02*
X203945238Y-76735771D01*
X203945238Y-76735771D02*
X204040476Y-76783390D01*
X204040476Y-76783390D02*
X204088095Y-76831009D01*
X204088095Y-76831009D02*
X204135714Y-76926247D01*
X204135714Y-76926247D02*
X204135714Y-77164342D01*
X204135714Y-77164342D02*
X204088095Y-77259580D01*
X204088095Y-77259580D02*
X204040476Y-77307200D01*
X204040476Y-77307200D02*
X203945238Y-77354819D01*
X203945238Y-77354819D02*
X203659524Y-77354819D01*
X203659524Y-77354819D02*
X203564286Y-77307200D01*
X203564286Y-77307200D02*
X203516667Y-77259580D01*
X219104819Y-69916666D02*
X218628628Y-70249999D01*
X219104819Y-70488094D02*
X218104819Y-70488094D01*
X218104819Y-70488094D02*
X218104819Y-70107142D01*
X218104819Y-70107142D02*
X218152438Y-70011904D01*
X218152438Y-70011904D02*
X218200057Y-69964285D01*
X218200057Y-69964285D02*
X218295295Y-69916666D01*
X218295295Y-69916666D02*
X218438152Y-69916666D01*
X218438152Y-69916666D02*
X218533390Y-69964285D01*
X218533390Y-69964285D02*
X218581009Y-70011904D01*
X218581009Y-70011904D02*
X218628628Y-70107142D01*
X218628628Y-70107142D02*
X218628628Y-70488094D01*
X218533390Y-69345237D02*
X218485771Y-69440475D01*
X218485771Y-69440475D02*
X218438152Y-69488094D01*
X218438152Y-69488094D02*
X218342914Y-69535713D01*
X218342914Y-69535713D02*
X218295295Y-69535713D01*
X218295295Y-69535713D02*
X218200057Y-69488094D01*
X218200057Y-69488094D02*
X218152438Y-69440475D01*
X218152438Y-69440475D02*
X218104819Y-69345237D01*
X218104819Y-69345237D02*
X218104819Y-69154761D01*
X218104819Y-69154761D02*
X218152438Y-69059523D01*
X218152438Y-69059523D02*
X218200057Y-69011904D01*
X218200057Y-69011904D02*
X218295295Y-68964285D01*
X218295295Y-68964285D02*
X218342914Y-68964285D01*
X218342914Y-68964285D02*
X218438152Y-69011904D01*
X218438152Y-69011904D02*
X218485771Y-69059523D01*
X218485771Y-69059523D02*
X218533390Y-69154761D01*
X218533390Y-69154761D02*
X218533390Y-69345237D01*
X218533390Y-69345237D02*
X218581009Y-69440475D01*
X218581009Y-69440475D02*
X218628628Y-69488094D01*
X218628628Y-69488094D02*
X218723866Y-69535713D01*
X218723866Y-69535713D02*
X218914342Y-69535713D01*
X218914342Y-69535713D02*
X219009580Y-69488094D01*
X219009580Y-69488094D02*
X219057200Y-69440475D01*
X219057200Y-69440475D02*
X219104819Y-69345237D01*
X219104819Y-69345237D02*
X219104819Y-69154761D01*
X219104819Y-69154761D02*
X219057200Y-69059523D01*
X219057200Y-69059523D02*
X219009580Y-69011904D01*
X219009580Y-69011904D02*
X218914342Y-68964285D01*
X218914342Y-68964285D02*
X218723866Y-68964285D01*
X218723866Y-68964285D02*
X218628628Y-69011904D01*
X218628628Y-69011904D02*
X218581009Y-69059523D01*
X218581009Y-69059523D02*
X218533390Y-69154761D01*
X202338095Y-100054819D02*
X202909523Y-100054819D01*
X202623809Y-101054819D02*
X202623809Y-100054819D01*
X203242857Y-101054819D02*
X203242857Y-100054819D01*
X203242857Y-100054819D02*
X203623809Y-100054819D01*
X203623809Y-100054819D02*
X203719047Y-100102438D01*
X203719047Y-100102438D02*
X203766666Y-100150057D01*
X203766666Y-100150057D02*
X203814285Y-100245295D01*
X203814285Y-100245295D02*
X203814285Y-100388152D01*
X203814285Y-100388152D02*
X203766666Y-100483390D01*
X203766666Y-100483390D02*
X203719047Y-100531009D01*
X203719047Y-100531009D02*
X203623809Y-100578628D01*
X203623809Y-100578628D02*
X203242857Y-100578628D01*
X204147619Y-100054819D02*
X204766666Y-100054819D01*
X204766666Y-100054819D02*
X204433333Y-100435771D01*
X204433333Y-100435771D02*
X204576190Y-100435771D01*
X204576190Y-100435771D02*
X204671428Y-100483390D01*
X204671428Y-100483390D02*
X204719047Y-100531009D01*
X204719047Y-100531009D02*
X204766666Y-100626247D01*
X204766666Y-100626247D02*
X204766666Y-100864342D01*
X204766666Y-100864342D02*
X204719047Y-100959580D01*
X204719047Y-100959580D02*
X204671428Y-101007200D01*
X204671428Y-101007200D02*
X204576190Y-101054819D01*
X204576190Y-101054819D02*
X204290476Y-101054819D01*
X204290476Y-101054819D02*
X204195238Y-101007200D01*
X204195238Y-101007200D02*
X204147619Y-100959580D01*
X193559580Y-84592857D02*
X193607200Y-84640476D01*
X193607200Y-84640476D02*
X193654819Y-84783333D01*
X193654819Y-84783333D02*
X193654819Y-84878571D01*
X193654819Y-84878571D02*
X193607200Y-85021428D01*
X193607200Y-85021428D02*
X193511961Y-85116666D01*
X193511961Y-85116666D02*
X193416723Y-85164285D01*
X193416723Y-85164285D02*
X193226247Y-85211904D01*
X193226247Y-85211904D02*
X193083390Y-85211904D01*
X193083390Y-85211904D02*
X192892914Y-85164285D01*
X192892914Y-85164285D02*
X192797676Y-85116666D01*
X192797676Y-85116666D02*
X192702438Y-85021428D01*
X192702438Y-85021428D02*
X192654819Y-84878571D01*
X192654819Y-84878571D02*
X192654819Y-84783333D01*
X192654819Y-84783333D02*
X192702438Y-84640476D01*
X192702438Y-84640476D02*
X192750057Y-84592857D01*
X192750057Y-84211904D02*
X192702438Y-84164285D01*
X192702438Y-84164285D02*
X192654819Y-84069047D01*
X192654819Y-84069047D02*
X192654819Y-83830952D01*
X192654819Y-83830952D02*
X192702438Y-83735714D01*
X192702438Y-83735714D02*
X192750057Y-83688095D01*
X192750057Y-83688095D02*
X192845295Y-83640476D01*
X192845295Y-83640476D02*
X192940533Y-83640476D01*
X192940533Y-83640476D02*
X193083390Y-83688095D01*
X193083390Y-83688095D02*
X193654819Y-84259523D01*
X193654819Y-84259523D02*
X193654819Y-83640476D01*
X192750057Y-83259523D02*
X192702438Y-83211904D01*
X192702438Y-83211904D02*
X192654819Y-83116666D01*
X192654819Y-83116666D02*
X192654819Y-82878571D01*
X192654819Y-82878571D02*
X192702438Y-82783333D01*
X192702438Y-82783333D02*
X192750057Y-82735714D01*
X192750057Y-82735714D02*
X192845295Y-82688095D01*
X192845295Y-82688095D02*
X192940533Y-82688095D01*
X192940533Y-82688095D02*
X193083390Y-82735714D01*
X193083390Y-82735714D02*
X193654819Y-83307142D01*
X193654819Y-83307142D02*
X193654819Y-82688095D01*
X198757142Y-89304819D02*
X198423809Y-88828628D01*
X198185714Y-89304819D02*
X198185714Y-88304819D01*
X198185714Y-88304819D02*
X198566666Y-88304819D01*
X198566666Y-88304819D02*
X198661904Y-88352438D01*
X198661904Y-88352438D02*
X198709523Y-88400057D01*
X198709523Y-88400057D02*
X198757142Y-88495295D01*
X198757142Y-88495295D02*
X198757142Y-88638152D01*
X198757142Y-88638152D02*
X198709523Y-88733390D01*
X198709523Y-88733390D02*
X198661904Y-88781009D01*
X198661904Y-88781009D02*
X198566666Y-88828628D01*
X198566666Y-88828628D02*
X198185714Y-88828628D01*
X199138095Y-88400057D02*
X199185714Y-88352438D01*
X199185714Y-88352438D02*
X199280952Y-88304819D01*
X199280952Y-88304819D02*
X199519047Y-88304819D01*
X199519047Y-88304819D02*
X199614285Y-88352438D01*
X199614285Y-88352438D02*
X199661904Y-88400057D01*
X199661904Y-88400057D02*
X199709523Y-88495295D01*
X199709523Y-88495295D02*
X199709523Y-88590533D01*
X199709523Y-88590533D02*
X199661904Y-88733390D01*
X199661904Y-88733390D02*
X199090476Y-89304819D01*
X199090476Y-89304819D02*
X199709523Y-89304819D01*
X200661904Y-89304819D02*
X200090476Y-89304819D01*
X200376190Y-89304819D02*
X200376190Y-88304819D01*
X200376190Y-88304819D02*
X200280952Y-88447676D01*
X200280952Y-88447676D02*
X200185714Y-88542914D01*
X200185714Y-88542914D02*
X200090476Y-88590533D01*
X171707142Y-106167319D02*
X171373809Y-105691128D01*
X171135714Y-106167319D02*
X171135714Y-105167319D01*
X171135714Y-105167319D02*
X171516666Y-105167319D01*
X171516666Y-105167319D02*
X171611904Y-105214938D01*
X171611904Y-105214938D02*
X171659523Y-105262557D01*
X171659523Y-105262557D02*
X171707142Y-105357795D01*
X171707142Y-105357795D02*
X171707142Y-105500652D01*
X171707142Y-105500652D02*
X171659523Y-105595890D01*
X171659523Y-105595890D02*
X171611904Y-105643509D01*
X171611904Y-105643509D02*
X171516666Y-105691128D01*
X171516666Y-105691128D02*
X171135714Y-105691128D01*
X172040476Y-105167319D02*
X172659523Y-105167319D01*
X172659523Y-105167319D02*
X172326190Y-105548271D01*
X172326190Y-105548271D02*
X172469047Y-105548271D01*
X172469047Y-105548271D02*
X172564285Y-105595890D01*
X172564285Y-105595890D02*
X172611904Y-105643509D01*
X172611904Y-105643509D02*
X172659523Y-105738747D01*
X172659523Y-105738747D02*
X172659523Y-105976842D01*
X172659523Y-105976842D02*
X172611904Y-106072080D01*
X172611904Y-106072080D02*
X172564285Y-106119700D01*
X172564285Y-106119700D02*
X172469047Y-106167319D01*
X172469047Y-106167319D02*
X172183333Y-106167319D01*
X172183333Y-106167319D02*
X172088095Y-106119700D01*
X172088095Y-106119700D02*
X172040476Y-106072080D01*
X173516666Y-105500652D02*
X173516666Y-106167319D01*
X173278571Y-105119700D02*
X173040476Y-105833985D01*
X173040476Y-105833985D02*
X173659523Y-105833985D01*
X210834580Y-108566666D02*
X210882200Y-108614285D01*
X210882200Y-108614285D02*
X210929819Y-108757142D01*
X210929819Y-108757142D02*
X210929819Y-108852380D01*
X210929819Y-108852380D02*
X210882200Y-108995237D01*
X210882200Y-108995237D02*
X210786961Y-109090475D01*
X210786961Y-109090475D02*
X210691723Y-109138094D01*
X210691723Y-109138094D02*
X210501247Y-109185713D01*
X210501247Y-109185713D02*
X210358390Y-109185713D01*
X210358390Y-109185713D02*
X210167914Y-109138094D01*
X210167914Y-109138094D02*
X210072676Y-109090475D01*
X210072676Y-109090475D02*
X209977438Y-108995237D01*
X209977438Y-108995237D02*
X209929819Y-108852380D01*
X209929819Y-108852380D02*
X209929819Y-108757142D01*
X209929819Y-108757142D02*
X209977438Y-108614285D01*
X209977438Y-108614285D02*
X210025057Y-108566666D01*
X209929819Y-107661904D02*
X209929819Y-108138094D01*
X209929819Y-108138094D02*
X210406009Y-108185713D01*
X210406009Y-108185713D02*
X210358390Y-108138094D01*
X210358390Y-108138094D02*
X210310771Y-108042856D01*
X210310771Y-108042856D02*
X210310771Y-107804761D01*
X210310771Y-107804761D02*
X210358390Y-107709523D01*
X210358390Y-107709523D02*
X210406009Y-107661904D01*
X210406009Y-107661904D02*
X210501247Y-107614285D01*
X210501247Y-107614285D02*
X210739342Y-107614285D01*
X210739342Y-107614285D02*
X210834580Y-107661904D01*
X210834580Y-107661904D02*
X210882200Y-107709523D01*
X210882200Y-107709523D02*
X210929819Y-107804761D01*
X210929819Y-107804761D02*
X210929819Y-108042856D01*
X210929819Y-108042856D02*
X210882200Y-108138094D01*
X210882200Y-108138094D02*
X210834580Y-108185713D01*
D13*
X186432380Y-108613842D02*
X186613809Y-108674318D01*
X186613809Y-108674318D02*
X186916190Y-108674318D01*
X186916190Y-108674318D02*
X187037142Y-108613842D01*
X187037142Y-108613842D02*
X187097618Y-108553365D01*
X187097618Y-108553365D02*
X187158095Y-108432413D01*
X187158095Y-108432413D02*
X187158095Y-108311461D01*
X187158095Y-108311461D02*
X187097618Y-108190508D01*
X187097618Y-108190508D02*
X187037142Y-108130032D01*
X187037142Y-108130032D02*
X186916190Y-108069556D01*
X186916190Y-108069556D02*
X186674285Y-108009080D01*
X186674285Y-108009080D02*
X186553333Y-107948603D01*
X186553333Y-107948603D02*
X186492856Y-107888127D01*
X186492856Y-107888127D02*
X186432380Y-107767175D01*
X186432380Y-107767175D02*
X186432380Y-107646222D01*
X186432380Y-107646222D02*
X186492856Y-107525270D01*
X186492856Y-107525270D02*
X186553333Y-107464794D01*
X186553333Y-107464794D02*
X186674285Y-107404318D01*
X186674285Y-107404318D02*
X186976666Y-107404318D01*
X186976666Y-107404318D02*
X187158095Y-107464794D01*
X188367619Y-108674318D02*
X187641904Y-108674318D01*
X188004761Y-108674318D02*
X188004761Y-107404318D01*
X188004761Y-107404318D02*
X187883809Y-107585746D01*
X187883809Y-107585746D02*
X187762857Y-107706699D01*
X187762857Y-107706699D02*
X187641904Y-107767175D01*
D12*
X186266666Y-87954819D02*
X186266666Y-88669104D01*
X186266666Y-88669104D02*
X186219047Y-88811961D01*
X186219047Y-88811961D02*
X186123809Y-88907200D01*
X186123809Y-88907200D02*
X185980952Y-88954819D01*
X185980952Y-88954819D02*
X185885714Y-88954819D01*
X187266666Y-88954819D02*
X186695238Y-88954819D01*
X186980952Y-88954819D02*
X186980952Y-87954819D01*
X186980952Y-87954819D02*
X186885714Y-88097676D01*
X186885714Y-88097676D02*
X186790476Y-88192914D01*
X186790476Y-88192914D02*
X186695238Y-88240533D01*
X198029819Y-59766666D02*
X197553628Y-60099999D01*
X198029819Y-60338094D02*
X197029819Y-60338094D01*
X197029819Y-60338094D02*
X197029819Y-59957142D01*
X197029819Y-59957142D02*
X197077438Y-59861904D01*
X197077438Y-59861904D02*
X197125057Y-59814285D01*
X197125057Y-59814285D02*
X197220295Y-59766666D01*
X197220295Y-59766666D02*
X197363152Y-59766666D01*
X197363152Y-59766666D02*
X197458390Y-59814285D01*
X197458390Y-59814285D02*
X197506009Y-59861904D01*
X197506009Y-59861904D02*
X197553628Y-59957142D01*
X197553628Y-59957142D02*
X197553628Y-60338094D01*
X197125057Y-59385713D02*
X197077438Y-59338094D01*
X197077438Y-59338094D02*
X197029819Y-59242856D01*
X197029819Y-59242856D02*
X197029819Y-59004761D01*
X197029819Y-59004761D02*
X197077438Y-58909523D01*
X197077438Y-58909523D02*
X197125057Y-58861904D01*
X197125057Y-58861904D02*
X197220295Y-58814285D01*
X197220295Y-58814285D02*
X197315533Y-58814285D01*
X197315533Y-58814285D02*
X197458390Y-58861904D01*
X197458390Y-58861904D02*
X198029819Y-59433332D01*
X198029819Y-59433332D02*
X198029819Y-58814285D01*
X202957142Y-104559580D02*
X202909523Y-104607200D01*
X202909523Y-104607200D02*
X202766666Y-104654819D01*
X202766666Y-104654819D02*
X202671428Y-104654819D01*
X202671428Y-104654819D02*
X202528571Y-104607200D01*
X202528571Y-104607200D02*
X202433333Y-104511961D01*
X202433333Y-104511961D02*
X202385714Y-104416723D01*
X202385714Y-104416723D02*
X202338095Y-104226247D01*
X202338095Y-104226247D02*
X202338095Y-104083390D01*
X202338095Y-104083390D02*
X202385714Y-103892914D01*
X202385714Y-103892914D02*
X202433333Y-103797676D01*
X202433333Y-103797676D02*
X202528571Y-103702438D01*
X202528571Y-103702438D02*
X202671428Y-103654819D01*
X202671428Y-103654819D02*
X202766666Y-103654819D01*
X202766666Y-103654819D02*
X202909523Y-103702438D01*
X202909523Y-103702438D02*
X202957142Y-103750057D01*
X203909523Y-104654819D02*
X203338095Y-104654819D01*
X203623809Y-104654819D02*
X203623809Y-103654819D01*
X203623809Y-103654819D02*
X203528571Y-103797676D01*
X203528571Y-103797676D02*
X203433333Y-103892914D01*
X203433333Y-103892914D02*
X203338095Y-103940533D01*
X204528571Y-103654819D02*
X204623809Y-103654819D01*
X204623809Y-103654819D02*
X204719047Y-103702438D01*
X204719047Y-103702438D02*
X204766666Y-103750057D01*
X204766666Y-103750057D02*
X204814285Y-103845295D01*
X204814285Y-103845295D02*
X204861904Y-104035771D01*
X204861904Y-104035771D02*
X204861904Y-104273866D01*
X204861904Y-104273866D02*
X204814285Y-104464342D01*
X204814285Y-104464342D02*
X204766666Y-104559580D01*
X204766666Y-104559580D02*
X204719047Y-104607200D01*
X204719047Y-104607200D02*
X204623809Y-104654819D01*
X204623809Y-104654819D02*
X204528571Y-104654819D01*
X204528571Y-104654819D02*
X204433333Y-104607200D01*
X204433333Y-104607200D02*
X204385714Y-104559580D01*
X204385714Y-104559580D02*
X204338095Y-104464342D01*
X204338095Y-104464342D02*
X204290476Y-104273866D01*
X204290476Y-104273866D02*
X204290476Y-104035771D01*
X204290476Y-104035771D02*
X204338095Y-103845295D01*
X204338095Y-103845295D02*
X204385714Y-103750057D01*
X204385714Y-103750057D02*
X204433333Y-103702438D01*
X204433333Y-103702438D02*
X204528571Y-103654819D01*
X204207142Y-89454819D02*
X203873809Y-88978628D01*
X203635714Y-89454819D02*
X203635714Y-88454819D01*
X203635714Y-88454819D02*
X204016666Y-88454819D01*
X204016666Y-88454819D02*
X204111904Y-88502438D01*
X204111904Y-88502438D02*
X204159523Y-88550057D01*
X204159523Y-88550057D02*
X204207142Y-88645295D01*
X204207142Y-88645295D02*
X204207142Y-88788152D01*
X204207142Y-88788152D02*
X204159523Y-88883390D01*
X204159523Y-88883390D02*
X204111904Y-88931009D01*
X204111904Y-88931009D02*
X204016666Y-88978628D01*
X204016666Y-88978628D02*
X203635714Y-88978628D01*
X205159523Y-89454819D02*
X204588095Y-89454819D01*
X204873809Y-89454819D02*
X204873809Y-88454819D01*
X204873809Y-88454819D02*
X204778571Y-88597676D01*
X204778571Y-88597676D02*
X204683333Y-88692914D01*
X204683333Y-88692914D02*
X204588095Y-88740533D01*
X205635714Y-89454819D02*
X205826190Y-89454819D01*
X205826190Y-89454819D02*
X205921428Y-89407200D01*
X205921428Y-89407200D02*
X205969047Y-89359580D01*
X205969047Y-89359580D02*
X206064285Y-89216723D01*
X206064285Y-89216723D02*
X206111904Y-89026247D01*
X206111904Y-89026247D02*
X206111904Y-88645295D01*
X206111904Y-88645295D02*
X206064285Y-88550057D01*
X206064285Y-88550057D02*
X206016666Y-88502438D01*
X206016666Y-88502438D02*
X205921428Y-88454819D01*
X205921428Y-88454819D02*
X205730952Y-88454819D01*
X205730952Y-88454819D02*
X205635714Y-88502438D01*
X205635714Y-88502438D02*
X205588095Y-88550057D01*
X205588095Y-88550057D02*
X205540476Y-88645295D01*
X205540476Y-88645295D02*
X205540476Y-88883390D01*
X205540476Y-88883390D02*
X205588095Y-88978628D01*
X205588095Y-88978628D02*
X205635714Y-89026247D01*
X205635714Y-89026247D02*
X205730952Y-89073866D01*
X205730952Y-89073866D02*
X205921428Y-89073866D01*
X205921428Y-89073866D02*
X206016666Y-89026247D01*
X206016666Y-89026247D02*
X206064285Y-88978628D01*
X206064285Y-88978628D02*
X206111904Y-88883390D01*
X212867319Y-59816666D02*
X212391128Y-60149999D01*
X212867319Y-60388094D02*
X211867319Y-60388094D01*
X211867319Y-60388094D02*
X211867319Y-60007142D01*
X211867319Y-60007142D02*
X211914938Y-59911904D01*
X211914938Y-59911904D02*
X211962557Y-59864285D01*
X211962557Y-59864285D02*
X212057795Y-59816666D01*
X212057795Y-59816666D02*
X212200652Y-59816666D01*
X212200652Y-59816666D02*
X212295890Y-59864285D01*
X212295890Y-59864285D02*
X212343509Y-59911904D01*
X212343509Y-59911904D02*
X212391128Y-60007142D01*
X212391128Y-60007142D02*
X212391128Y-60388094D01*
X212867319Y-58864285D02*
X212867319Y-59435713D01*
X212867319Y-59149999D02*
X211867319Y-59149999D01*
X211867319Y-59149999D02*
X212010176Y-59245237D01*
X212010176Y-59245237D02*
X212105414Y-59340475D01*
X212105414Y-59340475D02*
X212153033Y-59435713D01*
X163178628Y-98738690D02*
X163654819Y-98738690D01*
X162654819Y-99072023D02*
X163178628Y-98738690D01*
X163178628Y-98738690D02*
X162654819Y-98405357D01*
X163654819Y-97548214D02*
X163654819Y-98119642D01*
X163654819Y-97833928D02*
X162654819Y-97833928D01*
X162654819Y-97833928D02*
X162797676Y-97929166D01*
X162797676Y-97929166D02*
X162892914Y-98024404D01*
X162892914Y-98024404D02*
X162940533Y-98119642D01*
X214933333Y-115854819D02*
X214457143Y-115854819D01*
X214457143Y-115854819D02*
X214457143Y-114854819D01*
X215790476Y-115854819D02*
X215219048Y-115854819D01*
X215504762Y-115854819D02*
X215504762Y-114854819D01*
X215504762Y-114854819D02*
X215409524Y-114997676D01*
X215409524Y-114997676D02*
X215314286Y-115092914D01*
X215314286Y-115092914D02*
X215219048Y-115140533D01*
X195488095Y-53004819D02*
X196059523Y-53004819D01*
X195773809Y-54004819D02*
X195773809Y-53004819D01*
X196392857Y-54004819D02*
X196392857Y-53004819D01*
X196392857Y-53004819D02*
X196773809Y-53004819D01*
X196773809Y-53004819D02*
X196869047Y-53052438D01*
X196869047Y-53052438D02*
X196916666Y-53100057D01*
X196916666Y-53100057D02*
X196964285Y-53195295D01*
X196964285Y-53195295D02*
X196964285Y-53338152D01*
X196964285Y-53338152D02*
X196916666Y-53433390D01*
X196916666Y-53433390D02*
X196869047Y-53481009D01*
X196869047Y-53481009D02*
X196773809Y-53528628D01*
X196773809Y-53528628D02*
X196392857Y-53528628D01*
X197916666Y-54004819D02*
X197345238Y-54004819D01*
X197630952Y-54004819D02*
X197630952Y-53004819D01*
X197630952Y-53004819D02*
X197535714Y-53147676D01*
X197535714Y-53147676D02*
X197440476Y-53242914D01*
X197440476Y-53242914D02*
X197345238Y-53290533D01*
X134594819Y-86233333D02*
X135309104Y-86233333D01*
X135309104Y-86233333D02*
X135451961Y-86280952D01*
X135451961Y-86280952D02*
X135547200Y-86376190D01*
X135547200Y-86376190D02*
X135594819Y-86519047D01*
X135594819Y-86519047D02*
X135594819Y-86614285D01*
X134594819Y-85852380D02*
X134594819Y-85233333D01*
X134594819Y-85233333D02*
X134975771Y-85566666D01*
X134975771Y-85566666D02*
X134975771Y-85423809D01*
X134975771Y-85423809D02*
X135023390Y-85328571D01*
X135023390Y-85328571D02*
X135071009Y-85280952D01*
X135071009Y-85280952D02*
X135166247Y-85233333D01*
X135166247Y-85233333D02*
X135404342Y-85233333D01*
X135404342Y-85233333D02*
X135499580Y-85280952D01*
X135499580Y-85280952D02*
X135547200Y-85328571D01*
X135547200Y-85328571D02*
X135594819Y-85423809D01*
X135594819Y-85423809D02*
X135594819Y-85709523D01*
X135594819Y-85709523D02*
X135547200Y-85804761D01*
X135547200Y-85804761D02*
X135499580Y-85852380D01*
X143107142Y-115892080D02*
X143059523Y-115939700D01*
X143059523Y-115939700D02*
X142916666Y-115987319D01*
X142916666Y-115987319D02*
X142821428Y-115987319D01*
X142821428Y-115987319D02*
X142678571Y-115939700D01*
X142678571Y-115939700D02*
X142583333Y-115844461D01*
X142583333Y-115844461D02*
X142535714Y-115749223D01*
X142535714Y-115749223D02*
X142488095Y-115558747D01*
X142488095Y-115558747D02*
X142488095Y-115415890D01*
X142488095Y-115415890D02*
X142535714Y-115225414D01*
X142535714Y-115225414D02*
X142583333Y-115130176D01*
X142583333Y-115130176D02*
X142678571Y-115034938D01*
X142678571Y-115034938D02*
X142821428Y-114987319D01*
X142821428Y-114987319D02*
X142916666Y-114987319D01*
X142916666Y-114987319D02*
X143059523Y-115034938D01*
X143059523Y-115034938D02*
X143107142Y-115082557D01*
X143440476Y-114987319D02*
X144059523Y-114987319D01*
X144059523Y-114987319D02*
X143726190Y-115368271D01*
X143726190Y-115368271D02*
X143869047Y-115368271D01*
X143869047Y-115368271D02*
X143964285Y-115415890D01*
X143964285Y-115415890D02*
X144011904Y-115463509D01*
X144011904Y-115463509D02*
X144059523Y-115558747D01*
X144059523Y-115558747D02*
X144059523Y-115796842D01*
X144059523Y-115796842D02*
X144011904Y-115892080D01*
X144011904Y-115892080D02*
X143964285Y-115939700D01*
X143964285Y-115939700D02*
X143869047Y-115987319D01*
X143869047Y-115987319D02*
X143583333Y-115987319D01*
X143583333Y-115987319D02*
X143488095Y-115939700D01*
X143488095Y-115939700D02*
X143440476Y-115892080D01*
X145011904Y-115987319D02*
X144440476Y-115987319D01*
X144726190Y-115987319D02*
X144726190Y-114987319D01*
X144726190Y-114987319D02*
X144630952Y-115130176D01*
X144630952Y-115130176D02*
X144535714Y-115225414D01*
X144535714Y-115225414D02*
X144440476Y-115273033D01*
X140511905Y-103117319D02*
X140511905Y-102117319D01*
X140511905Y-102117319D02*
X140750000Y-102117319D01*
X140750000Y-102117319D02*
X140892857Y-102164938D01*
X140892857Y-102164938D02*
X140988095Y-102260176D01*
X140988095Y-102260176D02*
X141035714Y-102355414D01*
X141035714Y-102355414D02*
X141083333Y-102545890D01*
X141083333Y-102545890D02*
X141083333Y-102688747D01*
X141083333Y-102688747D02*
X141035714Y-102879223D01*
X141035714Y-102879223D02*
X140988095Y-102974461D01*
X140988095Y-102974461D02*
X140892857Y-103069700D01*
X140892857Y-103069700D02*
X140750000Y-103117319D01*
X140750000Y-103117319D02*
X140511905Y-103117319D01*
X141416667Y-102117319D02*
X142035714Y-102117319D01*
X142035714Y-102117319D02*
X141702381Y-102498271D01*
X141702381Y-102498271D02*
X141845238Y-102498271D01*
X141845238Y-102498271D02*
X141940476Y-102545890D01*
X141940476Y-102545890D02*
X141988095Y-102593509D01*
X141988095Y-102593509D02*
X142035714Y-102688747D01*
X142035714Y-102688747D02*
X142035714Y-102926842D01*
X142035714Y-102926842D02*
X141988095Y-103022080D01*
X141988095Y-103022080D02*
X141940476Y-103069700D01*
X141940476Y-103069700D02*
X141845238Y-103117319D01*
X141845238Y-103117319D02*
X141559524Y-103117319D01*
X141559524Y-103117319D02*
X141464286Y-103069700D01*
X141464286Y-103069700D02*
X141416667Y-103022080D01*
X132407142Y-106384580D02*
X132359523Y-106432200D01*
X132359523Y-106432200D02*
X132216666Y-106479819D01*
X132216666Y-106479819D02*
X132121428Y-106479819D01*
X132121428Y-106479819D02*
X131978571Y-106432200D01*
X131978571Y-106432200D02*
X131883333Y-106336961D01*
X131883333Y-106336961D02*
X131835714Y-106241723D01*
X131835714Y-106241723D02*
X131788095Y-106051247D01*
X131788095Y-106051247D02*
X131788095Y-105908390D01*
X131788095Y-105908390D02*
X131835714Y-105717914D01*
X131835714Y-105717914D02*
X131883333Y-105622676D01*
X131883333Y-105622676D02*
X131978571Y-105527438D01*
X131978571Y-105527438D02*
X132121428Y-105479819D01*
X132121428Y-105479819D02*
X132216666Y-105479819D01*
X132216666Y-105479819D02*
X132359523Y-105527438D01*
X132359523Y-105527438D02*
X132407142Y-105575057D01*
X132788095Y-105575057D02*
X132835714Y-105527438D01*
X132835714Y-105527438D02*
X132930952Y-105479819D01*
X132930952Y-105479819D02*
X133169047Y-105479819D01*
X133169047Y-105479819D02*
X133264285Y-105527438D01*
X133264285Y-105527438D02*
X133311904Y-105575057D01*
X133311904Y-105575057D02*
X133359523Y-105670295D01*
X133359523Y-105670295D02*
X133359523Y-105765533D01*
X133359523Y-105765533D02*
X133311904Y-105908390D01*
X133311904Y-105908390D02*
X132740476Y-106479819D01*
X132740476Y-106479819D02*
X133359523Y-106479819D01*
X134216666Y-105479819D02*
X134026190Y-105479819D01*
X134026190Y-105479819D02*
X133930952Y-105527438D01*
X133930952Y-105527438D02*
X133883333Y-105575057D01*
X133883333Y-105575057D02*
X133788095Y-105717914D01*
X133788095Y-105717914D02*
X133740476Y-105908390D01*
X133740476Y-105908390D02*
X133740476Y-106289342D01*
X133740476Y-106289342D02*
X133788095Y-106384580D01*
X133788095Y-106384580D02*
X133835714Y-106432200D01*
X133835714Y-106432200D02*
X133930952Y-106479819D01*
X133930952Y-106479819D02*
X134121428Y-106479819D01*
X134121428Y-106479819D02*
X134216666Y-106432200D01*
X134216666Y-106432200D02*
X134264285Y-106384580D01*
X134264285Y-106384580D02*
X134311904Y-106289342D01*
X134311904Y-106289342D02*
X134311904Y-106051247D01*
X134311904Y-106051247D02*
X134264285Y-105956009D01*
X134264285Y-105956009D02*
X134216666Y-105908390D01*
X134216666Y-105908390D02*
X134121428Y-105860771D01*
X134121428Y-105860771D02*
X133930952Y-105860771D01*
X133930952Y-105860771D02*
X133835714Y-105908390D01*
X133835714Y-105908390D02*
X133788095Y-105956009D01*
X133788095Y-105956009D02*
X133740476Y-106051247D01*
X220732200Y-99558332D02*
X220779819Y-99415475D01*
X220779819Y-99415475D02*
X220779819Y-99177380D01*
X220779819Y-99177380D02*
X220732200Y-99082142D01*
X220732200Y-99082142D02*
X220684580Y-99034523D01*
X220684580Y-99034523D02*
X220589342Y-98986904D01*
X220589342Y-98986904D02*
X220494104Y-98986904D01*
X220494104Y-98986904D02*
X220398866Y-99034523D01*
X220398866Y-99034523D02*
X220351247Y-99082142D01*
X220351247Y-99082142D02*
X220303628Y-99177380D01*
X220303628Y-99177380D02*
X220256009Y-99367856D01*
X220256009Y-99367856D02*
X220208390Y-99463094D01*
X220208390Y-99463094D02*
X220160771Y-99510713D01*
X220160771Y-99510713D02*
X220065533Y-99558332D01*
X220065533Y-99558332D02*
X219970295Y-99558332D01*
X219970295Y-99558332D02*
X219875057Y-99510713D01*
X219875057Y-99510713D02*
X219827438Y-99463094D01*
X219827438Y-99463094D02*
X219779819Y-99367856D01*
X219779819Y-99367856D02*
X219779819Y-99129761D01*
X219779819Y-99129761D02*
X219827438Y-98986904D01*
X219779819Y-98653570D02*
X220779819Y-98415475D01*
X220779819Y-98415475D02*
X220065533Y-98224999D01*
X220065533Y-98224999D02*
X220779819Y-98034523D01*
X220779819Y-98034523D02*
X219779819Y-97796428D01*
X220779819Y-96891666D02*
X220779819Y-97463094D01*
X220779819Y-97177380D02*
X219779819Y-97177380D01*
X219779819Y-97177380D02*
X219922676Y-97272618D01*
X219922676Y-97272618D02*
X220017914Y-97367856D01*
X220017914Y-97367856D02*
X220065533Y-97463094D01*
X168582142Y-115454819D02*
X168248809Y-114978628D01*
X168010714Y-115454819D02*
X168010714Y-114454819D01*
X168010714Y-114454819D02*
X168391666Y-114454819D01*
X168391666Y-114454819D02*
X168486904Y-114502438D01*
X168486904Y-114502438D02*
X168534523Y-114550057D01*
X168534523Y-114550057D02*
X168582142Y-114645295D01*
X168582142Y-114645295D02*
X168582142Y-114788152D01*
X168582142Y-114788152D02*
X168534523Y-114883390D01*
X168534523Y-114883390D02*
X168486904Y-114931009D01*
X168486904Y-114931009D02*
X168391666Y-114978628D01*
X168391666Y-114978628D02*
X168010714Y-114978628D01*
X168915476Y-114454819D02*
X169534523Y-114454819D01*
X169534523Y-114454819D02*
X169201190Y-114835771D01*
X169201190Y-114835771D02*
X169344047Y-114835771D01*
X169344047Y-114835771D02*
X169439285Y-114883390D01*
X169439285Y-114883390D02*
X169486904Y-114931009D01*
X169486904Y-114931009D02*
X169534523Y-115026247D01*
X169534523Y-115026247D02*
X169534523Y-115264342D01*
X169534523Y-115264342D02*
X169486904Y-115359580D01*
X169486904Y-115359580D02*
X169439285Y-115407200D01*
X169439285Y-115407200D02*
X169344047Y-115454819D01*
X169344047Y-115454819D02*
X169058333Y-115454819D01*
X169058333Y-115454819D02*
X168963095Y-115407200D01*
X168963095Y-115407200D02*
X168915476Y-115359580D01*
X170486904Y-115454819D02*
X169915476Y-115454819D01*
X170201190Y-115454819D02*
X170201190Y-114454819D01*
X170201190Y-114454819D02*
X170105952Y-114597676D01*
X170105952Y-114597676D02*
X170010714Y-114692914D01*
X170010714Y-114692914D02*
X169915476Y-114740533D01*
X198757142Y-104559580D02*
X198709523Y-104607200D01*
X198709523Y-104607200D02*
X198566666Y-104654819D01*
X198566666Y-104654819D02*
X198471428Y-104654819D01*
X198471428Y-104654819D02*
X198328571Y-104607200D01*
X198328571Y-104607200D02*
X198233333Y-104511961D01*
X198233333Y-104511961D02*
X198185714Y-104416723D01*
X198185714Y-104416723D02*
X198138095Y-104226247D01*
X198138095Y-104226247D02*
X198138095Y-104083390D01*
X198138095Y-104083390D02*
X198185714Y-103892914D01*
X198185714Y-103892914D02*
X198233333Y-103797676D01*
X198233333Y-103797676D02*
X198328571Y-103702438D01*
X198328571Y-103702438D02*
X198471428Y-103654819D01*
X198471428Y-103654819D02*
X198566666Y-103654819D01*
X198566666Y-103654819D02*
X198709523Y-103702438D01*
X198709523Y-103702438D02*
X198757142Y-103750057D01*
X199709523Y-104654819D02*
X199138095Y-104654819D01*
X199423809Y-104654819D02*
X199423809Y-103654819D01*
X199423809Y-103654819D02*
X199328571Y-103797676D01*
X199328571Y-103797676D02*
X199233333Y-103892914D01*
X199233333Y-103892914D02*
X199138095Y-103940533D01*
X200661904Y-104654819D02*
X200090476Y-104654819D01*
X200376190Y-104654819D02*
X200376190Y-103654819D01*
X200376190Y-103654819D02*
X200280952Y-103797676D01*
X200280952Y-103797676D02*
X200185714Y-103892914D01*
X200185714Y-103892914D02*
X200090476Y-103940533D01*
X219609580Y-108616666D02*
X219657200Y-108664285D01*
X219657200Y-108664285D02*
X219704819Y-108807142D01*
X219704819Y-108807142D02*
X219704819Y-108902380D01*
X219704819Y-108902380D02*
X219657200Y-109045237D01*
X219657200Y-109045237D02*
X219561961Y-109140475D01*
X219561961Y-109140475D02*
X219466723Y-109188094D01*
X219466723Y-109188094D02*
X219276247Y-109235713D01*
X219276247Y-109235713D02*
X219133390Y-109235713D01*
X219133390Y-109235713D02*
X218942914Y-109188094D01*
X218942914Y-109188094D02*
X218847676Y-109140475D01*
X218847676Y-109140475D02*
X218752438Y-109045237D01*
X218752438Y-109045237D02*
X218704819Y-108902380D01*
X218704819Y-108902380D02*
X218704819Y-108807142D01*
X218704819Y-108807142D02*
X218752438Y-108664285D01*
X218752438Y-108664285D02*
X218800057Y-108616666D01*
X219133390Y-108045237D02*
X219085771Y-108140475D01*
X219085771Y-108140475D02*
X219038152Y-108188094D01*
X219038152Y-108188094D02*
X218942914Y-108235713D01*
X218942914Y-108235713D02*
X218895295Y-108235713D01*
X218895295Y-108235713D02*
X218800057Y-108188094D01*
X218800057Y-108188094D02*
X218752438Y-108140475D01*
X218752438Y-108140475D02*
X218704819Y-108045237D01*
X218704819Y-108045237D02*
X218704819Y-107854761D01*
X218704819Y-107854761D02*
X218752438Y-107759523D01*
X218752438Y-107759523D02*
X218800057Y-107711904D01*
X218800057Y-107711904D02*
X218895295Y-107664285D01*
X218895295Y-107664285D02*
X218942914Y-107664285D01*
X218942914Y-107664285D02*
X219038152Y-107711904D01*
X219038152Y-107711904D02*
X219085771Y-107759523D01*
X219085771Y-107759523D02*
X219133390Y-107854761D01*
X219133390Y-107854761D02*
X219133390Y-108045237D01*
X219133390Y-108045237D02*
X219181009Y-108140475D01*
X219181009Y-108140475D02*
X219228628Y-108188094D01*
X219228628Y-108188094D02*
X219323866Y-108235713D01*
X219323866Y-108235713D02*
X219514342Y-108235713D01*
X219514342Y-108235713D02*
X219609580Y-108188094D01*
X219609580Y-108188094D02*
X219657200Y-108140475D01*
X219657200Y-108140475D02*
X219704819Y-108045237D01*
X219704819Y-108045237D02*
X219704819Y-107854761D01*
X219704819Y-107854761D02*
X219657200Y-107759523D01*
X219657200Y-107759523D02*
X219609580Y-107711904D01*
X219609580Y-107711904D02*
X219514342Y-107664285D01*
X219514342Y-107664285D02*
X219323866Y-107664285D01*
X219323866Y-107664285D02*
X219228628Y-107711904D01*
X219228628Y-107711904D02*
X219181009Y-107759523D01*
X219181009Y-107759523D02*
X219133390Y-107854761D01*
X191238095Y-97402819D02*
X191809523Y-97402819D01*
X191523809Y-98402819D02*
X191523809Y-97402819D01*
X192142857Y-98402819D02*
X192142857Y-97402819D01*
X192142857Y-97402819D02*
X192523809Y-97402819D01*
X192523809Y-97402819D02*
X192619047Y-97450438D01*
X192619047Y-97450438D02*
X192666666Y-97498057D01*
X192666666Y-97498057D02*
X192714285Y-97593295D01*
X192714285Y-97593295D02*
X192714285Y-97736152D01*
X192714285Y-97736152D02*
X192666666Y-97831390D01*
X192666666Y-97831390D02*
X192619047Y-97879009D01*
X192619047Y-97879009D02*
X192523809Y-97926628D01*
X192523809Y-97926628D02*
X192142857Y-97926628D01*
X193571428Y-97736152D02*
X193571428Y-98402819D01*
X193333333Y-97355200D02*
X193095238Y-98069485D01*
X193095238Y-98069485D02*
X193714285Y-98069485D01*
X208082142Y-83909580D02*
X208034523Y-83957200D01*
X208034523Y-83957200D02*
X207891666Y-84004819D01*
X207891666Y-84004819D02*
X207796428Y-84004819D01*
X207796428Y-84004819D02*
X207653571Y-83957200D01*
X207653571Y-83957200D02*
X207558333Y-83861961D01*
X207558333Y-83861961D02*
X207510714Y-83766723D01*
X207510714Y-83766723D02*
X207463095Y-83576247D01*
X207463095Y-83576247D02*
X207463095Y-83433390D01*
X207463095Y-83433390D02*
X207510714Y-83242914D01*
X207510714Y-83242914D02*
X207558333Y-83147676D01*
X207558333Y-83147676D02*
X207653571Y-83052438D01*
X207653571Y-83052438D02*
X207796428Y-83004819D01*
X207796428Y-83004819D02*
X207891666Y-83004819D01*
X207891666Y-83004819D02*
X208034523Y-83052438D01*
X208034523Y-83052438D02*
X208082142Y-83100057D01*
X209034523Y-84004819D02*
X208463095Y-84004819D01*
X208748809Y-84004819D02*
X208748809Y-83004819D01*
X208748809Y-83004819D02*
X208653571Y-83147676D01*
X208653571Y-83147676D02*
X208558333Y-83242914D01*
X208558333Y-83242914D02*
X208463095Y-83290533D01*
X209605952Y-83433390D02*
X209510714Y-83385771D01*
X209510714Y-83385771D02*
X209463095Y-83338152D01*
X209463095Y-83338152D02*
X209415476Y-83242914D01*
X209415476Y-83242914D02*
X209415476Y-83195295D01*
X209415476Y-83195295D02*
X209463095Y-83100057D01*
X209463095Y-83100057D02*
X209510714Y-83052438D01*
X209510714Y-83052438D02*
X209605952Y-83004819D01*
X209605952Y-83004819D02*
X209796428Y-83004819D01*
X209796428Y-83004819D02*
X209891666Y-83052438D01*
X209891666Y-83052438D02*
X209939285Y-83100057D01*
X209939285Y-83100057D02*
X209986904Y-83195295D01*
X209986904Y-83195295D02*
X209986904Y-83242914D01*
X209986904Y-83242914D02*
X209939285Y-83338152D01*
X209939285Y-83338152D02*
X209891666Y-83385771D01*
X209891666Y-83385771D02*
X209796428Y-83433390D01*
X209796428Y-83433390D02*
X209605952Y-83433390D01*
X209605952Y-83433390D02*
X209510714Y-83481009D01*
X209510714Y-83481009D02*
X209463095Y-83528628D01*
X209463095Y-83528628D02*
X209415476Y-83623866D01*
X209415476Y-83623866D02*
X209415476Y-83814342D01*
X209415476Y-83814342D02*
X209463095Y-83909580D01*
X209463095Y-83909580D02*
X209510714Y-83957200D01*
X209510714Y-83957200D02*
X209605952Y-84004819D01*
X209605952Y-84004819D02*
X209796428Y-84004819D01*
X209796428Y-84004819D02*
X209891666Y-83957200D01*
X209891666Y-83957200D02*
X209939285Y-83909580D01*
X209939285Y-83909580D02*
X209986904Y-83814342D01*
X209986904Y-83814342D02*
X209986904Y-83623866D01*
X209986904Y-83623866D02*
X209939285Y-83528628D01*
X209939285Y-83528628D02*
X209891666Y-83481009D01*
X209891666Y-83481009D02*
X209796428Y-83433390D01*
X216359580Y-101442857D02*
X216407200Y-101490476D01*
X216407200Y-101490476D02*
X216454819Y-101633333D01*
X216454819Y-101633333D02*
X216454819Y-101728571D01*
X216454819Y-101728571D02*
X216407200Y-101871428D01*
X216407200Y-101871428D02*
X216311961Y-101966666D01*
X216311961Y-101966666D02*
X216216723Y-102014285D01*
X216216723Y-102014285D02*
X216026247Y-102061904D01*
X216026247Y-102061904D02*
X215883390Y-102061904D01*
X215883390Y-102061904D02*
X215692914Y-102014285D01*
X215692914Y-102014285D02*
X215597676Y-101966666D01*
X215597676Y-101966666D02*
X215502438Y-101871428D01*
X215502438Y-101871428D02*
X215454819Y-101728571D01*
X215454819Y-101728571D02*
X215454819Y-101633333D01*
X215454819Y-101633333D02*
X215502438Y-101490476D01*
X215502438Y-101490476D02*
X215550057Y-101442857D01*
X216454819Y-100490476D02*
X216454819Y-101061904D01*
X216454819Y-100776190D02*
X215454819Y-100776190D01*
X215454819Y-100776190D02*
X215597676Y-100871428D01*
X215597676Y-100871428D02*
X215692914Y-100966666D01*
X215692914Y-100966666D02*
X215740533Y-101061904D01*
X215788152Y-99633333D02*
X216454819Y-99633333D01*
X215407200Y-99871428D02*
X216121485Y-100109523D01*
X216121485Y-100109523D02*
X216121485Y-99490476D01*
X207083333Y-72409580D02*
X207035714Y-72457200D01*
X207035714Y-72457200D02*
X206892857Y-72504819D01*
X206892857Y-72504819D02*
X206797619Y-72504819D01*
X206797619Y-72504819D02*
X206654762Y-72457200D01*
X206654762Y-72457200D02*
X206559524Y-72361961D01*
X206559524Y-72361961D02*
X206511905Y-72266723D01*
X206511905Y-72266723D02*
X206464286Y-72076247D01*
X206464286Y-72076247D02*
X206464286Y-71933390D01*
X206464286Y-71933390D02*
X206511905Y-71742914D01*
X206511905Y-71742914D02*
X206559524Y-71647676D01*
X206559524Y-71647676D02*
X206654762Y-71552438D01*
X206654762Y-71552438D02*
X206797619Y-71504819D01*
X206797619Y-71504819D02*
X206892857Y-71504819D01*
X206892857Y-71504819D02*
X207035714Y-71552438D01*
X207035714Y-71552438D02*
X207083333Y-71600057D01*
X207416667Y-71504819D02*
X208035714Y-71504819D01*
X208035714Y-71504819D02*
X207702381Y-71885771D01*
X207702381Y-71885771D02*
X207845238Y-71885771D01*
X207845238Y-71885771D02*
X207940476Y-71933390D01*
X207940476Y-71933390D02*
X207988095Y-71981009D01*
X207988095Y-71981009D02*
X208035714Y-72076247D01*
X208035714Y-72076247D02*
X208035714Y-72314342D01*
X208035714Y-72314342D02*
X207988095Y-72409580D01*
X207988095Y-72409580D02*
X207940476Y-72457200D01*
X207940476Y-72457200D02*
X207845238Y-72504819D01*
X207845238Y-72504819D02*
X207559524Y-72504819D01*
X207559524Y-72504819D02*
X207464286Y-72457200D01*
X207464286Y-72457200D02*
X207416667Y-72409580D01*
X196007142Y-95109580D02*
X195959523Y-95157200D01*
X195959523Y-95157200D02*
X195816666Y-95204819D01*
X195816666Y-95204819D02*
X195721428Y-95204819D01*
X195721428Y-95204819D02*
X195578571Y-95157200D01*
X195578571Y-95157200D02*
X195483333Y-95061961D01*
X195483333Y-95061961D02*
X195435714Y-94966723D01*
X195435714Y-94966723D02*
X195388095Y-94776247D01*
X195388095Y-94776247D02*
X195388095Y-94633390D01*
X195388095Y-94633390D02*
X195435714Y-94442914D01*
X195435714Y-94442914D02*
X195483333Y-94347676D01*
X195483333Y-94347676D02*
X195578571Y-94252438D01*
X195578571Y-94252438D02*
X195721428Y-94204819D01*
X195721428Y-94204819D02*
X195816666Y-94204819D01*
X195816666Y-94204819D02*
X195959523Y-94252438D01*
X195959523Y-94252438D02*
X196007142Y-94300057D01*
X196959523Y-95204819D02*
X196388095Y-95204819D01*
X196673809Y-95204819D02*
X196673809Y-94204819D01*
X196673809Y-94204819D02*
X196578571Y-94347676D01*
X196578571Y-94347676D02*
X196483333Y-94442914D01*
X196483333Y-94442914D02*
X196388095Y-94490533D01*
X197292857Y-94204819D02*
X197959523Y-94204819D01*
X197959523Y-94204819D02*
X197530952Y-95204819D01*
X219104819Y-66467857D02*
X218628628Y-66801190D01*
X219104819Y-67039285D02*
X218104819Y-67039285D01*
X218104819Y-67039285D02*
X218104819Y-66658333D01*
X218104819Y-66658333D02*
X218152438Y-66563095D01*
X218152438Y-66563095D02*
X218200057Y-66515476D01*
X218200057Y-66515476D02*
X218295295Y-66467857D01*
X218295295Y-66467857D02*
X218438152Y-66467857D01*
X218438152Y-66467857D02*
X218533390Y-66515476D01*
X218533390Y-66515476D02*
X218581009Y-66563095D01*
X218581009Y-66563095D02*
X218628628Y-66658333D01*
X218628628Y-66658333D02*
X218628628Y-67039285D01*
X219104819Y-65515476D02*
X219104819Y-66086904D01*
X219104819Y-65801190D02*
X218104819Y-65801190D01*
X218104819Y-65801190D02*
X218247676Y-65896428D01*
X218247676Y-65896428D02*
X218342914Y-65991666D01*
X218342914Y-65991666D02*
X218390533Y-66086904D01*
X218104819Y-64896428D02*
X218104819Y-64801190D01*
X218104819Y-64801190D02*
X218152438Y-64705952D01*
X218152438Y-64705952D02*
X218200057Y-64658333D01*
X218200057Y-64658333D02*
X218295295Y-64610714D01*
X218295295Y-64610714D02*
X218485771Y-64563095D01*
X218485771Y-64563095D02*
X218723866Y-64563095D01*
X218723866Y-64563095D02*
X218914342Y-64610714D01*
X218914342Y-64610714D02*
X219009580Y-64658333D01*
X219009580Y-64658333D02*
X219057200Y-64705952D01*
X219057200Y-64705952D02*
X219104819Y-64801190D01*
X219104819Y-64801190D02*
X219104819Y-64896428D01*
X219104819Y-64896428D02*
X219057200Y-64991666D01*
X219057200Y-64991666D02*
X219009580Y-65039285D01*
X219009580Y-65039285D02*
X218914342Y-65086904D01*
X218914342Y-65086904D02*
X218723866Y-65134523D01*
X218723866Y-65134523D02*
X218485771Y-65134523D01*
X218485771Y-65134523D02*
X218295295Y-65086904D01*
X218295295Y-65086904D02*
X218200057Y-65039285D01*
X218200057Y-65039285D02*
X218152438Y-64991666D01*
X218152438Y-64991666D02*
X218104819Y-64896428D01*
X167757142Y-92504819D02*
X167423809Y-92028628D01*
X167185714Y-92504819D02*
X167185714Y-91504819D01*
X167185714Y-91504819D02*
X167566666Y-91504819D01*
X167566666Y-91504819D02*
X167661904Y-91552438D01*
X167661904Y-91552438D02*
X167709523Y-91600057D01*
X167709523Y-91600057D02*
X167757142Y-91695295D01*
X167757142Y-91695295D02*
X167757142Y-91838152D01*
X167757142Y-91838152D02*
X167709523Y-91933390D01*
X167709523Y-91933390D02*
X167661904Y-91981009D01*
X167661904Y-91981009D02*
X167566666Y-92028628D01*
X167566666Y-92028628D02*
X167185714Y-92028628D01*
X168138095Y-91600057D02*
X168185714Y-91552438D01*
X168185714Y-91552438D02*
X168280952Y-91504819D01*
X168280952Y-91504819D02*
X168519047Y-91504819D01*
X168519047Y-91504819D02*
X168614285Y-91552438D01*
X168614285Y-91552438D02*
X168661904Y-91600057D01*
X168661904Y-91600057D02*
X168709523Y-91695295D01*
X168709523Y-91695295D02*
X168709523Y-91790533D01*
X168709523Y-91790533D02*
X168661904Y-91933390D01*
X168661904Y-91933390D02*
X168090476Y-92504819D01*
X168090476Y-92504819D02*
X168709523Y-92504819D01*
X169614285Y-91504819D02*
X169138095Y-91504819D01*
X169138095Y-91504819D02*
X169090476Y-91981009D01*
X169090476Y-91981009D02*
X169138095Y-91933390D01*
X169138095Y-91933390D02*
X169233333Y-91885771D01*
X169233333Y-91885771D02*
X169471428Y-91885771D01*
X169471428Y-91885771D02*
X169566666Y-91933390D01*
X169566666Y-91933390D02*
X169614285Y-91981009D01*
X169614285Y-91981009D02*
X169661904Y-92076247D01*
X169661904Y-92076247D02*
X169661904Y-92314342D01*
X169661904Y-92314342D02*
X169614285Y-92409580D01*
X169614285Y-92409580D02*
X169566666Y-92457200D01*
X169566666Y-92457200D02*
X169471428Y-92504819D01*
X169471428Y-92504819D02*
X169233333Y-92504819D01*
X169233333Y-92504819D02*
X169138095Y-92457200D01*
X169138095Y-92457200D02*
X169090476Y-92409580D01*
X146392142Y-115979819D02*
X146058809Y-115503628D01*
X145820714Y-115979819D02*
X145820714Y-114979819D01*
X145820714Y-114979819D02*
X146201666Y-114979819D01*
X146201666Y-114979819D02*
X146296904Y-115027438D01*
X146296904Y-115027438D02*
X146344523Y-115075057D01*
X146344523Y-115075057D02*
X146392142Y-115170295D01*
X146392142Y-115170295D02*
X146392142Y-115313152D01*
X146392142Y-115313152D02*
X146344523Y-115408390D01*
X146344523Y-115408390D02*
X146296904Y-115456009D01*
X146296904Y-115456009D02*
X146201666Y-115503628D01*
X146201666Y-115503628D02*
X145820714Y-115503628D01*
X146725476Y-114979819D02*
X147344523Y-114979819D01*
X147344523Y-114979819D02*
X147011190Y-115360771D01*
X147011190Y-115360771D02*
X147154047Y-115360771D01*
X147154047Y-115360771D02*
X147249285Y-115408390D01*
X147249285Y-115408390D02*
X147296904Y-115456009D01*
X147296904Y-115456009D02*
X147344523Y-115551247D01*
X147344523Y-115551247D02*
X147344523Y-115789342D01*
X147344523Y-115789342D02*
X147296904Y-115884580D01*
X147296904Y-115884580D02*
X147249285Y-115932200D01*
X147249285Y-115932200D02*
X147154047Y-115979819D01*
X147154047Y-115979819D02*
X146868333Y-115979819D01*
X146868333Y-115979819D02*
X146773095Y-115932200D01*
X146773095Y-115932200D02*
X146725476Y-115884580D01*
X147963571Y-114979819D02*
X148058809Y-114979819D01*
X148058809Y-114979819D02*
X148154047Y-115027438D01*
X148154047Y-115027438D02*
X148201666Y-115075057D01*
X148201666Y-115075057D02*
X148249285Y-115170295D01*
X148249285Y-115170295D02*
X148296904Y-115360771D01*
X148296904Y-115360771D02*
X148296904Y-115598866D01*
X148296904Y-115598866D02*
X148249285Y-115789342D01*
X148249285Y-115789342D02*
X148201666Y-115884580D01*
X148201666Y-115884580D02*
X148154047Y-115932200D01*
X148154047Y-115932200D02*
X148058809Y-115979819D01*
X148058809Y-115979819D02*
X147963571Y-115979819D01*
X147963571Y-115979819D02*
X147868333Y-115932200D01*
X147868333Y-115932200D02*
X147820714Y-115884580D01*
X147820714Y-115884580D02*
X147773095Y-115789342D01*
X147773095Y-115789342D02*
X147725476Y-115598866D01*
X147725476Y-115598866D02*
X147725476Y-115360771D01*
X147725476Y-115360771D02*
X147773095Y-115170295D01*
X147773095Y-115170295D02*
X147820714Y-115075057D01*
X147820714Y-115075057D02*
X147868333Y-115027438D01*
X147868333Y-115027438D02*
X147963571Y-114979819D01*
X202007142Y-99154819D02*
X201673809Y-98678628D01*
X201435714Y-99154819D02*
X201435714Y-98154819D01*
X201435714Y-98154819D02*
X201816666Y-98154819D01*
X201816666Y-98154819D02*
X201911904Y-98202438D01*
X201911904Y-98202438D02*
X201959523Y-98250057D01*
X201959523Y-98250057D02*
X202007142Y-98345295D01*
X202007142Y-98345295D02*
X202007142Y-98488152D01*
X202007142Y-98488152D02*
X201959523Y-98583390D01*
X201959523Y-98583390D02*
X201911904Y-98631009D01*
X201911904Y-98631009D02*
X201816666Y-98678628D01*
X201816666Y-98678628D02*
X201435714Y-98678628D01*
X202388095Y-98250057D02*
X202435714Y-98202438D01*
X202435714Y-98202438D02*
X202530952Y-98154819D01*
X202530952Y-98154819D02*
X202769047Y-98154819D01*
X202769047Y-98154819D02*
X202864285Y-98202438D01*
X202864285Y-98202438D02*
X202911904Y-98250057D01*
X202911904Y-98250057D02*
X202959523Y-98345295D01*
X202959523Y-98345295D02*
X202959523Y-98440533D01*
X202959523Y-98440533D02*
X202911904Y-98583390D01*
X202911904Y-98583390D02*
X202340476Y-99154819D01*
X202340476Y-99154819D02*
X202959523Y-99154819D01*
X203578571Y-98154819D02*
X203673809Y-98154819D01*
X203673809Y-98154819D02*
X203769047Y-98202438D01*
X203769047Y-98202438D02*
X203816666Y-98250057D01*
X203816666Y-98250057D02*
X203864285Y-98345295D01*
X203864285Y-98345295D02*
X203911904Y-98535771D01*
X203911904Y-98535771D02*
X203911904Y-98773866D01*
X203911904Y-98773866D02*
X203864285Y-98964342D01*
X203864285Y-98964342D02*
X203816666Y-99059580D01*
X203816666Y-99059580D02*
X203769047Y-99107200D01*
X203769047Y-99107200D02*
X203673809Y-99154819D01*
X203673809Y-99154819D02*
X203578571Y-99154819D01*
X203578571Y-99154819D02*
X203483333Y-99107200D01*
X203483333Y-99107200D02*
X203435714Y-99059580D01*
X203435714Y-99059580D02*
X203388095Y-98964342D01*
X203388095Y-98964342D02*
X203340476Y-98773866D01*
X203340476Y-98773866D02*
X203340476Y-98535771D01*
X203340476Y-98535771D02*
X203388095Y-98345295D01*
X203388095Y-98345295D02*
X203435714Y-98250057D01*
X203435714Y-98250057D02*
X203483333Y-98202438D01*
X203483333Y-98202438D02*
X203578571Y-98154819D01*
X221433333Y-110159580D02*
X221385714Y-110207200D01*
X221385714Y-110207200D02*
X221242857Y-110254819D01*
X221242857Y-110254819D02*
X221147619Y-110254819D01*
X221147619Y-110254819D02*
X221004762Y-110207200D01*
X221004762Y-110207200D02*
X220909524Y-110111961D01*
X220909524Y-110111961D02*
X220861905Y-110016723D01*
X220861905Y-110016723D02*
X220814286Y-109826247D01*
X220814286Y-109826247D02*
X220814286Y-109683390D01*
X220814286Y-109683390D02*
X220861905Y-109492914D01*
X220861905Y-109492914D02*
X220909524Y-109397676D01*
X220909524Y-109397676D02*
X221004762Y-109302438D01*
X221004762Y-109302438D02*
X221147619Y-109254819D01*
X221147619Y-109254819D02*
X221242857Y-109254819D01*
X221242857Y-109254819D02*
X221385714Y-109302438D01*
X221385714Y-109302438D02*
X221433333Y-109350057D01*
X221766667Y-109254819D02*
X222433333Y-109254819D01*
X222433333Y-109254819D02*
X222004762Y-110254819D01*
X210809580Y-86442857D02*
X210857200Y-86490476D01*
X210857200Y-86490476D02*
X210904819Y-86633333D01*
X210904819Y-86633333D02*
X210904819Y-86728571D01*
X210904819Y-86728571D02*
X210857200Y-86871428D01*
X210857200Y-86871428D02*
X210761961Y-86966666D01*
X210761961Y-86966666D02*
X210666723Y-87014285D01*
X210666723Y-87014285D02*
X210476247Y-87061904D01*
X210476247Y-87061904D02*
X210333390Y-87061904D01*
X210333390Y-87061904D02*
X210142914Y-87014285D01*
X210142914Y-87014285D02*
X210047676Y-86966666D01*
X210047676Y-86966666D02*
X209952438Y-86871428D01*
X209952438Y-86871428D02*
X209904819Y-86728571D01*
X209904819Y-86728571D02*
X209904819Y-86633333D01*
X209904819Y-86633333D02*
X209952438Y-86490476D01*
X209952438Y-86490476D02*
X210000057Y-86442857D01*
X210000057Y-86061904D02*
X209952438Y-86014285D01*
X209952438Y-86014285D02*
X209904819Y-85919047D01*
X209904819Y-85919047D02*
X209904819Y-85680952D01*
X209904819Y-85680952D02*
X209952438Y-85585714D01*
X209952438Y-85585714D02*
X210000057Y-85538095D01*
X210000057Y-85538095D02*
X210095295Y-85490476D01*
X210095295Y-85490476D02*
X210190533Y-85490476D01*
X210190533Y-85490476D02*
X210333390Y-85538095D01*
X210333390Y-85538095D02*
X210904819Y-86109523D01*
X210904819Y-86109523D02*
X210904819Y-85490476D01*
X210904819Y-84538095D02*
X210904819Y-85109523D01*
X210904819Y-84823809D02*
X209904819Y-84823809D01*
X209904819Y-84823809D02*
X210047676Y-84919047D01*
X210047676Y-84919047D02*
X210142914Y-85014285D01*
X210142914Y-85014285D02*
X210190533Y-85109523D01*
X201707142Y-84704819D02*
X201373809Y-84228628D01*
X201135714Y-84704819D02*
X201135714Y-83704819D01*
X201135714Y-83704819D02*
X201516666Y-83704819D01*
X201516666Y-83704819D02*
X201611904Y-83752438D01*
X201611904Y-83752438D02*
X201659523Y-83800057D01*
X201659523Y-83800057D02*
X201707142Y-83895295D01*
X201707142Y-83895295D02*
X201707142Y-84038152D01*
X201707142Y-84038152D02*
X201659523Y-84133390D01*
X201659523Y-84133390D02*
X201611904Y-84181009D01*
X201611904Y-84181009D02*
X201516666Y-84228628D01*
X201516666Y-84228628D02*
X201135714Y-84228628D01*
X202659523Y-84704819D02*
X202088095Y-84704819D01*
X202373809Y-84704819D02*
X202373809Y-83704819D01*
X202373809Y-83704819D02*
X202278571Y-83847676D01*
X202278571Y-83847676D02*
X202183333Y-83942914D01*
X202183333Y-83942914D02*
X202088095Y-83990533D01*
X202992857Y-83704819D02*
X203659523Y-83704819D01*
X203659523Y-83704819D02*
X203230952Y-84704819D01*
X148444642Y-92454819D02*
X148111309Y-91978628D01*
X147873214Y-92454819D02*
X147873214Y-91454819D01*
X147873214Y-91454819D02*
X148254166Y-91454819D01*
X148254166Y-91454819D02*
X148349404Y-91502438D01*
X148349404Y-91502438D02*
X148397023Y-91550057D01*
X148397023Y-91550057D02*
X148444642Y-91645295D01*
X148444642Y-91645295D02*
X148444642Y-91788152D01*
X148444642Y-91788152D02*
X148397023Y-91883390D01*
X148397023Y-91883390D02*
X148349404Y-91931009D01*
X148349404Y-91931009D02*
X148254166Y-91978628D01*
X148254166Y-91978628D02*
X147873214Y-91978628D01*
X148825595Y-91550057D02*
X148873214Y-91502438D01*
X148873214Y-91502438D02*
X148968452Y-91454819D01*
X148968452Y-91454819D02*
X149206547Y-91454819D01*
X149206547Y-91454819D02*
X149301785Y-91502438D01*
X149301785Y-91502438D02*
X149349404Y-91550057D01*
X149349404Y-91550057D02*
X149397023Y-91645295D01*
X149397023Y-91645295D02*
X149397023Y-91740533D01*
X149397023Y-91740533D02*
X149349404Y-91883390D01*
X149349404Y-91883390D02*
X148777976Y-92454819D01*
X148777976Y-92454819D02*
X149397023Y-92454819D01*
X149730357Y-91454819D02*
X150349404Y-91454819D01*
X150349404Y-91454819D02*
X150016071Y-91835771D01*
X150016071Y-91835771D02*
X150158928Y-91835771D01*
X150158928Y-91835771D02*
X150254166Y-91883390D01*
X150254166Y-91883390D02*
X150301785Y-91931009D01*
X150301785Y-91931009D02*
X150349404Y-92026247D01*
X150349404Y-92026247D02*
X150349404Y-92264342D01*
X150349404Y-92264342D02*
X150301785Y-92359580D01*
X150301785Y-92359580D02*
X150254166Y-92407200D01*
X150254166Y-92407200D02*
X150158928Y-92454819D01*
X150158928Y-92454819D02*
X149873214Y-92454819D01*
X149873214Y-92454819D02*
X149777976Y-92407200D01*
X149777976Y-92407200D02*
X149730357Y-92359580D01*
X164882142Y-106154819D02*
X164548809Y-105678628D01*
X164310714Y-106154819D02*
X164310714Y-105154819D01*
X164310714Y-105154819D02*
X164691666Y-105154819D01*
X164691666Y-105154819D02*
X164786904Y-105202438D01*
X164786904Y-105202438D02*
X164834523Y-105250057D01*
X164834523Y-105250057D02*
X164882142Y-105345295D01*
X164882142Y-105345295D02*
X164882142Y-105488152D01*
X164882142Y-105488152D02*
X164834523Y-105583390D01*
X164834523Y-105583390D02*
X164786904Y-105631009D01*
X164786904Y-105631009D02*
X164691666Y-105678628D01*
X164691666Y-105678628D02*
X164310714Y-105678628D01*
X165215476Y-105154819D02*
X165834523Y-105154819D01*
X165834523Y-105154819D02*
X165501190Y-105535771D01*
X165501190Y-105535771D02*
X165644047Y-105535771D01*
X165644047Y-105535771D02*
X165739285Y-105583390D01*
X165739285Y-105583390D02*
X165786904Y-105631009D01*
X165786904Y-105631009D02*
X165834523Y-105726247D01*
X165834523Y-105726247D02*
X165834523Y-105964342D01*
X165834523Y-105964342D02*
X165786904Y-106059580D01*
X165786904Y-106059580D02*
X165739285Y-106107200D01*
X165739285Y-106107200D02*
X165644047Y-106154819D01*
X165644047Y-106154819D02*
X165358333Y-106154819D01*
X165358333Y-106154819D02*
X165263095Y-106107200D01*
X165263095Y-106107200D02*
X165215476Y-106059580D01*
X166167857Y-105154819D02*
X166786904Y-105154819D01*
X166786904Y-105154819D02*
X166453571Y-105535771D01*
X166453571Y-105535771D02*
X166596428Y-105535771D01*
X166596428Y-105535771D02*
X166691666Y-105583390D01*
X166691666Y-105583390D02*
X166739285Y-105631009D01*
X166739285Y-105631009D02*
X166786904Y-105726247D01*
X166786904Y-105726247D02*
X166786904Y-105964342D01*
X166786904Y-105964342D02*
X166739285Y-106059580D01*
X166739285Y-106059580D02*
X166691666Y-106107200D01*
X166691666Y-106107200D02*
X166596428Y-106154819D01*
X166596428Y-106154819D02*
X166310714Y-106154819D01*
X166310714Y-106154819D02*
X166215476Y-106107200D01*
X166215476Y-106107200D02*
X166167857Y-106059580D01*
X144357142Y-101354819D02*
X144023809Y-100878628D01*
X143785714Y-101354819D02*
X143785714Y-100354819D01*
X143785714Y-100354819D02*
X144166666Y-100354819D01*
X144166666Y-100354819D02*
X144261904Y-100402438D01*
X144261904Y-100402438D02*
X144309523Y-100450057D01*
X144309523Y-100450057D02*
X144357142Y-100545295D01*
X144357142Y-100545295D02*
X144357142Y-100688152D01*
X144357142Y-100688152D02*
X144309523Y-100783390D01*
X144309523Y-100783390D02*
X144261904Y-100831009D01*
X144261904Y-100831009D02*
X144166666Y-100878628D01*
X144166666Y-100878628D02*
X143785714Y-100878628D01*
X144690476Y-100354819D02*
X145309523Y-100354819D01*
X145309523Y-100354819D02*
X144976190Y-100735771D01*
X144976190Y-100735771D02*
X145119047Y-100735771D01*
X145119047Y-100735771D02*
X145214285Y-100783390D01*
X145214285Y-100783390D02*
X145261904Y-100831009D01*
X145261904Y-100831009D02*
X145309523Y-100926247D01*
X145309523Y-100926247D02*
X145309523Y-101164342D01*
X145309523Y-101164342D02*
X145261904Y-101259580D01*
X145261904Y-101259580D02*
X145214285Y-101307200D01*
X145214285Y-101307200D02*
X145119047Y-101354819D01*
X145119047Y-101354819D02*
X144833333Y-101354819D01*
X144833333Y-101354819D02*
X144738095Y-101307200D01*
X144738095Y-101307200D02*
X144690476Y-101259580D01*
X146214285Y-100354819D02*
X145738095Y-100354819D01*
X145738095Y-100354819D02*
X145690476Y-100831009D01*
X145690476Y-100831009D02*
X145738095Y-100783390D01*
X145738095Y-100783390D02*
X145833333Y-100735771D01*
X145833333Y-100735771D02*
X146071428Y-100735771D01*
X146071428Y-100735771D02*
X146166666Y-100783390D01*
X146166666Y-100783390D02*
X146214285Y-100831009D01*
X146214285Y-100831009D02*
X146261904Y-100926247D01*
X146261904Y-100926247D02*
X146261904Y-101164342D01*
X146261904Y-101164342D02*
X146214285Y-101259580D01*
X146214285Y-101259580D02*
X146166666Y-101307200D01*
X146166666Y-101307200D02*
X146071428Y-101354819D01*
X146071428Y-101354819D02*
X145833333Y-101354819D01*
X145833333Y-101354819D02*
X145738095Y-101307200D01*
X145738095Y-101307200D02*
X145690476Y-101259580D01*
X200259580Y-63742857D02*
X200307200Y-63790476D01*
X200307200Y-63790476D02*
X200354819Y-63933333D01*
X200354819Y-63933333D02*
X200354819Y-64028571D01*
X200354819Y-64028571D02*
X200307200Y-64171428D01*
X200307200Y-64171428D02*
X200211961Y-64266666D01*
X200211961Y-64266666D02*
X200116723Y-64314285D01*
X200116723Y-64314285D02*
X199926247Y-64361904D01*
X199926247Y-64361904D02*
X199783390Y-64361904D01*
X199783390Y-64361904D02*
X199592914Y-64314285D01*
X199592914Y-64314285D02*
X199497676Y-64266666D01*
X199497676Y-64266666D02*
X199402438Y-64171428D01*
X199402438Y-64171428D02*
X199354819Y-64028571D01*
X199354819Y-64028571D02*
X199354819Y-63933333D01*
X199354819Y-63933333D02*
X199402438Y-63790476D01*
X199402438Y-63790476D02*
X199450057Y-63742857D01*
X200354819Y-62790476D02*
X200354819Y-63361904D01*
X200354819Y-63076190D02*
X199354819Y-63076190D01*
X199354819Y-63076190D02*
X199497676Y-63171428D01*
X199497676Y-63171428D02*
X199592914Y-63266666D01*
X199592914Y-63266666D02*
X199640533Y-63361904D01*
X199450057Y-62409523D02*
X199402438Y-62361904D01*
X199402438Y-62361904D02*
X199354819Y-62266666D01*
X199354819Y-62266666D02*
X199354819Y-62028571D01*
X199354819Y-62028571D02*
X199402438Y-61933333D01*
X199402438Y-61933333D02*
X199450057Y-61885714D01*
X199450057Y-61885714D02*
X199545295Y-61838095D01*
X199545295Y-61838095D02*
X199640533Y-61838095D01*
X199640533Y-61838095D02*
X199783390Y-61885714D01*
X199783390Y-61885714D02*
X200354819Y-62457142D01*
X200354819Y-62457142D02*
X200354819Y-61838095D01*
X171654580Y-91817857D02*
X171702200Y-91865476D01*
X171702200Y-91865476D02*
X171749819Y-92008333D01*
X171749819Y-92008333D02*
X171749819Y-92103571D01*
X171749819Y-92103571D02*
X171702200Y-92246428D01*
X171702200Y-92246428D02*
X171606961Y-92341666D01*
X171606961Y-92341666D02*
X171511723Y-92389285D01*
X171511723Y-92389285D02*
X171321247Y-92436904D01*
X171321247Y-92436904D02*
X171178390Y-92436904D01*
X171178390Y-92436904D02*
X170987914Y-92389285D01*
X170987914Y-92389285D02*
X170892676Y-92341666D01*
X170892676Y-92341666D02*
X170797438Y-92246428D01*
X170797438Y-92246428D02*
X170749819Y-92103571D01*
X170749819Y-92103571D02*
X170749819Y-92008333D01*
X170749819Y-92008333D02*
X170797438Y-91865476D01*
X170797438Y-91865476D02*
X170845057Y-91817857D01*
X170845057Y-91436904D02*
X170797438Y-91389285D01*
X170797438Y-91389285D02*
X170749819Y-91294047D01*
X170749819Y-91294047D02*
X170749819Y-91055952D01*
X170749819Y-91055952D02*
X170797438Y-90960714D01*
X170797438Y-90960714D02*
X170845057Y-90913095D01*
X170845057Y-90913095D02*
X170940295Y-90865476D01*
X170940295Y-90865476D02*
X171035533Y-90865476D01*
X171035533Y-90865476D02*
X171178390Y-90913095D01*
X171178390Y-90913095D02*
X171749819Y-91484523D01*
X171749819Y-91484523D02*
X171749819Y-90865476D01*
X171083152Y-90008333D02*
X171749819Y-90008333D01*
X170702200Y-90246428D02*
X171416485Y-90484523D01*
X171416485Y-90484523D02*
X171416485Y-89865476D01*
X210409580Y-94642857D02*
X210457200Y-94690476D01*
X210457200Y-94690476D02*
X210504819Y-94833333D01*
X210504819Y-94833333D02*
X210504819Y-94928571D01*
X210504819Y-94928571D02*
X210457200Y-95071428D01*
X210457200Y-95071428D02*
X210361961Y-95166666D01*
X210361961Y-95166666D02*
X210266723Y-95214285D01*
X210266723Y-95214285D02*
X210076247Y-95261904D01*
X210076247Y-95261904D02*
X209933390Y-95261904D01*
X209933390Y-95261904D02*
X209742914Y-95214285D01*
X209742914Y-95214285D02*
X209647676Y-95166666D01*
X209647676Y-95166666D02*
X209552438Y-95071428D01*
X209552438Y-95071428D02*
X209504819Y-94928571D01*
X209504819Y-94928571D02*
X209504819Y-94833333D01*
X209504819Y-94833333D02*
X209552438Y-94690476D01*
X209552438Y-94690476D02*
X209600057Y-94642857D01*
X210504819Y-93690476D02*
X210504819Y-94261904D01*
X210504819Y-93976190D02*
X209504819Y-93976190D01*
X209504819Y-93976190D02*
X209647676Y-94071428D01*
X209647676Y-94071428D02*
X209742914Y-94166666D01*
X209742914Y-94166666D02*
X209790533Y-94261904D01*
X210504819Y-93214285D02*
X210504819Y-93023809D01*
X210504819Y-93023809D02*
X210457200Y-92928571D01*
X210457200Y-92928571D02*
X210409580Y-92880952D01*
X210409580Y-92880952D02*
X210266723Y-92785714D01*
X210266723Y-92785714D02*
X210076247Y-92738095D01*
X210076247Y-92738095D02*
X209695295Y-92738095D01*
X209695295Y-92738095D02*
X209600057Y-92785714D01*
X209600057Y-92785714D02*
X209552438Y-92833333D01*
X209552438Y-92833333D02*
X209504819Y-92928571D01*
X209504819Y-92928571D02*
X209504819Y-93119047D01*
X209504819Y-93119047D02*
X209552438Y-93214285D01*
X209552438Y-93214285D02*
X209600057Y-93261904D01*
X209600057Y-93261904D02*
X209695295Y-93309523D01*
X209695295Y-93309523D02*
X209933390Y-93309523D01*
X209933390Y-93309523D02*
X210028628Y-93261904D01*
X210028628Y-93261904D02*
X210076247Y-93214285D01*
X210076247Y-93214285D02*
X210123866Y-93119047D01*
X210123866Y-93119047D02*
X210123866Y-92928571D01*
X210123866Y-92928571D02*
X210076247Y-92833333D01*
X210076247Y-92833333D02*
X210028628Y-92785714D01*
X210028628Y-92785714D02*
X209933390Y-92738095D01*
X178563095Y-91674819D02*
X178563095Y-92484342D01*
X178563095Y-92484342D02*
X178610714Y-92579580D01*
X178610714Y-92579580D02*
X178658333Y-92627200D01*
X178658333Y-92627200D02*
X178753571Y-92674819D01*
X178753571Y-92674819D02*
X178944047Y-92674819D01*
X178944047Y-92674819D02*
X179039285Y-92627200D01*
X179039285Y-92627200D02*
X179086904Y-92579580D01*
X179086904Y-92579580D02*
X179134523Y-92484342D01*
X179134523Y-92484342D02*
X179134523Y-91674819D01*
X179515476Y-91674819D02*
X180182142Y-91674819D01*
X180182142Y-91674819D02*
X179753571Y-92674819D01*
X207783333Y-104559580D02*
X207735714Y-104607200D01*
X207735714Y-104607200D02*
X207592857Y-104654819D01*
X207592857Y-104654819D02*
X207497619Y-104654819D01*
X207497619Y-104654819D02*
X207354762Y-104607200D01*
X207354762Y-104607200D02*
X207259524Y-104511961D01*
X207259524Y-104511961D02*
X207211905Y-104416723D01*
X207211905Y-104416723D02*
X207164286Y-104226247D01*
X207164286Y-104226247D02*
X207164286Y-104083390D01*
X207164286Y-104083390D02*
X207211905Y-103892914D01*
X207211905Y-103892914D02*
X207259524Y-103797676D01*
X207259524Y-103797676D02*
X207354762Y-103702438D01*
X207354762Y-103702438D02*
X207497619Y-103654819D01*
X207497619Y-103654819D02*
X207592857Y-103654819D01*
X207592857Y-103654819D02*
X207735714Y-103702438D01*
X207735714Y-103702438D02*
X207783333Y-103750057D01*
X208259524Y-104654819D02*
X208450000Y-104654819D01*
X208450000Y-104654819D02*
X208545238Y-104607200D01*
X208545238Y-104607200D02*
X208592857Y-104559580D01*
X208592857Y-104559580D02*
X208688095Y-104416723D01*
X208688095Y-104416723D02*
X208735714Y-104226247D01*
X208735714Y-104226247D02*
X208735714Y-103845295D01*
X208735714Y-103845295D02*
X208688095Y-103750057D01*
X208688095Y-103750057D02*
X208640476Y-103702438D01*
X208640476Y-103702438D02*
X208545238Y-103654819D01*
X208545238Y-103654819D02*
X208354762Y-103654819D01*
X208354762Y-103654819D02*
X208259524Y-103702438D01*
X208259524Y-103702438D02*
X208211905Y-103750057D01*
X208211905Y-103750057D02*
X208164286Y-103845295D01*
X208164286Y-103845295D02*
X208164286Y-104083390D01*
X208164286Y-104083390D02*
X208211905Y-104178628D01*
X208211905Y-104178628D02*
X208259524Y-104226247D01*
X208259524Y-104226247D02*
X208354762Y-104273866D01*
X208354762Y-104273866D02*
X208545238Y-104273866D01*
X208545238Y-104273866D02*
X208640476Y-104226247D01*
X208640476Y-104226247D02*
X208688095Y-104178628D01*
X208688095Y-104178628D02*
X208735714Y-104083390D01*
X210740180Y-56611905D02*
X211740180Y-56611905D01*
X211740180Y-56611905D02*
X211740180Y-56992857D01*
X211740180Y-56992857D02*
X211692561Y-57088095D01*
X211692561Y-57088095D02*
X211644942Y-57135714D01*
X211644942Y-57135714D02*
X211549704Y-57183333D01*
X211549704Y-57183333D02*
X211406847Y-57183333D01*
X211406847Y-57183333D02*
X211311609Y-57135714D01*
X211311609Y-57135714D02*
X211263990Y-57088095D01*
X211263990Y-57088095D02*
X211216371Y-56992857D01*
X211216371Y-56992857D02*
X211216371Y-56611905D01*
X210740180Y-58135714D02*
X210740180Y-57564286D01*
X210740180Y-57850000D02*
X211740180Y-57850000D01*
X211740180Y-57850000D02*
X211597323Y-57754762D01*
X211597323Y-57754762D02*
X211502085Y-57659524D01*
X211502085Y-57659524D02*
X211454466Y-57564286D01*
X207854819Y-100842857D02*
X207378628Y-101176190D01*
X207854819Y-101414285D02*
X206854819Y-101414285D01*
X206854819Y-101414285D02*
X206854819Y-101033333D01*
X206854819Y-101033333D02*
X206902438Y-100938095D01*
X206902438Y-100938095D02*
X206950057Y-100890476D01*
X206950057Y-100890476D02*
X207045295Y-100842857D01*
X207045295Y-100842857D02*
X207188152Y-100842857D01*
X207188152Y-100842857D02*
X207283390Y-100890476D01*
X207283390Y-100890476D02*
X207331009Y-100938095D01*
X207331009Y-100938095D02*
X207378628Y-101033333D01*
X207378628Y-101033333D02*
X207378628Y-101414285D01*
X207854819Y-99890476D02*
X207854819Y-100461904D01*
X207854819Y-100176190D02*
X206854819Y-100176190D01*
X206854819Y-100176190D02*
X206997676Y-100271428D01*
X206997676Y-100271428D02*
X207092914Y-100366666D01*
X207092914Y-100366666D02*
X207140533Y-100461904D01*
X206854819Y-99033333D02*
X206854819Y-99223809D01*
X206854819Y-99223809D02*
X206902438Y-99319047D01*
X206902438Y-99319047D02*
X206950057Y-99366666D01*
X206950057Y-99366666D02*
X207092914Y-99461904D01*
X207092914Y-99461904D02*
X207283390Y-99509523D01*
X207283390Y-99509523D02*
X207664342Y-99509523D01*
X207664342Y-99509523D02*
X207759580Y-99461904D01*
X207759580Y-99461904D02*
X207807200Y-99414285D01*
X207807200Y-99414285D02*
X207854819Y-99319047D01*
X207854819Y-99319047D02*
X207854819Y-99128571D01*
X207854819Y-99128571D02*
X207807200Y-99033333D01*
X207807200Y-99033333D02*
X207759580Y-98985714D01*
X207759580Y-98985714D02*
X207664342Y-98938095D01*
X207664342Y-98938095D02*
X207426247Y-98938095D01*
X207426247Y-98938095D02*
X207331009Y-98985714D01*
X207331009Y-98985714D02*
X207283390Y-99033333D01*
X207283390Y-99033333D02*
X207235771Y-99128571D01*
X207235771Y-99128571D02*
X207235771Y-99319047D01*
X207235771Y-99319047D02*
X207283390Y-99414285D01*
X207283390Y-99414285D02*
X207331009Y-99461904D01*
X207331009Y-99461904D02*
X207426247Y-99509523D01*
X208924819Y-72224404D02*
X209734342Y-72224404D01*
X209734342Y-72224404D02*
X209829580Y-72176785D01*
X209829580Y-72176785D02*
X209877200Y-72129166D01*
X209877200Y-72129166D02*
X209924819Y-72033928D01*
X209924819Y-72033928D02*
X209924819Y-71843452D01*
X209924819Y-71843452D02*
X209877200Y-71748214D01*
X209877200Y-71748214D02*
X209829580Y-71700595D01*
X209829580Y-71700595D02*
X209734342Y-71652976D01*
X209734342Y-71652976D02*
X208924819Y-71652976D01*
X209924819Y-70652976D02*
X209924819Y-71224404D01*
X209924819Y-70938690D02*
X208924819Y-70938690D01*
X208924819Y-70938690D02*
X209067676Y-71033928D01*
X209067676Y-71033928D02*
X209162914Y-71129166D01*
X209162914Y-71129166D02*
X209210533Y-71224404D01*
X172959580Y-102042857D02*
X173007200Y-102090476D01*
X173007200Y-102090476D02*
X173054819Y-102233333D01*
X173054819Y-102233333D02*
X173054819Y-102328571D01*
X173054819Y-102328571D02*
X173007200Y-102471428D01*
X173007200Y-102471428D02*
X172911961Y-102566666D01*
X172911961Y-102566666D02*
X172816723Y-102614285D01*
X172816723Y-102614285D02*
X172626247Y-102661904D01*
X172626247Y-102661904D02*
X172483390Y-102661904D01*
X172483390Y-102661904D02*
X172292914Y-102614285D01*
X172292914Y-102614285D02*
X172197676Y-102566666D01*
X172197676Y-102566666D02*
X172102438Y-102471428D01*
X172102438Y-102471428D02*
X172054819Y-102328571D01*
X172054819Y-102328571D02*
X172054819Y-102233333D01*
X172054819Y-102233333D02*
X172102438Y-102090476D01*
X172102438Y-102090476D02*
X172150057Y-102042857D01*
X172150057Y-101661904D02*
X172102438Y-101614285D01*
X172102438Y-101614285D02*
X172054819Y-101519047D01*
X172054819Y-101519047D02*
X172054819Y-101280952D01*
X172054819Y-101280952D02*
X172102438Y-101185714D01*
X172102438Y-101185714D02*
X172150057Y-101138095D01*
X172150057Y-101138095D02*
X172245295Y-101090476D01*
X172245295Y-101090476D02*
X172340533Y-101090476D01*
X172340533Y-101090476D02*
X172483390Y-101138095D01*
X172483390Y-101138095D02*
X173054819Y-101709523D01*
X173054819Y-101709523D02*
X173054819Y-101090476D01*
X172483390Y-100519047D02*
X172435771Y-100614285D01*
X172435771Y-100614285D02*
X172388152Y-100661904D01*
X172388152Y-100661904D02*
X172292914Y-100709523D01*
X172292914Y-100709523D02*
X172245295Y-100709523D01*
X172245295Y-100709523D02*
X172150057Y-100661904D01*
X172150057Y-100661904D02*
X172102438Y-100614285D01*
X172102438Y-100614285D02*
X172054819Y-100519047D01*
X172054819Y-100519047D02*
X172054819Y-100328571D01*
X172054819Y-100328571D02*
X172102438Y-100233333D01*
X172102438Y-100233333D02*
X172150057Y-100185714D01*
X172150057Y-100185714D02*
X172245295Y-100138095D01*
X172245295Y-100138095D02*
X172292914Y-100138095D01*
X172292914Y-100138095D02*
X172388152Y-100185714D01*
X172388152Y-100185714D02*
X172435771Y-100233333D01*
X172435771Y-100233333D02*
X172483390Y-100328571D01*
X172483390Y-100328571D02*
X172483390Y-100519047D01*
X172483390Y-100519047D02*
X172531009Y-100614285D01*
X172531009Y-100614285D02*
X172578628Y-100661904D01*
X172578628Y-100661904D02*
X172673866Y-100709523D01*
X172673866Y-100709523D02*
X172864342Y-100709523D01*
X172864342Y-100709523D02*
X172959580Y-100661904D01*
X172959580Y-100661904D02*
X173007200Y-100614285D01*
X173007200Y-100614285D02*
X173054819Y-100519047D01*
X173054819Y-100519047D02*
X173054819Y-100328571D01*
X173054819Y-100328571D02*
X173007200Y-100233333D01*
X173007200Y-100233333D02*
X172959580Y-100185714D01*
X172959580Y-100185714D02*
X172864342Y-100138095D01*
X172864342Y-100138095D02*
X172673866Y-100138095D01*
X172673866Y-100138095D02*
X172578628Y-100185714D01*
X172578628Y-100185714D02*
X172531009Y-100233333D01*
X172531009Y-100233333D02*
X172483390Y-100328571D01*
X154757142Y-92389580D02*
X154709523Y-92437200D01*
X154709523Y-92437200D02*
X154566666Y-92484819D01*
X154566666Y-92484819D02*
X154471428Y-92484819D01*
X154471428Y-92484819D02*
X154328571Y-92437200D01*
X154328571Y-92437200D02*
X154233333Y-92341961D01*
X154233333Y-92341961D02*
X154185714Y-92246723D01*
X154185714Y-92246723D02*
X154138095Y-92056247D01*
X154138095Y-92056247D02*
X154138095Y-91913390D01*
X154138095Y-91913390D02*
X154185714Y-91722914D01*
X154185714Y-91722914D02*
X154233333Y-91627676D01*
X154233333Y-91627676D02*
X154328571Y-91532438D01*
X154328571Y-91532438D02*
X154471428Y-91484819D01*
X154471428Y-91484819D02*
X154566666Y-91484819D01*
X154566666Y-91484819D02*
X154709523Y-91532438D01*
X154709523Y-91532438D02*
X154757142Y-91580057D01*
X155090476Y-91484819D02*
X155709523Y-91484819D01*
X155709523Y-91484819D02*
X155376190Y-91865771D01*
X155376190Y-91865771D02*
X155519047Y-91865771D01*
X155519047Y-91865771D02*
X155614285Y-91913390D01*
X155614285Y-91913390D02*
X155661904Y-91961009D01*
X155661904Y-91961009D02*
X155709523Y-92056247D01*
X155709523Y-92056247D02*
X155709523Y-92294342D01*
X155709523Y-92294342D02*
X155661904Y-92389580D01*
X155661904Y-92389580D02*
X155614285Y-92437200D01*
X155614285Y-92437200D02*
X155519047Y-92484819D01*
X155519047Y-92484819D02*
X155233333Y-92484819D01*
X155233333Y-92484819D02*
X155138095Y-92437200D01*
X155138095Y-92437200D02*
X155090476Y-92389580D01*
X156042857Y-91484819D02*
X156661904Y-91484819D01*
X156661904Y-91484819D02*
X156328571Y-91865771D01*
X156328571Y-91865771D02*
X156471428Y-91865771D01*
X156471428Y-91865771D02*
X156566666Y-91913390D01*
X156566666Y-91913390D02*
X156614285Y-91961009D01*
X156614285Y-91961009D02*
X156661904Y-92056247D01*
X156661904Y-92056247D02*
X156661904Y-92294342D01*
X156661904Y-92294342D02*
X156614285Y-92389580D01*
X156614285Y-92389580D02*
X156566666Y-92437200D01*
X156566666Y-92437200D02*
X156471428Y-92484819D01*
X156471428Y-92484819D02*
X156185714Y-92484819D01*
X156185714Y-92484819D02*
X156090476Y-92437200D01*
X156090476Y-92437200D02*
X156042857Y-92389580D01*
X133357142Y-96854819D02*
X133023809Y-96378628D01*
X132785714Y-96854819D02*
X132785714Y-95854819D01*
X132785714Y-95854819D02*
X133166666Y-95854819D01*
X133166666Y-95854819D02*
X133261904Y-95902438D01*
X133261904Y-95902438D02*
X133309523Y-95950057D01*
X133309523Y-95950057D02*
X133357142Y-96045295D01*
X133357142Y-96045295D02*
X133357142Y-96188152D01*
X133357142Y-96188152D02*
X133309523Y-96283390D01*
X133309523Y-96283390D02*
X133261904Y-96331009D01*
X133261904Y-96331009D02*
X133166666Y-96378628D01*
X133166666Y-96378628D02*
X132785714Y-96378628D01*
X133690476Y-95854819D02*
X134309523Y-95854819D01*
X134309523Y-95854819D02*
X133976190Y-96235771D01*
X133976190Y-96235771D02*
X134119047Y-96235771D01*
X134119047Y-96235771D02*
X134214285Y-96283390D01*
X134214285Y-96283390D02*
X134261904Y-96331009D01*
X134261904Y-96331009D02*
X134309523Y-96426247D01*
X134309523Y-96426247D02*
X134309523Y-96664342D01*
X134309523Y-96664342D02*
X134261904Y-96759580D01*
X134261904Y-96759580D02*
X134214285Y-96807200D01*
X134214285Y-96807200D02*
X134119047Y-96854819D01*
X134119047Y-96854819D02*
X133833333Y-96854819D01*
X133833333Y-96854819D02*
X133738095Y-96807200D01*
X133738095Y-96807200D02*
X133690476Y-96759580D01*
X134642857Y-95854819D02*
X135309523Y-95854819D01*
X135309523Y-95854819D02*
X134880952Y-96854819D01*
X203933333Y-66559580D02*
X203885714Y-66607200D01*
X203885714Y-66607200D02*
X203742857Y-66654819D01*
X203742857Y-66654819D02*
X203647619Y-66654819D01*
X203647619Y-66654819D02*
X203504762Y-66607200D01*
X203504762Y-66607200D02*
X203409524Y-66511961D01*
X203409524Y-66511961D02*
X203361905Y-66416723D01*
X203361905Y-66416723D02*
X203314286Y-66226247D01*
X203314286Y-66226247D02*
X203314286Y-66083390D01*
X203314286Y-66083390D02*
X203361905Y-65892914D01*
X203361905Y-65892914D02*
X203409524Y-65797676D01*
X203409524Y-65797676D02*
X203504762Y-65702438D01*
X203504762Y-65702438D02*
X203647619Y-65654819D01*
X203647619Y-65654819D02*
X203742857Y-65654819D01*
X203742857Y-65654819D02*
X203885714Y-65702438D01*
X203885714Y-65702438D02*
X203933333Y-65750057D01*
X204790476Y-65988152D02*
X204790476Y-66654819D01*
X204552381Y-65607200D02*
X204314286Y-66321485D01*
X204314286Y-66321485D02*
X204933333Y-66321485D01*
X154857142Y-100467319D02*
X154523809Y-99991128D01*
X154285714Y-100467319D02*
X154285714Y-99467319D01*
X154285714Y-99467319D02*
X154666666Y-99467319D01*
X154666666Y-99467319D02*
X154761904Y-99514938D01*
X154761904Y-99514938D02*
X154809523Y-99562557D01*
X154809523Y-99562557D02*
X154857142Y-99657795D01*
X154857142Y-99657795D02*
X154857142Y-99800652D01*
X154857142Y-99800652D02*
X154809523Y-99895890D01*
X154809523Y-99895890D02*
X154761904Y-99943509D01*
X154761904Y-99943509D02*
X154666666Y-99991128D01*
X154666666Y-99991128D02*
X154285714Y-99991128D01*
X155190476Y-99467319D02*
X155809523Y-99467319D01*
X155809523Y-99467319D02*
X155476190Y-99848271D01*
X155476190Y-99848271D02*
X155619047Y-99848271D01*
X155619047Y-99848271D02*
X155714285Y-99895890D01*
X155714285Y-99895890D02*
X155761904Y-99943509D01*
X155761904Y-99943509D02*
X155809523Y-100038747D01*
X155809523Y-100038747D02*
X155809523Y-100276842D01*
X155809523Y-100276842D02*
X155761904Y-100372080D01*
X155761904Y-100372080D02*
X155714285Y-100419700D01*
X155714285Y-100419700D02*
X155619047Y-100467319D01*
X155619047Y-100467319D02*
X155333333Y-100467319D01*
X155333333Y-100467319D02*
X155238095Y-100419700D01*
X155238095Y-100419700D02*
X155190476Y-100372080D01*
X156666666Y-99467319D02*
X156476190Y-99467319D01*
X156476190Y-99467319D02*
X156380952Y-99514938D01*
X156380952Y-99514938D02*
X156333333Y-99562557D01*
X156333333Y-99562557D02*
X156238095Y-99705414D01*
X156238095Y-99705414D02*
X156190476Y-99895890D01*
X156190476Y-99895890D02*
X156190476Y-100276842D01*
X156190476Y-100276842D02*
X156238095Y-100372080D01*
X156238095Y-100372080D02*
X156285714Y-100419700D01*
X156285714Y-100419700D02*
X156380952Y-100467319D01*
X156380952Y-100467319D02*
X156571428Y-100467319D01*
X156571428Y-100467319D02*
X156666666Y-100419700D01*
X156666666Y-100419700D02*
X156714285Y-100372080D01*
X156714285Y-100372080D02*
X156761904Y-100276842D01*
X156761904Y-100276842D02*
X156761904Y-100038747D01*
X156761904Y-100038747D02*
X156714285Y-99943509D01*
X156714285Y-99943509D02*
X156666666Y-99895890D01*
X156666666Y-99895890D02*
X156571428Y-99848271D01*
X156571428Y-99848271D02*
X156380952Y-99848271D01*
X156380952Y-99848271D02*
X156285714Y-99895890D01*
X156285714Y-99895890D02*
X156238095Y-99943509D01*
X156238095Y-99943509D02*
X156190476Y-100038747D01*
X156857142Y-108304819D02*
X156523809Y-107828628D01*
X156285714Y-108304819D02*
X156285714Y-107304819D01*
X156285714Y-107304819D02*
X156666666Y-107304819D01*
X156666666Y-107304819D02*
X156761904Y-107352438D01*
X156761904Y-107352438D02*
X156809523Y-107400057D01*
X156809523Y-107400057D02*
X156857142Y-107495295D01*
X156857142Y-107495295D02*
X156857142Y-107638152D01*
X156857142Y-107638152D02*
X156809523Y-107733390D01*
X156809523Y-107733390D02*
X156761904Y-107781009D01*
X156761904Y-107781009D02*
X156666666Y-107828628D01*
X156666666Y-107828628D02*
X156285714Y-107828628D01*
X157238095Y-107400057D02*
X157285714Y-107352438D01*
X157285714Y-107352438D02*
X157380952Y-107304819D01*
X157380952Y-107304819D02*
X157619047Y-107304819D01*
X157619047Y-107304819D02*
X157714285Y-107352438D01*
X157714285Y-107352438D02*
X157761904Y-107400057D01*
X157761904Y-107400057D02*
X157809523Y-107495295D01*
X157809523Y-107495295D02*
X157809523Y-107590533D01*
X157809523Y-107590533D02*
X157761904Y-107733390D01*
X157761904Y-107733390D02*
X157190476Y-108304819D01*
X157190476Y-108304819D02*
X157809523Y-108304819D01*
X158285714Y-108304819D02*
X158476190Y-108304819D01*
X158476190Y-108304819D02*
X158571428Y-108257200D01*
X158571428Y-108257200D02*
X158619047Y-108209580D01*
X158619047Y-108209580D02*
X158714285Y-108066723D01*
X158714285Y-108066723D02*
X158761904Y-107876247D01*
X158761904Y-107876247D02*
X158761904Y-107495295D01*
X158761904Y-107495295D02*
X158714285Y-107400057D01*
X158714285Y-107400057D02*
X158666666Y-107352438D01*
X158666666Y-107352438D02*
X158571428Y-107304819D01*
X158571428Y-107304819D02*
X158380952Y-107304819D01*
X158380952Y-107304819D02*
X158285714Y-107352438D01*
X158285714Y-107352438D02*
X158238095Y-107400057D01*
X158238095Y-107400057D02*
X158190476Y-107495295D01*
X158190476Y-107495295D02*
X158190476Y-107733390D01*
X158190476Y-107733390D02*
X158238095Y-107828628D01*
X158238095Y-107828628D02*
X158285714Y-107876247D01*
X158285714Y-107876247D02*
X158380952Y-107923866D01*
X158380952Y-107923866D02*
X158571428Y-107923866D01*
X158571428Y-107923866D02*
X158666666Y-107876247D01*
X158666666Y-107876247D02*
X158714285Y-107828628D01*
X158714285Y-107828628D02*
X158761904Y-107733390D01*
X151457142Y-100367319D02*
X151123809Y-99891128D01*
X150885714Y-100367319D02*
X150885714Y-99367319D01*
X150885714Y-99367319D02*
X151266666Y-99367319D01*
X151266666Y-99367319D02*
X151361904Y-99414938D01*
X151361904Y-99414938D02*
X151409523Y-99462557D01*
X151409523Y-99462557D02*
X151457142Y-99557795D01*
X151457142Y-99557795D02*
X151457142Y-99700652D01*
X151457142Y-99700652D02*
X151409523Y-99795890D01*
X151409523Y-99795890D02*
X151361904Y-99843509D01*
X151361904Y-99843509D02*
X151266666Y-99891128D01*
X151266666Y-99891128D02*
X150885714Y-99891128D01*
X151790476Y-99367319D02*
X152409523Y-99367319D01*
X152409523Y-99367319D02*
X152076190Y-99748271D01*
X152076190Y-99748271D02*
X152219047Y-99748271D01*
X152219047Y-99748271D02*
X152314285Y-99795890D01*
X152314285Y-99795890D02*
X152361904Y-99843509D01*
X152361904Y-99843509D02*
X152409523Y-99938747D01*
X152409523Y-99938747D02*
X152409523Y-100176842D01*
X152409523Y-100176842D02*
X152361904Y-100272080D01*
X152361904Y-100272080D02*
X152314285Y-100319700D01*
X152314285Y-100319700D02*
X152219047Y-100367319D01*
X152219047Y-100367319D02*
X151933333Y-100367319D01*
X151933333Y-100367319D02*
X151838095Y-100319700D01*
X151838095Y-100319700D02*
X151790476Y-100272080D01*
X152980952Y-99795890D02*
X152885714Y-99748271D01*
X152885714Y-99748271D02*
X152838095Y-99700652D01*
X152838095Y-99700652D02*
X152790476Y-99605414D01*
X152790476Y-99605414D02*
X152790476Y-99557795D01*
X152790476Y-99557795D02*
X152838095Y-99462557D01*
X152838095Y-99462557D02*
X152885714Y-99414938D01*
X152885714Y-99414938D02*
X152980952Y-99367319D01*
X152980952Y-99367319D02*
X153171428Y-99367319D01*
X153171428Y-99367319D02*
X153266666Y-99414938D01*
X153266666Y-99414938D02*
X153314285Y-99462557D01*
X153314285Y-99462557D02*
X153361904Y-99557795D01*
X153361904Y-99557795D02*
X153361904Y-99605414D01*
X153361904Y-99605414D02*
X153314285Y-99700652D01*
X153314285Y-99700652D02*
X153266666Y-99748271D01*
X153266666Y-99748271D02*
X153171428Y-99795890D01*
X153171428Y-99795890D02*
X152980952Y-99795890D01*
X152980952Y-99795890D02*
X152885714Y-99843509D01*
X152885714Y-99843509D02*
X152838095Y-99891128D01*
X152838095Y-99891128D02*
X152790476Y-99986366D01*
X152790476Y-99986366D02*
X152790476Y-100176842D01*
X152790476Y-100176842D02*
X152838095Y-100272080D01*
X152838095Y-100272080D02*
X152885714Y-100319700D01*
X152885714Y-100319700D02*
X152980952Y-100367319D01*
X152980952Y-100367319D02*
X153171428Y-100367319D01*
X153171428Y-100367319D02*
X153266666Y-100319700D01*
X153266666Y-100319700D02*
X153314285Y-100272080D01*
X153314285Y-100272080D02*
X153361904Y-100176842D01*
X153361904Y-100176842D02*
X153361904Y-99986366D01*
X153361904Y-99986366D02*
X153314285Y-99891128D01*
X153314285Y-99891128D02*
X153266666Y-99843509D01*
X153266666Y-99843509D02*
X153171428Y-99795890D01*
X219254819Y-74066666D02*
X218778628Y-74399999D01*
X219254819Y-74638094D02*
X218254819Y-74638094D01*
X218254819Y-74638094D02*
X218254819Y-74257142D01*
X218254819Y-74257142D02*
X218302438Y-74161904D01*
X218302438Y-74161904D02*
X218350057Y-74114285D01*
X218350057Y-74114285D02*
X218445295Y-74066666D01*
X218445295Y-74066666D02*
X218588152Y-74066666D01*
X218588152Y-74066666D02*
X218683390Y-74114285D01*
X218683390Y-74114285D02*
X218731009Y-74161904D01*
X218731009Y-74161904D02*
X218778628Y-74257142D01*
X218778628Y-74257142D02*
X218778628Y-74638094D01*
X218254819Y-73161904D02*
X218254819Y-73638094D01*
X218254819Y-73638094D02*
X218731009Y-73685713D01*
X218731009Y-73685713D02*
X218683390Y-73638094D01*
X218683390Y-73638094D02*
X218635771Y-73542856D01*
X218635771Y-73542856D02*
X218635771Y-73304761D01*
X218635771Y-73304761D02*
X218683390Y-73209523D01*
X218683390Y-73209523D02*
X218731009Y-73161904D01*
X218731009Y-73161904D02*
X218826247Y-73114285D01*
X218826247Y-73114285D02*
X219064342Y-73114285D01*
X219064342Y-73114285D02*
X219159580Y-73161904D01*
X219159580Y-73161904D02*
X219207200Y-73209523D01*
X219207200Y-73209523D02*
X219254819Y-73304761D01*
X219254819Y-73304761D02*
X219254819Y-73542856D01*
X219254819Y-73542856D02*
X219207200Y-73638094D01*
X219207200Y-73638094D02*
X219159580Y-73685713D01*
X180309580Y-106892857D02*
X180357200Y-106940476D01*
X180357200Y-106940476D02*
X180404819Y-107083333D01*
X180404819Y-107083333D02*
X180404819Y-107178571D01*
X180404819Y-107178571D02*
X180357200Y-107321428D01*
X180357200Y-107321428D02*
X180261961Y-107416666D01*
X180261961Y-107416666D02*
X180166723Y-107464285D01*
X180166723Y-107464285D02*
X179976247Y-107511904D01*
X179976247Y-107511904D02*
X179833390Y-107511904D01*
X179833390Y-107511904D02*
X179642914Y-107464285D01*
X179642914Y-107464285D02*
X179547676Y-107416666D01*
X179547676Y-107416666D02*
X179452438Y-107321428D01*
X179452438Y-107321428D02*
X179404819Y-107178571D01*
X179404819Y-107178571D02*
X179404819Y-107083333D01*
X179404819Y-107083333D02*
X179452438Y-106940476D01*
X179452438Y-106940476D02*
X179500057Y-106892857D01*
X179500057Y-106511904D02*
X179452438Y-106464285D01*
X179452438Y-106464285D02*
X179404819Y-106369047D01*
X179404819Y-106369047D02*
X179404819Y-106130952D01*
X179404819Y-106130952D02*
X179452438Y-106035714D01*
X179452438Y-106035714D02*
X179500057Y-105988095D01*
X179500057Y-105988095D02*
X179595295Y-105940476D01*
X179595295Y-105940476D02*
X179690533Y-105940476D01*
X179690533Y-105940476D02*
X179833390Y-105988095D01*
X179833390Y-105988095D02*
X180404819Y-106559523D01*
X180404819Y-106559523D02*
X180404819Y-105940476D01*
X179404819Y-105607142D02*
X179404819Y-104988095D01*
X179404819Y-104988095D02*
X179785771Y-105321428D01*
X179785771Y-105321428D02*
X179785771Y-105178571D01*
X179785771Y-105178571D02*
X179833390Y-105083333D01*
X179833390Y-105083333D02*
X179881009Y-105035714D01*
X179881009Y-105035714D02*
X179976247Y-104988095D01*
X179976247Y-104988095D02*
X180214342Y-104988095D01*
X180214342Y-104988095D02*
X180309580Y-105035714D01*
X180309580Y-105035714D02*
X180357200Y-105083333D01*
X180357200Y-105083333D02*
X180404819Y-105178571D01*
X180404819Y-105178571D02*
X180404819Y-105464285D01*
X180404819Y-105464285D02*
X180357200Y-105559523D01*
X180357200Y-105559523D02*
X180309580Y-105607142D01*
X202388095Y-93254819D02*
X202388095Y-94064342D01*
X202388095Y-94064342D02*
X202435714Y-94159580D01*
X202435714Y-94159580D02*
X202483333Y-94207200D01*
X202483333Y-94207200D02*
X202578571Y-94254819D01*
X202578571Y-94254819D02*
X202769047Y-94254819D01*
X202769047Y-94254819D02*
X202864285Y-94207200D01*
X202864285Y-94207200D02*
X202911904Y-94159580D01*
X202911904Y-94159580D02*
X202959523Y-94064342D01*
X202959523Y-94064342D02*
X202959523Y-93254819D01*
X203911904Y-93254819D02*
X203435714Y-93254819D01*
X203435714Y-93254819D02*
X203388095Y-93731009D01*
X203388095Y-93731009D02*
X203435714Y-93683390D01*
X203435714Y-93683390D02*
X203530952Y-93635771D01*
X203530952Y-93635771D02*
X203769047Y-93635771D01*
X203769047Y-93635771D02*
X203864285Y-93683390D01*
X203864285Y-93683390D02*
X203911904Y-93731009D01*
X203911904Y-93731009D02*
X203959523Y-93826247D01*
X203959523Y-93826247D02*
X203959523Y-94064342D01*
X203959523Y-94064342D02*
X203911904Y-94159580D01*
X203911904Y-94159580D02*
X203864285Y-94207200D01*
X203864285Y-94207200D02*
X203769047Y-94254819D01*
X203769047Y-94254819D02*
X203530952Y-94254819D01*
X203530952Y-94254819D02*
X203435714Y-94207200D01*
X203435714Y-94207200D02*
X203388095Y-94159580D01*
%TO.C,D2*%
D14*
X220415000Y-68765000D02*
X220415000Y-71035000D01*
X220415000Y-71035000D02*
X224300000Y-71035000D01*
X224300000Y-68765000D02*
X220415000Y-68765000D01*
%TO.C,D1*%
X220415000Y-72765000D02*
X220415000Y-75035000D01*
X220415000Y-75035000D02*
X224300000Y-75035000D01*
X224300000Y-72765000D02*
X220415000Y-72765000D01*
%TO.C,C16*%
X190990000Y-92486252D02*
X190990000Y-91063748D01*
X193710000Y-92486252D02*
X193710000Y-91063748D01*
%TO.C,R32*%
X168690000Y-108439564D02*
X168690000Y-107985436D01*
X170160000Y-108439564D02*
X170160000Y-107985436D01*
%TO.C,C1*%
X213088748Y-65965000D02*
X213611252Y-65965000D01*
X213088748Y-67435000D02*
X213611252Y-67435000D01*
%TO.C,R12*%
X209735436Y-97215000D02*
X210189564Y-97215000D01*
X209735436Y-98685000D02*
X210189564Y-98685000D01*
%TO.C,TP2*%
X190450000Y-75500000D02*
G75*
G02*
X189050000Y-75500000I-700000J0D01*
G01*
X189050000Y-75500000D02*
G75*
G02*
X190450000Y-75500000I700000J0D01*
G01*
%TO.C,C15*%
X186740000Y-92486252D02*
X186740000Y-91063748D01*
X189460000Y-92486252D02*
X189460000Y-91063748D01*
%TO.C,C32*%
X165265000Y-112088748D02*
X165265000Y-112611252D01*
X166735000Y-112088748D02*
X166735000Y-112611252D01*
%TO.C,C6*%
X223465000Y-106988748D02*
X223465000Y-107511252D01*
X224935000Y-106988748D02*
X224935000Y-107511252D01*
%TO.C,Q2*%
X148280000Y-95652500D02*
X149800000Y-95652500D01*
X148280000Y-96652500D02*
X148280000Y-95652500D01*
X148280000Y-98772500D02*
X148280000Y-97772500D01*
X149800000Y-95652500D02*
X149800000Y-95702500D01*
X149800000Y-96822500D02*
X149800000Y-97602500D01*
X149800000Y-98722500D02*
X149800000Y-98772500D01*
X149800000Y-98772500D02*
X148280000Y-98772500D01*
X150340000Y-97592500D02*
X150100000Y-97262500D01*
X150580000Y-97262500D01*
X150340000Y-97592500D01*
G36*
X150340000Y-97592500D02*
G01*
X150100000Y-97262500D01*
X150580000Y-97262500D01*
X150340000Y-97592500D01*
G37*
%TO.C,U8*%
X149840000Y-108540000D02*
X153960000Y-108540000D01*
X149840000Y-108635000D02*
X149840000Y-108540000D01*
X149840000Y-113660000D02*
X149840000Y-113565000D01*
X153960000Y-108540000D02*
X153960000Y-108635000D01*
X153960000Y-113565000D02*
X153960000Y-113660000D01*
X153960000Y-113660000D02*
X149840000Y-113660000D01*
X149300000Y-108630000D02*
X149060000Y-108300000D01*
X149540000Y-108300000D01*
X149300000Y-108630000D01*
G36*
X149300000Y-108630000D02*
G01*
X149060000Y-108300000D01*
X149540000Y-108300000D01*
X149300000Y-108630000D01*
G37*
%TO.C,C2*%
X213165000Y-75938748D02*
X213165000Y-76461252D01*
X214635000Y-75938748D02*
X214635000Y-76461252D01*
%TO.C,U6*%
X137590000Y-110097500D02*
X137590000Y-106877500D01*
X141010000Y-106877500D02*
X141010000Y-110097500D01*
X138090000Y-106767500D02*
X137850000Y-106437500D01*
X138330000Y-106437500D01*
X138090000Y-106767500D01*
G36*
X138090000Y-106767500D02*
G01*
X137850000Y-106437500D01*
X138330000Y-106437500D01*
X138090000Y-106767500D01*
G37*
%TO.C,R15*%
X220585436Y-103665000D02*
X221039564Y-103665000D01*
X220585436Y-105135000D02*
X221039564Y-105135000D01*
%TO.C,C30*%
X159315000Y-113921248D02*
X159315000Y-114443752D01*
X160785000Y-113921248D02*
X160785000Y-114443752D01*
%TO.C,C13*%
X197265000Y-69261252D02*
X197265000Y-68738748D01*
X198735000Y-69261252D02*
X198735000Y-68738748D01*
%TO.C,R39*%
X128595000Y-100336237D02*
X128595000Y-98888763D01*
X131305000Y-100336237D02*
X131305000Y-98888763D01*
%TO.C,R27*%
X156820635Y-114389564D02*
X156820635Y-113935436D01*
X158290635Y-114389564D02*
X158290635Y-113935436D01*
%TO.C,U2*%
X204200000Y-61297500D02*
X205500000Y-61297500D01*
X204200000Y-63277500D02*
X205250000Y-63277500D01*
X205620000Y-63277500D02*
X205900000Y-63277500D01*
X205620000Y-63557500D01*
X205620000Y-63277500D01*
G36*
X205620000Y-63557500D02*
G01*
X205620000Y-63277500D01*
X205900000Y-63277500D01*
X205620000Y-63557500D01*
G37*
%TO.C,C29*%
X152011252Y-106265000D02*
X151488748Y-106265000D01*
X152011252Y-107735000D02*
X151488748Y-107735000D01*
%TO.C,R13*%
X209735436Y-101765000D02*
X210189564Y-101765000D01*
X209735436Y-103235000D02*
X210189564Y-103235000D01*
%TO.C,L2*%
D15*
X212750000Y-81350000D02*
X214685000Y-81350000D01*
X212750000Y-90850000D02*
X212750000Y-81350000D01*
X214685000Y-90850000D02*
X212750000Y-90850000D01*
X219315000Y-81350000D02*
X221250000Y-81350000D01*
X221250000Y-81350000D02*
X221250000Y-90850000D01*
X221250000Y-90850000D02*
X219315000Y-90850000D01*
%TO.C,J2*%
D14*
X151740000Y-85390000D02*
X152740000Y-85390000D01*
X152240000Y-86200000D02*
X151740000Y-86200000D01*
X152240000Y-87410000D02*
X152240000Y-86200000D01*
X152740000Y-85390000D02*
X152740000Y-83890000D01*
X173460000Y-85390000D02*
X173460000Y-83890000D01*
X173960000Y-86200000D02*
X173960000Y-87410000D01*
X173960000Y-87410000D02*
X152240000Y-87410000D01*
X174460000Y-85390000D02*
X173460000Y-85390000D01*
X174460000Y-86200000D02*
X173960000Y-86200000D01*
X174760000Y-83590000D02*
X172260000Y-83590000D01*
X174760000Y-86090000D02*
X174760000Y-83590000D01*
X151740000Y-83890000D02*
X174460000Y-83890000D01*
X174460000Y-87910000D01*
X151740000Y-87910000D01*
X151740000Y-83890000D01*
%TO.C,R7*%
X205315000Y-74639564D02*
X205315000Y-74185436D01*
X206785000Y-74639564D02*
X206785000Y-74185436D01*
%TO.C,R18*%
X207565000Y-90139564D02*
X207565000Y-89685436D01*
X209035000Y-90139564D02*
X209035000Y-89685436D01*
%TO.C,R28*%
X145665000Y-109010436D02*
X145665000Y-109464564D01*
X147135000Y-109010436D02*
X147135000Y-109464564D01*
%TO.C,C27*%
X135215000Y-108686252D02*
X135215000Y-108163748D01*
X136685000Y-108686252D02*
X136685000Y-108163748D01*
%TO.C,R11*%
X194715000Y-68772936D02*
X194715000Y-69227064D01*
X196185000Y-68772936D02*
X196185000Y-69227064D01*
%TO.C,U4*%
D15*
X213400000Y-104155000D02*
X213705000Y-104155000D01*
X213400000Y-104255000D02*
X213400000Y-104155000D01*
X213905000Y-106695000D02*
X213400000Y-106695000D01*
X216400000Y-104155000D02*
X216095000Y-104155000D01*
X216400000Y-104255000D02*
X216400000Y-104155000D01*
X216400000Y-106695000D02*
X215895000Y-106695000D01*
D16*
X216150000Y-103425000D02*
G75*
G02*
X215950000Y-103425000I-100000J0D01*
G01*
X215950000Y-103425000D02*
G75*
G02*
X216150000Y-103425000I100000J0D01*
G01*
%TO.C,R26*%
D14*
X137227064Y-104240000D02*
X136772936Y-104240000D01*
X137227064Y-105710000D02*
X136772936Y-105710000D01*
%TO.C,R22*%
X198815000Y-96010436D02*
X198815000Y-96464564D01*
X200285000Y-96010436D02*
X200285000Y-96464564D01*
%TO.C,C20*%
X196161252Y-86965000D02*
X195638748Y-86965000D01*
X196161252Y-88435000D02*
X195638748Y-88435000D01*
%TO.C,U3*%
X193777500Y-73327500D02*
X193827500Y-73327500D01*
X193777500Y-75147500D02*
X193777500Y-73327500D01*
X193827500Y-75147500D02*
X193777500Y-75147500D01*
X196847500Y-73327500D02*
X196897500Y-73327500D01*
X196897500Y-73327500D02*
X196897500Y-75147500D01*
X196897500Y-75147500D02*
X196847500Y-75147500D01*
X193827500Y-75687500D02*
X193497500Y-75927500D01*
X193497500Y-75447500D01*
X193827500Y-75687500D01*
G36*
X193827500Y-75687500D02*
G01*
X193497500Y-75927500D01*
X193497500Y-75447500D01*
X193827500Y-75687500D01*
G37*
%TO.C,C25*%
X169015000Y-95038748D02*
X169015000Y-95561252D01*
X170485000Y-95038748D02*
X170485000Y-95561252D01*
%TO.C,Q1*%
D15*
X197850000Y-73482500D02*
X197850000Y-75082500D01*
X201050000Y-73482500D02*
X201050000Y-75082500D01*
D16*
X200495000Y-71854500D02*
G75*
G02*
X200295000Y-71854500I-100000J0D01*
G01*
X200295000Y-71854500D02*
G75*
G02*
X200495000Y-71854500I100000J0D01*
G01*
%TO.C,R9*%
D14*
X216265000Y-77727064D02*
X216265000Y-77272936D01*
X217735000Y-77727064D02*
X217735000Y-77272936D01*
%TO.C,R14*%
X196410436Y-77802500D02*
X196864564Y-77802500D01*
X196410436Y-79272500D02*
X196864564Y-79272500D01*
%TO.C,R24*%
X180965000Y-88672936D02*
X180965000Y-89127064D01*
X182435000Y-88672936D02*
X182435000Y-89127064D01*
%TO.C,R6*%
X207810436Y-65065000D02*
X208264564Y-65065000D01*
X207810436Y-66535000D02*
X208264564Y-66535000D01*
%TO.C,R4*%
X210014564Y-74715000D02*
X209560436Y-74715000D01*
X210014564Y-76185000D02*
X209560436Y-76185000D01*
%TO.C,R3*%
X202715000Y-74639564D02*
X202715000Y-74185436D01*
X204185000Y-74639564D02*
X204185000Y-74185436D01*
%TO.C,R8*%
X216265000Y-69522936D02*
X216265000Y-69977064D01*
X217735000Y-69522936D02*
X217735000Y-69977064D01*
%TO.C,TP3*%
X204300000Y-102000000D02*
G75*
G02*
X202900000Y-102000000I-700000J0D01*
G01*
X202900000Y-102000000D02*
G75*
G02*
X204300000Y-102000000I700000J0D01*
G01*
%TO.C,C22*%
X196161252Y-83815000D02*
X195638748Y-83815000D01*
X196161252Y-85285000D02*
X195638748Y-85285000D01*
%TO.C,R21*%
X198465000Y-86764564D02*
X198465000Y-86310436D01*
X199935000Y-86764564D02*
X199935000Y-86310436D01*
%TO.C,R34*%
X171965000Y-108072936D02*
X171965000Y-108527064D01*
X173435000Y-108072936D02*
X173435000Y-108527064D01*
%TO.C,C5*%
X212840580Y-107990000D02*
X212559420Y-107990000D01*
X212840580Y-109010000D02*
X212559420Y-109010000D01*
%TO.C,S1*%
D17*
X181400000Y-116500000D02*
X181400000Y-114300000D01*
D16*
X184650000Y-117100000D02*
X184650000Y-117100000D01*
X184850000Y-117100000D02*
X184850000Y-117100000D01*
D17*
X186250000Y-109800000D02*
X188250000Y-109800000D01*
X193100000Y-114300000D02*
X193100000Y-116500000D01*
X193100000Y-116500000D02*
X181400000Y-116500000D01*
D16*
X184650000Y-117100000D02*
G75*
G02*
X184850000Y-117100000I100000J0D01*
G01*
X184850000Y-117100000D02*
G75*
G02*
X184650000Y-117100000I-100000J0D01*
G01*
%TO.C,J1*%
X183645000Y-82285500D02*
X183645000Y-85714500D01*
X190155000Y-82285500D02*
X190155000Y-85714500D01*
X189540000Y-79571000D02*
G75*
G02*
X189340000Y-79571000I-100000J0D01*
G01*
X189340000Y-79571000D02*
G75*
G02*
X189540000Y-79571000I100000J0D01*
G01*
%TO.C,R2*%
D14*
X200314564Y-58865000D02*
X199860436Y-58865000D01*
X200314564Y-60335000D02*
X199860436Y-60335000D01*
%TO.C,C10*%
X202340000Y-106463748D02*
X202340000Y-107886252D01*
X205060000Y-106463748D02*
X205060000Y-107886252D01*
%TO.C,R19*%
X204015000Y-86927064D02*
X204015000Y-86472936D01*
X205485000Y-86927064D02*
X205485000Y-86472936D01*
%TO.C,R1*%
X209772936Y-58865000D02*
X210227064Y-58865000D01*
X209772936Y-60335000D02*
X210227064Y-60335000D01*
%TO.C,Y1*%
X164140000Y-95502500D02*
X164140000Y-102947500D01*
X164140000Y-102947500D02*
X167860000Y-102947500D01*
X167860000Y-102947500D02*
X167860000Y-95502500D01*
%TO.C,L1*%
D15*
X212885000Y-110300000D02*
X216885000Y-110300000D01*
X212885000Y-114300000D02*
X212885000Y-110300000D01*
X216885000Y-110300000D02*
X216885000Y-114300000D01*
X216885000Y-114300000D02*
X212885000Y-114300000D01*
D16*
X217685000Y-112300000D02*
G75*
G02*
X217485000Y-112300000I-100000J0D01*
G01*
X217485000Y-112300000D02*
G75*
G02*
X217685000Y-112300000I100000J0D01*
G01*
%TO.C,TP1*%
D14*
X196050000Y-54800000D02*
X197450000Y-54800000D01*
X196050000Y-56200000D02*
X196050000Y-54800000D01*
X197450000Y-54800000D02*
X197450000Y-56200000D01*
X197450000Y-56200000D02*
X196050000Y-56200000D01*
%TO.C,J3*%
X136140000Y-87280000D02*
X136140000Y-85900000D01*
X137520000Y-87280000D02*
X136140000Y-87280000D01*
X138790000Y-84520000D02*
X146520000Y-84520000D01*
X138790000Y-87280000D02*
X138790000Y-84520000D01*
X138790000Y-87280000D02*
X146520000Y-87280000D01*
X146520000Y-87280000D02*
X146520000Y-84520000D01*
%TO.C,C31*%
X143165000Y-112771248D02*
X143165000Y-113293752D01*
X144635000Y-112771248D02*
X144635000Y-113293752D01*
%TO.C,D3*%
X139850000Y-94652500D02*
X139850000Y-100162500D01*
X143150000Y-94652500D02*
X139850000Y-94652500D01*
X143150000Y-94652500D02*
X143150000Y-100162500D01*
%TO.C,C26*%
X132865000Y-108686252D02*
X132865000Y-108163748D01*
X134335000Y-108686252D02*
X134335000Y-108163748D01*
%TO.C,SW1*%
X221915000Y-94865000D02*
X223125000Y-94865000D01*
X221915000Y-101585000D02*
X221915000Y-94865000D01*
X223125000Y-94865000D02*
X223125000Y-94365000D01*
X223125000Y-101585000D02*
X221915000Y-101585000D01*
X223125000Y-102085000D02*
X223125000Y-101585000D01*
X223235000Y-102385000D02*
X225735000Y-102385000D01*
X223935000Y-94365000D02*
X223935000Y-95365000D01*
X223935000Y-95365000D02*
X225435000Y-95365000D01*
X223935000Y-101085000D02*
X225435000Y-101085000D01*
X223935000Y-102085000D02*
X223935000Y-101085000D01*
X225735000Y-102385000D02*
X225735000Y-99885000D01*
X221415000Y-94365000D02*
X225435000Y-94365000D01*
X225435000Y-102085000D01*
X221415000Y-102085000D01*
X221415000Y-94365000D01*
%TO.C,R31*%
X168790000Y-112235436D02*
X168790000Y-112689564D01*
X170260000Y-112235436D02*
X170260000Y-112689564D01*
%TO.C,C11*%
X198090000Y-106463748D02*
X198090000Y-107886252D01*
X200810000Y-106463748D02*
X200810000Y-107886252D01*
%TO.C,C8*%
X216959420Y-107990000D02*
X217240580Y-107990000D01*
X216959420Y-109010000D02*
X217240580Y-109010000D01*
%TO.C,TP4*%
X193200000Y-96500000D02*
G75*
G02*
X191800000Y-96500000I-700000J0D01*
G01*
X191800000Y-96500000D02*
G75*
G02*
X193200000Y-96500000I700000J0D01*
G01*
%TO.C,C18*%
X209436252Y-79890000D02*
X208013748Y-79890000D01*
X209436252Y-82610000D02*
X208013748Y-82610000D01*
%TO.C,C14*%
X214090000Y-101640580D02*
X214090000Y-101359420D01*
X215110000Y-101640580D02*
X215110000Y-101359420D01*
%TO.C,C3*%
X206515000Y-69861252D02*
X206515000Y-69338748D01*
X207985000Y-69861252D02*
X207985000Y-69338748D01*
%TO.C,C17*%
X195240000Y-92486252D02*
X195240000Y-91063748D01*
X197960000Y-92486252D02*
X197960000Y-91063748D01*
%TO.C,R10*%
X216265000Y-65597936D02*
X216265000Y-66052064D01*
X217735000Y-65597936D02*
X217735000Y-66052064D01*
%TO.C,R25*%
X168627064Y-89665000D02*
X168172936Y-89665000D01*
X168627064Y-91135000D02*
X168172936Y-91135000D01*
%TO.C,R30*%
X145650000Y-112785436D02*
X145650000Y-113239564D01*
X147120000Y-112785436D02*
X147120000Y-113239564D01*
%TO.C,R20*%
X201865000Y-96085436D02*
X201865000Y-96539564D01*
X203335000Y-96085436D02*
X203335000Y-96539564D01*
%TO.C,C7*%
X220765000Y-106988748D02*
X220765000Y-107511252D01*
X222235000Y-106988748D02*
X222235000Y-107511252D01*
%TO.C,C21*%
X207615000Y-86261252D02*
X207615000Y-85738748D01*
X209085000Y-86261252D02*
X209085000Y-85738748D01*
%TO.C,R17*%
X201765000Y-86472936D02*
X201765000Y-86927064D01*
X203235000Y-86472936D02*
X203235000Y-86927064D01*
%TO.C,R23*%
X149227064Y-89465000D02*
X148772936Y-89465000D01*
X149227064Y-90935000D02*
X148772936Y-90935000D01*
%TO.C,R33*%
X165290000Y-108489564D02*
X165290000Y-108035436D01*
X166760000Y-108489564D02*
X166760000Y-108035436D01*
%TO.C,R35*%
X144265000Y-98639564D02*
X144265000Y-98185436D01*
X145735000Y-98639564D02*
X145735000Y-98185436D01*
%TO.C,C12*%
X196013748Y-61690000D02*
X197436252Y-61690000D01*
X196013748Y-64410000D02*
X197436252Y-64410000D01*
%TO.C,C24*%
X172240000Y-91436252D02*
X172240000Y-90913748D01*
X173710000Y-91436252D02*
X173710000Y-90913748D01*
%TO.C,C19*%
X207565000Y-93688748D02*
X207565000Y-94211252D01*
X209035000Y-93688748D02*
X209035000Y-94211252D01*
%TO.C,U7*%
X175715000Y-94490000D02*
X176015000Y-94490000D01*
X175715000Y-94790000D02*
X175715000Y-94490000D01*
X175715000Y-101710000D02*
X175715000Y-101410000D01*
X176015000Y-101710000D02*
X175715000Y-101710000D01*
X182635000Y-94490000D02*
X182935000Y-94490000D01*
X182935000Y-94490000D02*
X182935000Y-94790000D01*
X182935000Y-101410000D02*
X182935000Y-101710000D01*
X182935000Y-101710000D02*
X182635000Y-101710000D01*
X175075000Y-94780000D02*
X174735000Y-94310000D01*
X175415000Y-94310000D01*
X175075000Y-94780000D01*
G36*
X175075000Y-94780000D02*
G01*
X174735000Y-94310000D01*
X175415000Y-94310000D01*
X175075000Y-94780000D01*
G37*
%TO.C,C9*%
X206590000Y-106463748D02*
X206590000Y-107886252D01*
X209310000Y-106463748D02*
X209310000Y-107886252D01*
%TO.C,P1*%
X200330000Y-53750000D02*
X200330000Y-55450000D01*
X209670000Y-53750000D02*
X209670000Y-55450000D01*
%TO.C,R16*%
X209735436Y-99515000D02*
X210189564Y-99515000D01*
X209735436Y-100985000D02*
X210189564Y-100985000D01*
%TO.C,U1*%
X210690000Y-69852500D02*
X211165000Y-69852500D01*
X210690000Y-70327500D02*
X210690000Y-69852500D01*
X210690000Y-73072500D02*
X210690000Y-72597500D01*
X211165000Y-73072500D02*
X210690000Y-73072500D01*
X213435000Y-69852500D02*
X213910000Y-69852500D01*
X213910000Y-69852500D02*
X213910000Y-70327500D01*
X213910000Y-72597500D02*
X213910000Y-73072500D01*
X213910000Y-73072500D02*
X213435000Y-73072500D01*
X211550000Y-73602500D02*
X211790000Y-73932500D01*
X211310000Y-73932500D01*
X211550000Y-73602500D01*
G36*
X211790000Y-73932500D02*
G01*
X211310000Y-73932500D01*
X211550000Y-73602500D01*
X211790000Y-73932500D01*
G37*
%TO.C,C28*%
X169015000Y-101461252D02*
X169015000Y-100938748D01*
X170485000Y-101461252D02*
X170485000Y-100938748D01*
%TO.C,C33*%
X155661252Y-89615000D02*
X155138748Y-89615000D01*
X155661252Y-91085000D02*
X155138748Y-91085000D01*
%TO.C,R37*%
X132645000Y-98813763D02*
X132645000Y-100261237D01*
X135355000Y-98813763D02*
X135355000Y-100261237D01*
%TO.C,C4*%
X203290000Y-69936252D02*
X203290000Y-68513748D01*
X205110000Y-69936252D02*
X205110000Y-68513748D01*
%TO.C,R36*%
X154415000Y-97272936D02*
X154415000Y-97727064D01*
X155885000Y-97272936D02*
X155885000Y-97727064D01*
%TO.C,R29*%
X156815000Y-110614564D02*
X156815000Y-110160436D01*
X158285000Y-110614564D02*
X158285000Y-110160436D01*
%TO.C,R38*%
X152015000Y-97727064D02*
X152015000Y-97272936D01*
X153485000Y-97727064D02*
X153485000Y-97272936D01*
%TO.C,R5*%
X216265000Y-74039564D02*
X216265000Y-73585436D01*
X217735000Y-74039564D02*
X217735000Y-73585436D01*
%TO.C,C23*%
X182238748Y-105015000D02*
X182761252Y-105015000D01*
X182238748Y-106485000D02*
X182761252Y-106485000D01*
%TO.C,U5*%
X201680000Y-90200000D02*
X201680000Y-90665000D01*
X201680000Y-92335000D02*
X201680000Y-92800000D01*
X204000000Y-90500000D02*
X204000000Y-90690000D01*
X204000000Y-92310000D02*
X204000000Y-92800000D01*
X204000000Y-90200000D02*
X204330000Y-89960000D01*
X204330000Y-90440000D01*
X204000000Y-90200000D01*
G36*
X204330000Y-90440000D02*
G01*
X204000000Y-90200000D01*
X204330000Y-89960000D01*
X204330000Y-90440000D01*
G37*
%TD*%
M02*
