M48
; DRILL file KiCad 10.0.1 date 2026-10-06T22:24:19
; FORMAT={-:-/ absolute / metric / decimal}
; #@! TF.CreationDate,2026-10-06T22:24:19+02:00
; #@! TF.GenerationSoftware,Kicad,Pcbnew,10.0.1
; #@! TF.FileFunction,Plated,1,2,PTH
FMAT,2
METRIC
; #@! TA.AperFunction,Plated,PTH,ViaDrill
T1C0.300
; #@! TA.AperFunction,Plated,PTH,ComponentDrill
T2C0.300
; #@! TA.AperFunction,Plated,PTH,ViaDrill
T3C0.350
; #@! TA.AperFunction,Plated,PTH,ViaDrill
T4C0.400
; #@! TA.AperFunction,Plated,PTH,ViaDrill
T5C0.500
; #@! TA.AperFunction,Plated,PTH,ComponentDrill
T6C0.600
; #@! TA.AperFunction,Plated,PTH,ComponentDrill
T7C0.950
; #@! TA.AperFunction,Plated,PTH,ComponentDrill
T8C1.000
; #@! TA.AperFunction,Plated,PTH,ComponentDrill
T9C1.100
; #@! TA.AperFunction,Plated,PTH,ComponentDrill
T10C1.600
; #@! TA.AperFunction,Plated,PTH,ComponentDrill
T11C3.140
; #@! TA.AperFunction,Plated,PTH,ComponentDrill
T12C3.200
%
G90
G05
T1
X165.2Y-89.6
X172.6Y-113.2
X177.6Y-113.3
X187.4Y-115.5
X193.676Y-98.923
X194.277Y-99.524
X195.7Y-118.6
X201.283Y-63.807
X202.133Y-63.807
T2
X203.84Y-91.5
T3
X141.6Y-104.4
X149.4Y-106.5
X152.6Y-113.3
X156.9Y-96.7
X157.85Y-92.5
X167.325Y-105.575
X171.2Y-99.025
X172.3Y-103.9
X173.5Y-99.3
X177.6Y-95.5
X178.4Y-100.1
X178.4Y-104.3
X179.8Y-98.7
X180.4Y-91.2
X181.5Y-96.1
X184.3Y-91.0
X185.8Y-96.1
X190.2Y-87.8
X195.0Y-58.2
X196.1Y-97.1
X204.2Y-65.75
X205.0Y-65.75
X208.2Y-61.425
X208.2Y-62.5
X209.0Y-61.425
X209.0Y-62.5
X214.0Y-96.4
X214.45Y-64.75
X215.1Y-70.3
X215.25Y-64.75
T4
X129.0Y-102.6
X130.8Y-102.6
X133.6Y-105.6
X139.5Y-113.5
X140.2Y-111.8
X140.5Y-113.5
X141.5Y-113.5
X172.5Y-88.5
X173.5Y-88.5
X174.9Y-111.4
X175.0Y-92.5
X189.0Y-101.0
X189.0Y-104.4
X190.0Y-101.0
X190.0Y-104.4
X191.0Y-101.0
X191.0Y-104.4
X192.0Y-101.0
X192.0Y-104.4
X199.0Y-110.1
X199.05Y-78.5
X199.2Y-90.4
X199.25Y-65.25
X199.25Y-66.35
X200.0Y-110.1
X200.4Y-90.4
X200.45Y-65.25
X200.45Y-66.35
X200.5Y-78.5
X201.0Y-96.2
X203.2Y-110.1
X204.2Y-110.1
X207.4Y-110.1
X208.4Y-110.1
X211.0Y-104.4
X214.0Y-99.4
X215.0Y-99.4
X217.6Y-99.0
X217.6Y-100.8
X221.1Y-109.6
X222.1Y-109.6
X222.2Y-65.0
X222.5Y-78.5
X223.7Y-109.6
X224.8Y-109.6
T5
X192.4Y-84.8
X192.4Y-87.4
X204.2Y-82.6
T7
X154.35Y-86.2
X156.85Y-86.2
X159.35Y-86.2
X161.85Y-86.2
X164.35Y-86.2
X166.85Y-86.2
X169.35Y-86.2
X171.85Y-86.2
T8
X137.52Y-85.9
X140.06Y-85.9
X142.6Y-85.9
X145.14Y-85.9
X223.125Y-96.975
X223.125Y-99.475
T9
X184.71Y-110.05
X184.71Y-112.55
X187.25Y-112.55
X189.79Y-110.05
X189.79Y-112.55
T10
X189.825Y-66.138
X189.825Y-70.938
T11
X181.4Y-111.3
X193.1Y-111.3
T12
X130.0Y-87.5
X130.0Y-115.0
X187.5Y-55.0
X222.25Y-55.0
X222.25Y-115.0
T6
X200.68Y-52.975G85X200.68Y-52.175
G05
X200.68Y-57.305G85X200.68Y-56.205
G05
X209.32Y-52.975G85X209.32Y-52.175
G05
X209.32Y-57.305G85X209.32Y-56.205
G05
M30
